<?xml version="1.0" encoding="UTF-8"?>
<svg width="549px" height="528px" viewBox="0 0 549 528" version="1.1" xmlns="http://www.w3.org/2000/svg" xmlns:xlink="http://www.w3.org/1999/xlink">
    <!-- Generator: Sketch 61.2 (89653) - https://sketch.com -->
    <title>img-new-satisfaction-guarantee-graphics</title>
    <desc>Created with Sketch.</desc>
    <defs>
        <linearGradient x1="0%" y1="50%" x2="100%" y2="50%" id="linearGradient-1">
            <stop stop-color="#FFDBD9" offset="0%"></stop>
            <stop stop-color="#FFA8A2" offset="100%"></stop>
        </linearGradient>
        <linearGradient x1="50%" y1="-2.48949813e-15%" x2="50%" y2="100%" id="linearGradient-2">
            <stop stop-color="#FFAAA4" offset="0%"></stop>
            <stop stop-color="#9FC1FF" offset="100%"></stop>
        </linearGradient>
        <path d="M547.908107,297.13503 C547.342508,305.178482 546.602172,313.247225 545.687098,321.34126 C538.665402,382.623152 520.345533,444.019544 476.03573,491.473247 C470.490107,497.405132 464.516836,503.154922 457.246828,507.19964 C438.099254,517.846684 409.72277,512.30382 388.216238,512.30382 L189.08423,512.30382 C164.294467,512.30382 128.896287,519.427601 108.576131,504.73308 C93.3741141,493.776422 79.4504219,481.147462 67.0667295,467.083542 C61.4727279,460.704336 56.218716,454.034826 51.326541,447.102745 C26.1091311,411.419007 11.2932131,370.066869 4.45085246,325.805348 C-2.8467459,278.59306 -1.24651639,230.90898 18.4804508,186.274992 C31.8892705,155.925811 53.2164672,120.448999 86.7247213,106.060729 C105.968861,97.7836795 128.082377,95.5405992 149.064697,95.2853902 C176.116852,94.9529287 203.831172,93.4727164 227.172451,79.5700328 C253.548648,63.8657115 272.847967,39.9022746 298.879287,23.5233738 C325.117533,7.01479918 355.687434,-2.95628607 387.650639,1.57677787 C432.070803,7.88250984 467.206877,40.1574836 491.306885,75.2673467 C528.2915,129.156455 546.501008,192.812481 548.666836,256.787174 C549.104298,270.240583 548.851055,283.707579 547.908107,297.13503 Z" id="path-3"></path>
        <linearGradient x1="50%" y1="100%" x2="50%" y2="0%" id="linearGradient-4">
            <stop stop-color="#FFFFFF" stop-opacity="0" offset="0.3%"></stop>
            <stop stop-color="#FFFFFF" offset="100%"></stop>
        </linearGradient>
        <linearGradient x1="50%" y1="100%" x2="50%" y2="0%" id="linearGradient-5">
            <stop stop-color="#FFFFFF" stop-opacity="0" offset="0.3%"></stop>
            <stop stop-color="#FFFFFF" offset="100%"></stop>
        </linearGradient>
        <linearGradient x1="50%" y1="100%" x2="50%" y2="0%" id="linearGradient-6">
            <stop stop-color="#FFFFFF" stop-opacity="0" offset="0.3%"></stop>
            <stop stop-color="#FFFFFF" offset="100%"></stop>
        </linearGradient>
        <linearGradient x1="50%" y1="100%" x2="50%" y2="0%" id="linearGradient-7">
            <stop stop-color="#FFFFFF" stop-opacity="0" offset="0.3%"></stop>
            <stop stop-color="#FFFFFF" offset="100%"></stop>
        </linearGradient>
        <linearGradient x1="50%" y1="100%" x2="50%" y2="0%" id="linearGradient-8">
            <stop stop-color="#FFFFFF" stop-opacity="0" offset="0.3%"></stop>
            <stop stop-color="#FFFFFF" offset="100%"></stop>
        </linearGradient>
        <linearGradient x1="0%" y1="50%" x2="100%" y2="50%" id="linearGradient-9">
            <stop stop-color="#13072E" offset="0%"></stop>
            <stop stop-color="#0D185E" offset="99.7%"></stop>
        </linearGradient>
        <linearGradient x1="0%" y1="50%" x2="100%" y2="50%" id="linearGradient-10">
            <stop stop-color="#1A164A" offset="0%"></stop>
            <stop stop-color="#244C7A" offset="99.7%"></stop>
        </linearGradient>
        <linearGradient x1="0%" y1="50%" x2="100%" y2="50%" id="linearGradient-11">
            <stop stop-color="#1A164A" offset="0%"></stop>
            <stop stop-color="#244C7A" offset="99.7%"></stop>
        </linearGradient>
        <linearGradient x1="0%" y1="50%" x2="100%" y2="50%" id="linearGradient-12">
            <stop stop-color="#FFFFFF" offset="0.3%"></stop>
            <stop stop-color="#FEFCFC" offset="1.6%"></stop>
            <stop stop-color="#F4E0DA" offset="20.4%"></stop>
            <stop stop-color="#EDCABF" offset="39.6%"></stop>
            <stop stop-color="#E8BAAC" offset="59%"></stop>
            <stop stop-color="#E5B1A0" offset="79%"></stop>
            <stop stop-color="#E4AE9D" offset="100%"></stop>
        </linearGradient>
        <linearGradient x1="0%" y1="50%" x2="100%" y2="50%" id="linearGradient-13">
            <stop stop-color="#1A164A" offset="0%"></stop>
            <stop stop-color="#244C7A" offset="99.7%"></stop>
        </linearGradient>
        <linearGradient x1="0%" y1="50%" x2="100%" y2="50%" id="linearGradient-14">
            <stop stop-color="#13072E" offset="0%"></stop>
            <stop stop-color="#0D185E" offset="99.7%"></stop>
        </linearGradient>
        <linearGradient x1="0%" y1="50%" x2="100%" y2="50%" id="linearGradient-15">
            <stop stop-color="#1A164A" offset="0%"></stop>
            <stop stop-color="#244C7A" offset="99.7%"></stop>
        </linearGradient>
        <linearGradient x1="0%" y1="50%" x2="100%" y2="50%" id="linearGradient-16">
            <stop stop-color="#13072E" offset="0%"></stop>
            <stop stop-color="#0D185E" offset="99.7%"></stop>
        </linearGradient>
        <linearGradient x1="0%" y1="50%" x2="100%" y2="50%" id="linearGradient-17">
            <stop stop-color="#13072E" offset="0%"></stop>
            <stop stop-color="#0D185E" offset="99.7%"></stop>
        </linearGradient>
        <linearGradient x1="0%" y1="50%" x2="100%" y2="50%" id="linearGradient-18">
            <stop stop-color="#A32929" offset="0%"></stop>
            <stop stop-color="#782929" offset="99%"></stop>
        </linearGradient>
        <linearGradient x1="0%" y1="50%" x2="100%" y2="50%" id="linearGradient-19">
            <stop stop-color="#A32929" offset="0%"></stop>
            <stop stop-color="#782929" offset="99%"></stop>
        </linearGradient>
        <linearGradient x1="0%" y1="50%" x2="100%" y2="50%" id="linearGradient-20">
            <stop stop-color="#1A164A" offset="0%"></stop>
            <stop stop-color="#244C7A" offset="99.7%"></stop>
        </linearGradient>
        <linearGradient x1="0%" y1="50%" x2="100%" y2="50%" id="linearGradient-21">
            <stop stop-color="#1A164A" offset="0%"></stop>
            <stop stop-color="#244C7A" offset="99.7%"></stop>
        </linearGradient>
        <linearGradient x1="0%" y1="50%" x2="100%" y2="50%" id="linearGradient-22">
            <stop stop-color="#1A164A" offset="0%"></stop>
            <stop stop-color="#244C7A" offset="99.7%"></stop>
        </linearGradient>
        <linearGradient x1="0%" y1="50%" x2="100%" y2="50%" id="linearGradient-23">
            <stop stop-color="#13072E" offset="0%"></stop>
            <stop stop-color="#0D185E" offset="99.7%"></stop>
        </linearGradient>
        <linearGradient x1="0%" y1="50%" x2="100%" y2="50%" id="linearGradient-24">
            <stop stop-color="#13072E" offset="0%"></stop>
            <stop stop-color="#0D185E" offset="99.7%"></stop>
        </linearGradient>
        <linearGradient x1="0%" y1="50%" x2="100%" y2="50%" id="linearGradient-25">
            <stop stop-color="#E4AE9D" offset="0%"></stop>
            <stop stop-color="#E5B1A1" offset="20%"></stop>
            <stop stop-color="#E8BBAD" offset="40.2%"></stop>
            <stop stop-color="#EECCC1" offset="60.5%"></stop>
            <stop stop-color="#F5E3DD" offset="80.7%"></stop>
            <stop stop-color="#FFFFFF" offset="99.7%"></stop>
        </linearGradient>
        <linearGradient x1="0%" y1="50%" x2="100%" y2="50%" id="linearGradient-26">
            <stop stop-color="#1A164A" offset="0%"></stop>
            <stop stop-color="#244C7A" offset="99.7%"></stop>
        </linearGradient>
        <linearGradient x1="0%" y1="50%" x2="100%" y2="50%" id="linearGradient-27">
            <stop stop-color="#1A164A" offset="0%"></stop>
            <stop stop-color="#244C7A" offset="99.7%"></stop>
        </linearGradient>
        <linearGradient x1="0%" y1="50%" x2="100%" y2="50%" id="linearGradient-28">
            <stop stop-color="#1A164A" offset="0%"></stop>
            <stop stop-color="#244C7A" offset="99.7%"></stop>
        </linearGradient>
        <linearGradient x1="0%" y1="50%" x2="100%" y2="50%" id="linearGradient-29">
            <stop stop-color="#13072E" offset="0%"></stop>
            <stop stop-color="#0D185E" offset="99.7%"></stop>
        </linearGradient>
        <linearGradient x1="0%" y1="50%" x2="100%" y2="50%" id="linearGradient-30">
            <stop stop-color="#E4AE9D" offset="0%"></stop>
            <stop stop-color="#E5B1A1" offset="20%"></stop>
            <stop stop-color="#E8BBAD" offset="40.2%"></stop>
            <stop stop-color="#EECCC1" offset="60.5%"></stop>
            <stop stop-color="#F5E3DD" offset="80.7%"></stop>
            <stop stop-color="#FFFFFF" offset="99.7%"></stop>
        </linearGradient>
        <linearGradient x1="0%" y1="50%" x2="100%" y2="50%" id="linearGradient-31">
            <stop stop-color="#1A164A" offset="0%"></stop>
            <stop stop-color="#244C7A" offset="99.7%"></stop>
        </linearGradient>
        <linearGradient x1="0%" y1="50%" x2="100%" y2="50%" id="linearGradient-32">
            <stop stop-color="#1A164A" offset="0%"></stop>
            <stop stop-color="#244C7A" offset="99.7%"></stop>
        </linearGradient>
        <linearGradient x1="0%" y1="50%" x2="100%" y2="50%" id="linearGradient-33">
            <stop stop-color="#1A164A" offset="0%"></stop>
            <stop stop-color="#244C7A" offset="99.7%"></stop>
        </linearGradient>
        <linearGradient x1="0%" y1="50%" x2="100%" y2="50%" id="linearGradient-34">
            <stop stop-color="#A32929" offset="0%"></stop>
            <stop stop-color="#782929" offset="99%"></stop>
        </linearGradient>
        <linearGradient x1="0%" y1="50%" x2="100%" y2="50%" id="linearGradient-35">
            <stop stop-color="#1A164A" offset="0%"></stop>
            <stop stop-color="#244C7A" offset="99.7%"></stop>
        </linearGradient>
        <linearGradient x1="0%" y1="50%" x2="100%" y2="50%" id="linearGradient-36">
            <stop stop-color="#E4AE9D" offset="0%"></stop>
            <stop stop-color="#E5B1A1" offset="20%"></stop>
            <stop stop-color="#E8BBAD" offset="40.2%"></stop>
            <stop stop-color="#EECCC1" offset="60.5%"></stop>
            <stop stop-color="#F5E3DD" offset="80.7%"></stop>
            <stop stop-color="#FFFFFF" offset="99.7%"></stop>
        </linearGradient>
        <linearGradient x1="0%" y1="50%" x2="100%" y2="50%" id="linearGradient-37">
            <stop stop-color="#96942D" offset="0%"></stop>
            <stop stop-color="#B5B47B" offset="99%"></stop>
        </linearGradient>
        <linearGradient x1="0%" y1="50%" x2="100%" y2="50%" id="linearGradient-38">
            <stop stop-color="#13072E" offset="0%"></stop>
            <stop stop-color="#0D185E" offset="99.7%"></stop>
        </linearGradient>
        <linearGradient x1="0%" y1="50%" x2="100%" y2="50%" id="linearGradient-39">
            <stop stop-color="#1A164A" offset="0%"></stop>
            <stop stop-color="#244C7A" offset="99.7%"></stop>
        </linearGradient>
        <linearGradient x1="0%" y1="50%" x2="100%" y2="50%" id="linearGradient-40">
            <stop stop-color="#13072E" offset="0%"></stop>
            <stop stop-color="#0D185E" offset="99.7%"></stop>
        </linearGradient>
        <linearGradient x1="0%" y1="50%" x2="100%" y2="50%" id="linearGradient-41">
            <stop stop-color="#E4AE9D" offset="0%"></stop>
            <stop stop-color="#E5B1A1" offset="20%"></stop>
            <stop stop-color="#E8BBAD" offset="40.2%"></stop>
            <stop stop-color="#EECCC1" offset="60.5%"></stop>
            <stop stop-color="#F5E3DD" offset="80.7%"></stop>
            <stop stop-color="#FFFFFF" offset="99.7%"></stop>
        </linearGradient>
        <linearGradient x1="0%" y1="50%" x2="100%" y2="50%" id="linearGradient-42">
            <stop stop-color="#1A164A" offset="0%"></stop>
            <stop stop-color="#244C7A" offset="99.7%"></stop>
        </linearGradient>
        <linearGradient x1="0%" y1="50%" x2="100%" y2="50%" id="linearGradient-43">
            <stop stop-color="#E4AE9D" offset="0%"></stop>
            <stop stop-color="#E5B1A1" offset="20%"></stop>
            <stop stop-color="#E8BBAD" offset="40.2%"></stop>
            <stop stop-color="#EECCC1" offset="60.5%"></stop>
            <stop stop-color="#F5E3DD" offset="80.7%"></stop>
            <stop stop-color="#FFFFFF" offset="99.7%"></stop>
        </linearGradient>
        <linearGradient x1="0%" y1="50%" x2="100%" y2="50%" id="linearGradient-44">
            <stop stop-color="#1A164A" offset="0%"></stop>
            <stop stop-color="#244C7A" offset="99.7%"></stop>
        </linearGradient>
    </defs>
    <g id="Page-1" stroke="none" stroke-width="1" fill="none" fill-rule="evenodd">
        <g id="Home-page-6" transform="translate(-970.000000, -8150.000000)" fill-rule="nonzero">
            <g id="img-new-satisfaction-guarantee-graphics" transform="translate(970.000000, 8149.000000)">
                <g id="Group_1" transform="translate(0.023452, 0.892542)">
                    <g id="Path_1">
                        <use fill="url(#linearGradient-1)" xlink:href="#path-3"></use>
                        <use fill="url(#linearGradient-2)" xlink:href="#path-3"></use>
                    </g>
                    <path d="M547.908107,297.13503 C543.038443,366.179415 526.194648,437.763475 476.03573,491.473247 C470.490107,497.405132 464.516836,503.154922 457.246828,507.19964 C438.099254,517.846684 409.72277,512.30382 388.216238,512.30382 L189.08423,512.30382 C164.294467,512.30382 128.896287,519.427601 108.576131,504.73308 C86.4312554,488.828121 67.0843633,469.35256 51.326541,447.102745 L91.8151066,402.737761 C91.8151066,402.737761 171.067852,443.630523 174.530418,440.195548 C177.992984,436.760572 286.574074,319.382358 286.574074,319.382358 L334.443008,378.659825 L390.34068,255.101415 L476.87723,339.389366 L548.666836,256.788553 C549.104251,270.241503 548.851008,283.708037 547.908107,297.13503 L547.908107,297.13503 Z" id="Path_2" fill="url(#linearGradient-4)"></path>
                    <path d="M545.687098,321.34126 C538.665402,382.623152 520.345533,444.019544 476.03573,491.473247 C470.490107,497.405132 464.516836,503.154922 457.246828,507.19964 C438.099254,517.846684 409.72277,512.30382 388.216238,512.30382 L189.08423,512.30382 C164.294467,512.30382 128.896287,519.427601 108.576131,504.73308 C93.3741141,493.776422 79.4504219,481.147462 67.0667295,467.083542 L101.637205,449.401006 C101.637205,449.401006 169.122746,494.544032 172.585311,491.110436 C176.047877,487.67684 258.073434,408.54687 258.073434,408.54687 L301.679689,431.526718 L389.664721,355.602725 L476.87723,415.990697 L545.687098,321.34126 Z" id="Path_3" fill="url(#linearGradient-5)"></path>
                </g>
                <g id="Group_2" transform="translate(299.854599, 262.999099)" fill="#F5FAFA">
                    <path d="M0.193131148,9.98350082 C0.130088599,7.50256926 1.05272971,5.09774984 2.75901639,3.29564508 C6.60227103,-0.323663625 12.5972595,-0.330912704 16.4492557,3.27909098 C18.158138,5.08595618 19.0795753,7.49747224 19.0110025,9.98350082 L19.0110025,12.3893631 C19.0795538,14.8590024 18.1634113,17.2545711 16.4644303,19.0482492 C14.6834438,20.8757392 12.2056043,21.8538205 9.65655738,21.7355311 C7.08291594,21.8550564 4.57912245,20.878602 2.76591393,19.0482492 C1.04915535,17.2636325 0.120318925,14.8647597 0.187613115,12.3893631 L0.193131148,9.98350082 Z M4.75516475,12.3893631 C4.71309516,13.803922 5.16039479,15.1896738 6.02155328,16.3126844 C6.90346455,17.4031181 8.25639494,18.0023097 9.65655738,17.9225705 C11.0222829,17.9929751 12.3378195,17.3989281 13.1880984,16.327859 C14.0442326,15.1972283 14.4859566,13.806796 14.4393123,12.3893631 L14.4393123,9.98350082 C14.477744,8.5601339 14.0311865,7.16597971 13.1729238,6.02983033 C12.2722929,4.98812021 10.9632631,4.38943092 9.58620246,4.38943092 C8.20914182,4.38943092 6.90011206,4.98812021 5.99948115,6.02983033 C5.1510294,7.17014006 4.7108126,8.56270225 4.74964672,9.98350082 L4.75516475,12.3893631 Z M11.2567869,43.3013828 L7.84940164,41.2072893 L30.0732787,5.63942951 L33.4806639,7.73214344 L11.2567869,43.3013828 Z M22.2266361,35.5761369 C22.1610624,33.0993899 23.083204,30.6982483 24.7897623,28.9020762 C28.6356438,25.2991424 34.617566,25.2991424 38.4634475,28.9020762 C40.1782998,30.6940523 41.1064749,33.0966799 41.0417484,35.5761369 L41.0417484,38.0137279 C41.1130775,40.4953015 40.1909378,42.902697 38.4800016,44.7015836 C36.7039712,46.5211128 34.237231,47.4983774 31.6969598,47.3888656 C29.1209583,47.5103716 26.6142643,46.5337637 24.7994189,44.7015836 C23.0792648,42.9073918 22.1505098,40.4982939 22.221118,38.0137279 L22.2266361,35.5761369 Z M26.7900492,38.0137279 C26.7452541,39.437994 27.1924733,40.8342143 28.0564377,41.9673984 C28.9393665,43.0596536 30.2948557,43.6590685 31.6969598,43.5772844 C33.0659865,43.6473633 34.3834656,43.0467781 35.2285008,41.9673984 C36.0825453,40.8299579 36.5233951,39.4353932 36.4783352,38.0137279 L36.4783352,35.5761369 C36.5182813,34.1549974 36.0660463,32.7636925 35.1981516,31.637641 C34.2987463,30.6052328 32.9965268,30.0126206 31.6272947,30.0126206 C30.2580626,30.0126206 28.955843,30.6052328 28.0564377,31.637641 C27.1968995,32.767318 26.749994,34.1572036 26.7900492,35.5761369 L26.7900492,38.0137279 Z" id="Path_4"></path>
                </g>
                <g id="Group_3" transform="translate(86.030829, 317.701558)" fill="#F5FAFA">
                    <path d="M24.4683369,43.424718 C24.4908819,41.5293421 23.7296222,39.7088082 22.3645869,38.3936516 C20.3661221,36.6567166 18.0119285,35.3779187 15.4670459,34.6469074 C11.7408732,33.6950552 8.30010065,31.856348 5.43802131,29.287518 C3.12167709,26.9026316 1.89618112,23.665105 2.0527082,20.3441664 C1.91671841,17.1065664 3.0287642,13.9402975 5.15936066,11.4987598 C7.41595455,9.12789207 10.4632555,7.66632623 13.724727,7.39058443 L13.724727,0.123335246 L18.9185754,0.123335246 L18.9185754,7.42231311 C22.2924946,7.77746868 25.380561,9.47841683 27.4839418,12.1402311 C29.6503656,15.2126904 30.7216245,18.9239589 30.5257574,22.6782943 L24.0806951,22.6782943 C24.2021852,20.1057561 23.4751564,17.5645481 22.0114328,15.4455328 C20.6723321,13.6253586 18.5151803,12.5910014 16.2575041,12.6865164 C14.1682083,12.4223636 12.0727043,13.1271503 10.5676832,14.6001897 C9.06266214,16.0732291 8.3130355,18.153114 8.5322582,20.2476008 C8.45159103,22.1695822 9.17193856,24.038889 10.521509,25.4097205 C12.6263461,27.1500698 15.0743869,28.4272063 17.7059877,29.1578443 C21.4098518,30.1664855 24.8304123,32.0176957 27.7005246,34.5668959 C29.9491964,36.9263097 31.1267717,40.107759 30.9561639,43.3626402 C31.122176,46.6999411 29.8951457,49.9563676 27.5680918,52.3542746 C25.0173176,54.7093212 21.7302077,56.1091699 18.2646885,56.3162221 L18.2646885,62.6288516 L13.1025689,62.6288516 L13.1025689,56.3479508 C9.62784068,56.086206 6.35128156,54.6280617 3.83089426,52.2218418 C1.41951393,49.8656418 0.257968033,46.4076746 0.346256557,41.8479402 L0.411093443,41.6837787 L6.65750656,41.6837787 C6.65750656,45.0598951 7.50682377,47.4657574 9.2054582,48.9013656 C10.9622229,50.3570773 13.1892979,51.1226496 15.4698049,51.0547779 C17.8481359,51.1966636 20.1982288,50.4789061 22.0914443,49.0324189 C23.7035371,47.6278731 24.5800622,45.5599251 24.4683369,43.424718 L24.4683369,43.424718 Z" id="Path_5"></path>
                </g>
                <g id="Group_4" transform="translate(502.642304, 207.340902)" fill="#F5FAFA">
                    <polygon id="Path_6" points="19.3200123 13.2521148 31.7907664 13.2521148 31.7907664 18.8142918 19.3200123 18.8142918 19.3200123 33.161177 13.1632672 33.161177 13.1632672 18.8142918 0.600086066 18.8142918 0.600086066 13.2521148 13.1632672 13.2521148 13.1632672 0.0309081967 19.3200123 0.0309081967"></polygon>
                </g>
                <g id="Group_5" transform="translate(252.951320, 149.879427)" fill="#F5FAFA">
                    <path d="M6.23813607,6.93892623 L0.0800114754,6.93892623 L0.0800114754,0.562839344 L6.23813607,0.562839344 L6.23813607,6.93892623 Z M6.23813607,34.3180254 L0.0800114754,34.3180254 L0.0800114754,27.9419385 L6.23813607,27.9419385 L6.23813607,34.3180254 Z" id="Path_7"></path>
                </g>
                <polygon id="Path_8" fill="url(#linearGradient-6)" points="327.357854 119.967551 291.57755 64.453382 255.797246 119.967551 272.751402 119.967551 272.751402 396.811394 310.403698 396.811394 310.403698 119.967551"></polygon>
                <polygon id="Path_9" fill="url(#linearGradient-7)" points="109.856315 256.567832 74.0746311 201.059181 38.2998451 256.567832 55.2540008 256.567832 55.2540008 425.781066 92.9007795 425.781066 92.9007795 256.567832"></polygon>
                <polygon id="Path_10" fill="url(#linearGradient-8)" points="520.851812 196.281944 485.071508 140.767775 449.291204 196.281944 466.24536 196.281944 466.24536 293.399321 503.897657 293.399321 503.897657 196.281944"></polygon>
                <g id="Group_8" transform="translate(275.023452, 50.902378)">
                    <polygon id="Path_11" fill="#FFFFFF" points="4.32199918 184.34286 0 187.719896 4.32751721 195.973493 8.11564672 193.697305"></polygon>
                    <polygon id="Path_12" fill="url(#linearGradient-9)" points="82.8560213 93.2001328 48.8787344 162.865297 2.66520984 184.247674 7.41347705 195.973493 61.6971246 182.868166 93.990032 150.7946"></polygon>
                    <polygon id="Path_13" fill="#FFFFFF" points="113.96669 201.630857 102.516772 87.9593811 120.64213 73.1986434 147.040399 73.1986434 166.001739 106.858643 131.623016 216.043958"></polygon>
                    <rect id="Rectangle_2" fill="#2B247A" x="91.5717541" y="448.51868" width="12.788041" height="17.5887295"></rect>
                    <rect id="Rectangle_3" fill="#2B247A" x="163.357222" y="448.51868" width="12.788041" height="17.5887295"></rect>
                    <polygon id="Path_14" fill="url(#linearGradient-10)" points="87.7615525 239.29281 81.5537656 352.383512 86.2192623 461.78541 104.363934 462.106835 127.604508 244.87568 97.0111549 227.080024"></polygon>
                    <polygon id="Path_15" fill="url(#linearGradient-11)" points="120.640751 246.190351 140.112509 381.78635 160.943083 455.263095 176.82674 454.036712 172.348857 235.154285 130.242128 222.942879"></polygon>
                    <path d="M152.159754,33.8357566 C152.159754,21.6128942 142.251166,11.7043066 130.028304,11.7043066 C117.805442,11.7043066 107.896854,21.6128942 107.896854,33.8357566 C107.896854,35.9684762 107.82512,38.3881336 107.772698,40.9250492 L102.418827,50.0104902 C102.280865,50.2448676 102.278902,50.5351598 102.413682,50.7713813 C102.548463,51.0076028 102.799367,51.1536171 103.071334,51.1541025 L107.862366,51.1541025 C108.374164,59.9360516 110.483432,67.6047377 117.771374,67.6047377 C118.957403,67.5869091 120.1363,67.4177005 121.279463,67.1012172 L120.89458,72.9917172 L134.606892,77.3357885 L146.939695,74.3712254 L146.100954,47.8212107 C149.753892,42.8839508 152.159754,37.862541 152.159754,33.8357566 Z" id="Path_16" fill="url(#linearGradient-12)"></path>
                    <path d="M145.761595,42.5252787 C146.172886,40.12966 145.483265,37.6762111 143.884084,35.8457 C143.378834,35.1718507 142.685857,34.6621955 141.892075,34.3806623 C140.491617,34.0930245 139.050323,34.6342472 138.185336,35.7725861 C137.354909,36.8999925 136.749318,38.1767443 136.401632,39.5331254 C134.691042,33.5695115 128.884692,28.4529156 130.160737,22.3830795 C124.017787,24.6220213 117.055409,25.6235443 111.006266,23.1542246 C104.957122,20.6849049 100.355083,13.9335918 102.010493,7.60716721 C103.854895,9.86128361 107.401611,9.88473525 110.061302,8.69697869 C112.720994,7.50922213 114.842678,5.39857459 117.273371,3.79420656 C122.514942,0.33261168 129.010067,-0.658489383 135.045483,1.08233266 C141.080899,2.82315471 146.050488,7.12107434 148.643388,12.8424008 C148.894431,13.5590124 149.297763,14.2127215 149.825626,14.7585377 C150.282147,15.0947756 150.784284,15.3641925 151.316875,15.5586525 C161.376248,20.101373 157.074942,35.4235705 153.946217,43.3653992 C152.670172,46.6100025 145.365676,55.1546762 145.840227,57.7315975 C145.66365,56.7755984 140.873998,47.3549369 141.076785,47.2997566 C143.414187,46.7197345 145.225987,44.8732562 145.761595,42.5252787 Z" id="Path_17" fill="url(#linearGradient-13)"></path>
                    <polygon id="Path_18" fill="url(#linearGradient-14)" points="165.898276 201.630857 173.20967 241.498643 124.330935 252.534709 120.357952 241.248952 115.95732 252.534709 82.7994615 244.014866 91.128932 201.630857"></polygon>
                    <polygon id="Path_19" fill="url(#linearGradient-15)" points="191.147415 91.8206246 147.03902 73.1972639 122.694839 201.629477 122.143035 201.629477 120.64351 73.1972639 82.8601598 93.2001328 90.9854631 202.359237 82.8601598 241.497264 115.968357 241.497264 121.834025 222.942879 124.341971 241.497264 173.220706 241.497264 166.185214 203.146936"></polygon>
                    <polygon id="Path_55" fill="url(#linearGradient-16)" points="147.03902 73.1972639 160.798234 99.4079197 147.03902 111.823493 153.918627 128.377592 122.172005 204.388493"></polygon>
                    <polygon id="Path_56" fill="url(#linearGradient-17)" points="120.640751 73.1972639 108.521771 96.6489033 114.671619 108.144345 105.762755 126.537328 122.178902 204.388493"></polygon>
                    <polygon id="Path_20" fill="url(#linearGradient-18)" points="133.839885 80.0948049 125.251067 88.0062844 129.545476 95.8239574 136.111935 95.8239574 141.492017 87.9607607"></polygon>
                    <polygon id="Path_21" fill="url(#linearGradient-19)" points="129.544097 95.8239574 121.327746 132.162962 122.170625 204.389873 136.609938 128.220328 136.111935 95.8267164"></polygon>
                    <polygon id="Path_22" fill="url(#linearGradient-20)" points="90.0667107 460.934253 104.361175 460.934253 107.958932 477.028975 67.566932 477.028975 90.5219484 465.99291"></polygon>
                    <polygon id="Path_23" fill="url(#linearGradient-21)" points="162.781967 460.934253 175.696923 460.934253 178.81737 477.028975 138.419852 477.028975 161.374869 465.99291"></polygon>
                    <g id="Group_6" transform="translate(139.330328, 269.004098)">
                        <polygon id="Path_24" fill="url(#linearGradient-22)" points="0.302112295 5.83174016 19.0054844 0.15092541 107.173992 0.15092541 109.440524 55.6830279 99.6156664 70.4189344"></polygon>
                        <polygon id="Path_25" fill="url(#linearGradient-23)" points="99.6156664 70.4189344 0.302112295 68.7193803 0.302112295 5.83174016 99.6156664 7.53129426"></polygon>
                    </g>
                    <g id="Group_7" transform="translate(174.719672, 252.927869)" fill="url(#linearGradient-24)">
                        <polygon id="Path_26" points="4.89229508 19.9325139 10.5606943 5.52768934 24.4813115 5.52768934 30.715309 19.9325139 35.3270049 19.9325139 27.0568533 0.827704918 7.87203279 0.827704918 0.353713115 19.9366525"></polygon>
                    </g>
                    <polygon id="Path_27" fill="url(#linearGradient-25)" points="185.451425 244.023143 180.046512 252.802334 185.451425 256.998798 185.451425 262.240929 196.29298 263.988766 200.489444 254.003885 196.992391 246.430385"></polygon>
                    <polygon id="Path_28" fill="#FFFFFF" points="186.233607 236.533793 183.933966 245.638548 198.188425 248.397564 198.188425 236.533793"></polygon>
                    <polygon id="Path_29" fill="url(#linearGradient-26)" points="191.147415 91.8206246 208.305738 182.178411 199.108557 245.635789 183.47459 240.117756 186.233607 182.178411 176.82674 155.672541"></polygon>
                    <path d="M120.89458,67.1908852 L136.609938,59.9567443 C136.609938,59.9567443 129.860004,75.5451869 125.249688,74.3712254 L120.640751,73.1972639 L120.89458,67.1908852 Z" id="Path_30" fill="#DE9E7A"></path>
                    <polygon id="Path_31" fill="url(#linearGradient-27)" points="139.63244 308.843475 238.945994 308.843475 238.945994 314.361507 139.63244 311.602491"></polygon>
                    <rect id="Rectangle_4" fill="url(#linearGradient-28)" x="181.750205" y="299.186917" width="16.4395992" height="5.1000418"></rect>
                    <path d="M176.82674,155.672541 C176.82674,155.672541 184.921694,116.080656 184.854098,118.131984 C184.786502,120.183313 186.233607,182.18393 186.233607,182.18393 L176.82674,155.672541 Z" id="Path_32" fill="url(#linearGradient-29)"></path>
                </g>
                <g id="Group_12" transform="translate(101.205419, 55.518771)">
                    <g id="Group_9" transform="translate(95.186066, 86.431148)">
                        <polygon id="Path_33" fill="url(#linearGradient-30)" points="9.83313443 152.518985 4.51788934 161.347838 9.96556721 165.486362 10.019368 170.728493 20.877477 172.367349 24.9718574 162.341084 21.3975516 154.803451"></polygon>
                        <polygon id="Path_34" fill="#FFFFFF" points="10.5394426 145.022738 8.33222951 154.146805 22.6142779 156.760973 22.4942607 144.897202"></polygon>
                        <polygon id="Path_35" fill="url(#linearGradient-31)" points="13.9826951 0.266804098 32.0542525 90.4452549 23.5013016 153.9923 7.81767295 148.637049 9.98763934 90.6728738 0.311768852 64.2580508"></polygon>
                    </g>
                    <g id="Group_10" transform="translate(64.359016, 216.582787)">
                        <rect id="Rectangle_5" fill="#2B247A" transform="translate(38.362482, 238.342963) rotate(-175.640848) translate(-38.362482, -238.342963) " x="31.9691486" y="229.549544" width="12.7866662" height="17.5868386"></rect>
                        <polygon id="Path_36" fill="url(#linearGradient-32)" points="45.9174893 10.9077713 51.0878861 151.493452 49.8766779 234.716422 30.7566943 235.320647 0.293014754 18.5116205 30.6187434 0.266245082"></polygon>
                        <polygon id="Path_37" fill="url(#linearGradient-33)" points="45.9119713 239.146023 31.6740672 240.408273 29.5123779 256.756825 69.7471139 254.568925 45.9064533 244.222613"></polygon>
                    </g>
                    <polygon id="Path_38" fill="#FFFFFF" points="79.6100385 197.014463 91.0599566 83.3429877 72.9332189 68.58225 46.5390885 68.58225 27.5777484 102.24225 61.9564721 211.427565"></polygon>
                    <polygon id="Path_39" fill="url(#linearGradient-18)" points="59.7327049 75.4784115 68.321523 83.389891 64.0271139 91.2075639 57.4606549 91.2075639 52.080573 83.3443672"></polygon>
                    <polygon id="Path_40" fill="url(#linearGradient-34)" points="64.032632 91.2075639 72.2489828 127.546569 71.4061033 199.77348 56.9736885 123.603934 57.471691 91.210323"></polygon>
                    <rect id="Rectangle_6" fill="#2B247A" transform="translate(44.087042, 453.579860) rotate(175.987829) translate(-44.087042, -453.579860) " x="37.6894417" y="444.781521" width="12.7952" height="17.5966778"></rect>
                    <polygon id="Path_41" fill="url(#linearGradient-35)" points="78.2705361 239.537803 68.3587697 376.165675 52.7344598 450.922603 36.8038992 450.813622 25.915441 232.161573 67.062032 217.026989"></polygon>
                    <path d="M91.1592811,45.3940967 L85.8054098,36.3086557 C85.751609,33.7717402 85.6812541,31.3520828 85.6812541,29.2193631 C85.6812541,16.9965008 75.7726664,7.08791311 63.5498041,7.08791311 C51.3269418,7.08791311 41.4183541,16.9965008 41.4183541,29.2193631 C41.4183541,33.23925 43.8242164,38.2675574 47.4757746,43.2048172 L46.6384131,69.754832 L63.6394721,72.7193951 L72.6821484,68.3753238 L72.2986451,62.4848238 C73.4417861,62.8014105 74.6206971,62.9706211 75.8067344,62.9883443 C83.0988148,62.9883443 85.2025648,55.3196582 85.7157418,46.537709 L90.5053943,46.537709 C90.7776079,46.5377179 91.0289657,46.3918984 91.1640829,46.1555859 C91.2992001,45.9192733 91.2973677,45.6286865 91.1592811,45.3940967 L91.1592811,45.3940967 Z" id="Path_42" fill="url(#linearGradient-36)"></path>
                    <path d="M47.8151336,37.9088852 C47.4038431,35.5132665 48.0934639,33.0598177 49.6926443,31.2293066 C50.1983022,30.5558688 50.8911435,30.0463138 51.6846541,29.7642689 C53.085112,29.4766311 54.5264057,30.0178537 55.3913926,31.1561926 C56.2218202,32.2835991 56.8274108,33.5603508 57.1750967,34.916732 C58.8870664,28.953118 64.6934164,23.8365221 63.4159918,17.7666861 C67.7793762,19.357259 75.8067344,21.884518 80.4818877,21.1354451 C86.2978943,20.204277 88.9079238,12.9259918 85.9806074,8.18876066 C83.9278992,4.86828443 79.9287049,3.34668689 76.1267803,2.46656066 C67.2248139,0.406954918 49.4346762,-1.70645164 44.9347205,8.22600738 C44.6831242,8.942355 44.279861,9.59595195 43.752482,10.1421443 C43.2956119,10.477829 42.7935561,10.7472021 42.2612336,10.942259 C32.2004803,15.4849795 36.5031664,30.807177 39.6305115,38.7490057 C40.9079361,41.993609 48.212432,50.5382828 47.7365016,53.1152041 C47.9130787,52.1592049 52.7027311,42.7385434 52.501323,42.6833631 C50.1635527,42.1035055 48.3512611,40.2570701 47.8151336,37.9088852 Z" id="Path_43" fill="url(#linearGradient-37)"></path>
                    <polygon id="Path_44" fill="url(#linearGradient-38)" points="27.6784525 195.634955 20.367059 236.88225 69.2457934 247.918316 73.218777 236.632559 77.6194082 247.918316 110.777267 239.398473 102.447797 197.014463"></polygon>
                    <path d="M110.720707,88.5837393 L72.9373574,68.5808705 L71.4447295,196.441967 L70.7715295,196.429552 L46.5390885,68.5808705 L18.1419123,80.5632787 C9.04545515,84.4043972 4.00147096,94.2048515 6.16226311,103.83972 L27.4066893,197.178625 L20.3711975,236.873973 L69.2513115,236.873973 L71.7578779,218.319588 L77.6235467,236.873973 L110.731743,236.873973 L102.60644,197.734566 L110.720707,88.5837393 Z" id="Path_45" fill="url(#linearGradient-39)"></path>
                    <polygon id="Path_46" fill="url(#linearGradient-40)" points="8.6508959 114.775082 13.7150705 137.02517 46.6384131 156.943889"></polygon>
                    <polygon id="Path_47" fill="url(#linearGradient-16)" points="46.5390885 68.5808705 32.7798738 94.7915262 46.5390885 107.2071 39.6594811 123.761198 71.4061033 199.7721"></polygon>
                    <polygon id="Path_48" fill="url(#linearGradient-17)" points="72.9373574 68.5808705 85.0563369 92.0325098 78.9064893 103.527952 87.8153533 121.920934 71.3992057 199.7721"></polygon>
                    <path d="M72.6821484,62.5744918 L56.966791,55.3403508 C56.966791,55.3403508 63.7181041,70.9287934 68.327041,69.754832 L72.9373574,68.5808705 L72.6821484,62.5744918 Z" id="Path_49" fill="#DE9E7A"></path>
                    <polygon id="Path_50" fill="url(#linearGradient-41)" points="175.542418 183.520114 166.748053 179.726466 161.747336 185.543852 155.711988 190.591473 164.678791 199.774859 175.542418 195.764629 179.336066 189.751352"></polygon>
                    <polygon id="Path_51" fill="url(#linearGradient-42)" points="52.5468467 456.31786 38.2523828 456.31786 34.6546254 472.412582 75.0452459 472.412582 52.0902295 461.376516"></polygon>
                    <g id="Group_11" transform="translate(2.759016, 81.390984)">
                        <polygon id="Path_52" fill="url(#linearGradient-43)" points="154.474569 102.94442 163.268934 99.1507721 168.269651 104.966779 174.304999 110.014399 165.338196 119.197785 154.474569 115.187555 150.680921 109.174279"></polygon>
                        <polygon id="Path_53" fill="#FFFFFF" points="151.876955 99.1507721 156.204472 102.527808 151.876955 110.781406 148.088825 108.505217"></polygon>
                        <path d="M4.53444344,4.86690492 C8.81091885,-0.186233607 15.7194959,-1.61678361 21.4913582,4.29992705 C37.2177516,20.4167213 52.7523934,41.3135115 70.7811861,54.5595492 C79.1616984,60.7176738 90.048777,64.9196557 99.1990549,69.838982 L153.532365,99.0486885 L148.784098,110.774508 C148.424046,111.662911 111.013163,101.655959 108.376923,101.020006 C86.5806934,95.7585615 68.6125992,90.9647705 49.3891525,79.014091 C41.1659041,73.9030131 32.9274811,68.6884721 25.8409475,62.0902844 C14.7386656,51.743973 6.44230328,37.2122336 1.86371557,22.8432762 C0.970562616,20.4314416 0.522776279,17.8774703 0.541544137,15.3056434 C0.713598662,11.4868363 2.11386443,7.8255332 4.53444344,4.86690492 Z" id="Path_54" fill="url(#linearGradient-44)"></path>
                    </g>
                </g>
            </g>
        </g>
    </g>
</svg>