<?xml version="1.0" encoding="UTF-8"?>
<svg width="299px" height="182px" viewBox="0 0 299 182" version="1.1" xmlns="http://www.w3.org/2000/svg" xmlns:xlink="http://www.w3.org/1999/xlink">
    <!-- Generator: Sketch 61.2 (89653) - https://sketch.com -->
    <title>img-new-services-hire-dedicated-developer</title>
    <desc>Created with Sketch.</desc>
    <defs>
        <linearGradient x1="82%" y1="20.5%" x2="29.3%" y2="73.6%" id="linearGradient-1">
            <stop stop-color="#F6B3B5" offset="0%"></stop>
            <stop stop-color="#FAD1D3" offset="100%"></stop>
        </linearGradient>
        <linearGradient x1="36.6%" y1="-11.7%" x2="56.7%" y2="83.1%" id="linearGradient-2">
            <stop stop-color="#F6B3B5" offset="0%"></stop>
            <stop stop-color="#FAD1D3" offset="100%"></stop>
        </linearGradient>
        <linearGradient x1="78%" y1="-11.4%" x2="16.7%" y2="133%" id="linearGradient-3">
            <stop stop-color="#F6B3B5" offset="0%"></stop>
            <stop stop-color="#FAD1D3" offset="100%"></stop>
        </linearGradient>
        <linearGradient x1="-37.4%" y1="50%" x2="110.5%" y2="50%" id="linearGradient-4">
            <stop stop-color="#F6B3B5" offset="0%"></stop>
            <stop stop-color="#FAD1D3" offset="100%"></stop>
        </linearGradient>
        <linearGradient x1="49.3%" y1="123.6%" x2="51.4%" y2="-27.8%" id="linearGradient-5">
            <stop stop-color="#001462" offset="0%"></stop>
            <stop stop-color="#071E71" offset="6.9%"></stop>
            <stop stop-color="#183594" offset="25.2%"></stop>
            <stop stop-color="#2647B0" offset="43.7%"></stop>
            <stop stop-color="#3054C4" offset="62.3%"></stop>
            <stop stop-color="#365CD0" offset="81%"></stop>
            <stop stop-color="#385FD4" offset="100%"></stop>
        </linearGradient>
        <linearGradient x1="108.7%" y1="41.7%" x2="-15.3%" y2="76.7%" id="linearGradient-6">
            <stop stop-color="#F6B3B5" offset="0%"></stop>
            <stop stop-color="#FAD1D3" offset="99.1%"></stop>
        </linearGradient>
        <linearGradient x1="56.1%" y1="43.3%" x2="10.5%" y2="79%" id="linearGradient-7">
            <stop stop-color="#F6B3B5" offset="0%"></stop>
            <stop stop-color="#FAD1D3" offset="99.1%"></stop>
        </linearGradient>
        <linearGradient x1="115.4%" y1="34%" x2="-14.1%" y2="68.7%" id="linearGradient-8">
            <stop stop-color="#F6B3B5" offset="0%"></stop>
            <stop stop-color="#FAD1D3" offset="99.1%"></stop>
        </linearGradient>
        <linearGradient x1="56.7%" y1="-10.4%" x2="42%" y2="96.8%" id="linearGradient-9">
            <stop stop-color="#F6B3B5" offset="0%"></stop>
            <stop stop-color="#FAD1D3" offset="99.1%"></stop>
        </linearGradient>
        <linearGradient x1="-355.5%" y1="674.8%" x2="83.5%" y2="-1.6%" id="linearGradient-10">
            <stop stop-color="#8CC6FF" offset="0%"></stop>
            <stop stop-color="#F6B3B5" offset="100%"></stop>
        </linearGradient>
        <linearGradient x1="50%" y1="107.3%" x2="50%" y2="-16.5%" id="linearGradient-11">
            <stop stop-color="#F6B3B5" offset="0%"></stop>
            <stop stop-color="#FAD1D3" offset="99.1%"></stop>
        </linearGradient>
        <linearGradient x1="60%" y1="140%" x2="41.6665%" y2="0.5663%" id="linearGradient-12">
            <stop stop-color="#F6B3B5" offset="0%"></stop>
            <stop stop-color="#FAD1D3" offset="100%"></stop>
        </linearGradient>
        <linearGradient x1="-216%" y1="26.8%" x2="598.2%" y2="95.9%" id="linearGradient-13">
            <stop stop-color="#001462" offset="10.5%"></stop>
            <stop stop-color="#132E89" offset="29.7%"></stop>
            <stop stop-color="#2343AA" offset="49%"></stop>
            <stop stop-color="#2E52C1" offset="67.5%"></stop>
            <stop stop-color="#355BCF" offset="84.9%"></stop>
            <stop stop-color="#385FD4" offset="100%"></stop>
        </linearGradient>
        <linearGradient x1="41.4%" y1="6.4%" x2="57.7%" y2="103.8%" id="linearGradient-14">
            <stop stop-color="#F6B3B5" offset="0%"></stop>
            <stop stop-color="#FAD1D3" offset="100%"></stop>
        </linearGradient>
        <linearGradient x1="100.6%" y1="-15.5%" x2="-1.8%" y2="86.7%" id="linearGradient-15">
            <stop stop-color="#F6B3B5" offset="0%"></stop>
            <stop stop-color="#FAD1D3" offset="100%"></stop>
        </linearGradient>
        <linearGradient x1="-16.3%" y1="119.7%" x2="110.9%" y2="-22.9%" id="linearGradient-16">
            <stop stop-color="#001462" offset="0%"></stop>
            <stop stop-color="#0E277F" offset="11.8%"></stop>
            <stop stop-color="#1D3B9E" offset="26.7%"></stop>
            <stop stop-color="#294BB5" offset="42.4%"></stop>
            <stop stop-color="#3156C6" offset="59.1%"></stop>
            <stop stop-color="#365CD0" offset="77.3%"></stop>
            <stop stop-color="#385FD4" offset="100%"></stop>
        </linearGradient>
        <linearGradient x1="50%" y1="96.3%" x2="50%" y2="5.3%" id="linearGradient-17">
            <stop stop-color="#F6B3B5" offset="0%"></stop>
            <stop stop-color="#FAD1D3" offset="100%"></stop>
        </linearGradient>
    </defs>
    <g id="Page-1" stroke="none" stroke-width="1" fill="none" fill-rule="evenodd">
        <g id="Home-page-5-Copy-2" transform="translate(-2880.000000, -163.000000)">
            <g id="img-new-services-hire-dedicated-developer" transform="translate(2880.000000, 163.000000)">
                <g id="Group_5" transform="translate(0.165544, 11.021762)" fill-rule="nonzero">
                    <path d="M61.0103627,62.7404145 L60.6683938,62.8958549 L60.0466321,63.1981865 C59.6393782,63.3979275 59.2740933,63.5992228 58.892487,63.8020725 C58.1562176,64.2108808 57.4432642,64.6326425 56.7536269,65.0673575 C55.3922463,65.9269037 54.0764803,66.8566563 52.811658,67.8528497 C50.321231,69.8012635 48.0085414,71.9667442 45.9007772,74.3238342 C43.8146737,76.6521285 41.9152722,79.1411787 40.2202073,81.7678756 C38.5552744,84.3759347 37.0749716,87.0973545 35.7901554,89.9121762 C34.5282573,92.6993019 33.4449808,95.5638974 32.5468912,98.488601 C32.1380829,99.9481865 31.6795337,101.400777 31.3585492,102.874352 L30.8401554,105.078497 L30.4150259,107.292746 C29.7479919,110.907003 29.2966757,114.557759 29.0634715,118.225648 L29.0634715,104.365803 C29.706996,100.945571 30.6127791,97.5799344 31.7727979,94.2987047 C33.7484456,88.3919689 36.669171,81.5440415 39.9069948,74.1404145 C42.5634715,68.0860104 44.8321244,62.7606218 46.934456,58.4409326 C49.0367876,54.1212435 51.1150259,50.9393782 52.8202073,49.2373057 C51.1352332,50.923057 47.9642487,53.1085492 44.542228,56.7722798 C40.392378,61.1727753 37.021481,66.2472552 34.5738342,71.7784974 C31.7145203,78.3326435 29.8569671,85.2794731 29.0634715,92.3860104 L29.0634715,62.492487 C29.7205699,60.4036812 30.630144,58.4028793 31.7720207,56.534456 C33.7430052,53.1443005 36.4663212,49.3896373 39.2005181,45.0761658 C41.1406282,41.9444877 42.8470723,38.6739548 44.3059585,35.2911917 C45.1903978,33.0906108 46.2357123,30.9581587 47.4334197,28.9111399 C46.5784974,30.1764249 44.4443005,31.4867876 41.9930052,33.5121762 C38.974667,35.8877873 36.3651056,38.7409778 34.2676166,41.9588083 C31.6771958,46.038719 29.908349,50.5851831 29.0603627,55.3430052 L29.0603627,43.8955959 C29.8647668,38.6183938 31.5621762,30.6629534 31.5621762,21.4608808 C31.5621762,11.6051813 28.6453368,4.2365285 28.6453368,0.755440415 C28.6453368,4.2365285 25.7284974,11.6051813 25.7284974,21.4608808 C25.7284974,30.6660622 27.4259067,38.623057 28.2303109,43.9002591 L28.2303109,56.3696891 C27.3554826,48.5846432 25.3390348,40.9708506 22.2458549,33.7733161 C19.6081542,27.7897509 16.0546951,22.2534659 11.7132124,17.3634715 C8.98438745,14.3721763 6.03406844,11.590729 2.8873057,9.04274611 C4.86839378,10.7727979 7.04222798,14.3036269 9.29222798,18.9909326 C11.5624352,23.6867876 13.9958549,29.5212435 16.9002591,36.1111399 C20.388342,44.1987047 23.4466321,51.6707254 25.5062176,58.119171 C26.7069322,61.7250104 27.6191312,65.4205861 28.2341969,69.1709845 L28.2341969,88.4176166 C27.980829,86.0310881 27.6466321,83.665285 27.2316062,81.3202073 C26.3036448,76.0967146 25.0161271,70.9435275 23.3782383,65.8974093 C21.7632213,60.8741187 19.8499784,55.9516449 17.6487047,51.1562176 C16.5536269,48.7468912 15.3404145,46.3748705 14.0595855,44.0106218 C12.7055445,41.5450485 11.2014202,39.1649243 9.55569948,36.8836788 C11.3480476,39.3718383 12.1098854,42.4562234 11.6821244,45.4927461 C11.5086733,46.8898869 11.2095334,48.2685313 10.788342,49.6119171 C10.365544,50.9393782 9.87435233,52.2015544 9.40181347,53.3735751 C8.75424244,54.6414737 8.74789536,56.1416933 9.38471503,57.4150259 C10.0285014,58.5067089 10.8847779,59.4581273 11.9028497,60.2129534 C13.8551813,61.9041451 15.9240933,63.4981865 14.480829,65.8398964 C13.0818653,68.161399 11.3681347,70.3414508 11.5056995,72.8665803 C11.6200332,74.4235627 12.224283,75.9043963 13.2318653,77.0968912 C14.9224802,79.2291265 16.8434558,81.1680867 18.9598446,82.8784974 C20.595895,84.299726 22.0849824,85.8817675 23.4046632,87.6007772 C24.5401814,89.1016838 25.5693746,90.6801437 26.484715,92.3246114 C27.2712435,93.7826425 27.8059585,95.0681347 28.188342,95.9774611 L28.2341969,96.0893782 L28.2341969,118.095855 C28.1564767,117.603109 25.7300518,103.72772 17.4862694,96.0528497 C9.74067358,88.8419689 2.5119171,86.5484456 0.611658031,85.4930052 C2.52746114,86.5515544 13.4354922,100.019689 16.9950777,104.659585 C22.492228,111.817617 28.2326425,120.777979 28.2326425,130.695855 L28.2326425,130.709067 L28.2326425,160.739378 L29.0673575,160.739378 L29.0673575,122.804145 C29.2106638,121.937694 29.4381664,121.087293 29.7466321,120.265026 C30.3188925,118.828942 31.0847919,117.477831 32.023057,116.249223 C32.9498657,115.073022 33.9784498,113.980721 35.0968912,112.984974 C36.2137306,112.018135 37.3507772,111.160881 38.4124352,110.383679 C39.7042117,109.583678 40.5865272,108.263748 40.8318653,106.764249 C40.9666254,105.408493 40.8781457,104.039814 40.5699482,102.712694 C40.4533679,102.025648 40.3266839,101.340155 40.2419689,100.676425 C40.1708215,100.054359 40.1708215,99.4262106 40.2419689,98.8041451 C40.3218095,97.5970395 41.1280815,96.5599644 42.2782383,96.1849741 C44.926943,95.192487 47.6658031,94.6367876 49.3639896,92.6603627 C49.8382073,92.1329648 50.2188145,91.5284092 50.4893782,90.8727979 C50.8486221,90.0597343 51.1130576,89.2080119 51.2774611,88.334456 C51.6870466,86.3137306 51.8992228,83.6712435 52.2256477,79.880829 C52.6954482,75.4576567 54.2605124,71.2213786 56.7792746,67.5551813 C58.9103627,64.4129534 61.1106218,62.6735751 61.4805699,62.5391192 L61.0103627,62.7404145 Z" id="Path_6" fill="#FFCA00"></path>
                    <path d="M251.121762,83.7163212 L251.391451,83.8398964 L251.880311,84.073057 C252.200518,84.2284974 252.487306,84.388601 252.787306,84.5479275 C253.366062,84.8686528 253.926425,85.2 254.468394,85.5419689 C255.538179,86.2181071 256.572449,86.9488668 257.567098,87.7313472 C259.524222,89.2631192 261.341699,90.965378 262.998187,92.8181347 C264.637747,94.6479344 266.130702,96.603978 267.463212,98.6681347 C268.770858,100.71836 269.933538,102.857515 270.942746,105.069948 C271.934651,107.260117 272.78586,109.511319 273.491192,111.809845 C273.812953,112.956995 274.172798,114.099482 274.423834,115.256736 L274.831865,116.989896 L275.165285,118.730052 C275.689679,121.570672 276.044452,124.439999 276.22772,127.322798 L276.22772,116.431865 C275.721919,113.743829 275.009972,111.098711 274.098187,108.519948 C272.543782,103.874611 270.251813,98.4940415 267.704922,92.6766839 C265.617358,87.9178756 263.834456,83.7326425 262.182124,80.3362694 C261.016994,77.7036679 259.457082,75.2642093 257.556218,73.1020725 C258.877461,74.4233161 261.373057,76.1448187 264.062176,79.0243523 C267.323596,82.4830741 269.973028,86.4712836 271.89715,90.8183938 C274.143958,95.9699147 275.603785,101.429856 276.22772,107.015285 L276.22772,83.5212435 C275.711386,81.8795309 274.99651,80.3070121 274.098964,78.838601 C272.55,76.1743523 270.409585,73.2233161 268.259845,69.8331606 C266.735714,67.3716945 265.395037,64.8012631 264.248705,62.1427461 C263.554061,60.4129057 262.732388,58.7368285 261.790415,57.1282383 C262.460363,58.1222798 264.139896,59.1489637 266.065026,60.7445596 C268.437771,62.6113959 270.488977,64.8539916 272.137306,67.3834197 C274.172571,70.5899814 275.562291,74.1630204 276.228497,77.9020725 L276.228497,68.9051813 C275.595855,64.7572539 274.262176,58.5046632 274.262176,51.2727979 C274.262176,43.5264249 276.554922,37.734715 276.554922,34.9989637 C276.554922,37.734715 278.847668,43.5264249 278.847668,51.2727979 C278.847668,58.5069948 277.513212,64.7611399 276.88057,68.9090674 L276.88057,78.7095855 C277.568184,72.5907615 279.153331,66.606589 281.584974,60.9497409 C283.65764,56.2454736 286.450446,51.8927765 289.862953,48.0481865 C292.00768,45.6970702 294.326694,43.5110765 296.800259,41.5088083 C295.245855,42.8681347 293.53601,45.6435233 291.765544,49.3274611 C289.981865,53.0176166 288.069171,57.603886 285.785751,62.7831606 C283.045337,69.1398964 280.641451,75.0124352 279.024093,80.0805699 C278.081418,82.9141461 277.365178,85.8180868 276.882124,88.7650259 L276.882124,103.896373 C277.081606,102.020207 277.344301,100.160881 277.670207,98.3183938 C278.40019,94.2119705 279.412963,90.1608773 280.701295,86.1940415 C281.969913,82.2472098 283.472576,78.3794752 285.201295,74.611399 C286.062435,72.7196891 287.015285,70.8544041 288.022539,68.996114 C289.086554,67.0580711 290.268571,65.187193 291.561917,63.3940415 C290.153188,65.3498947 289.554519,67.7743624 289.890933,70.1611399 C290.026064,71.2595395 290.260177,72.343481 290.590415,73.3997409 C290.92228,74.4427461 291.308549,75.434456 291.678497,76.3531088 C292.186779,77.3492644 292.191683,78.5276278 291.69171,79.5279793 C291.185975,80.3866403 290.512797,81.1348805 289.712176,81.7282383 C288.178756,83.0572539 286.552073,84.3101036 287.686788,86.1512953 C288.787306,87.9753886 290.132642,89.688342 290.025389,91.6740933 C289.935119,92.8975487 289.460127,94.0610893 288.668394,94.9981865 C287.339528,96.6741197 285.829594,98.198129 284.166062,99.542487 C282.88018,100.659386 281.709793,101.902679 280.672539,103.253627 C279.78039,104.433365 278.971689,105.673945 278.252332,106.966321 C277.63057,108.112694 277.214767,109.123057 276.912435,109.835751 C276.9,109.866839 276.889119,109.894041 276.876684,109.923575 L276.876684,127.221762 C276.93886,126.833161 278.845337,115.929016 285.324093,109.89715 C291.411917,104.229793 297.094041,102.426684 298.587047,101.597409 C297.081606,102.429793 288.509845,113.014508 285.710363,116.66114 C281.389896,122.287306 276.878238,129.329534 276.878238,137.124093 L276.878238,137.134197 L276.878238,160.736269 L276.226166,160.736269 L276.226166,130.922798 C276.113551,130.241725 275.934724,129.57327 275.692228,128.926943 C275.243092,127.798276 274.641661,126.736358 273.904663,125.770725 C273.1766,124.846321 272.368275,123.988061 271.489119,123.205959 C270.610881,122.445855 269.720207,121.772021 268.882383,121.16114 C267.867514,120.53212 267.17432,119.494879 266.981347,118.31658 C266.875448,117.250323 266.944758,116.173922 267.186528,115.130052 C267.278238,114.590674 267.378497,114.052073 267.44456,113.53057 C267.50051,113.041491 267.50051,112.547628 267.44456,112.058549 C267.381752,111.109584 266.747783,110.294349 265.843523,109.999741 C263.762176,109.222539 261.609326,108.78342 260.27487,107.229793 C259.902598,106.815451 259.603514,106.340806 259.390415,105.826166 C259.107181,105.187243 258.89855,104.517798 258.768653,103.831088 C258.446891,102.244041 258.282902,100.164249 258.023316,97.1867876 C257.655279,93.7105721 256.426527,90.3809236 254.448187,87.4989637 C253.483991,85.9574584 252.22875,84.6185345 250.752591,83.5569948 L251.121762,83.7163212 Z" id="Path_7" fill="#FFC900"></path>
                </g>
                <g id="Group_15" transform="translate(39.025648, 49.104663)" fill-rule="nonzero">
                    <g id="Group_7" transform="translate(57.512953, 11.658031)">
                        <path d="M7.70051813,101.036269 C8.97512953,106.421503 10.8497409,112.467358 12.7950777,118.170466 L45.061399,118.170466 C45.7880829,115.825648 46.511658,113.306736 47.1979275,110.631606 C51.161658,95.192487 46.9896373,81.8393782 43.2341969,75.7888601 C39.4787565,69.738342 36.2448187,62.5398964 41.9727979,53.7163212 C47.7007772,44.8927461 48.2417098,38.0253886 48.2417098,38.0253886 C47.4069948,34.6834197 44.7987047,33.5393782 38.0253886,30.3069948 C38.0253886,30.3069948 37.6212435,30.1725389 36.9932642,29.9595855 C35.5585492,35.788601 32.5313472,40.419171 27.1686528,41.3634715 C20.180829,42.5945596 13.8738342,38.3323834 10.6834197,30.8494819 C7.60725389,31.7580311 4.18134715,32.7256477 2.5492228,33.6474093 C2.5492228,33.6474093 11.1031088,52.2163212 12.734456,62.7147668 C14.3658031,73.2132124 3.80051813,84.5502591 7.70051813,101.036269 Z" id="Path_8" fill="#0099FF"></path>
                        <g id="Group_6" transform="translate(10.103627, 17.875648)">
                            <path d="M17.0650259,23.4854922 C22.4277202,22.5411917 25.4588083,17.9082902 26.8896373,12.0816062 C24.6450777,11.3222798 19.3670984,9.50984456 17.8997409,8.7761658 C16.0220207,7.8373057 16.5435233,0.222279793 16.5435233,0.222279793 L6.62797927,3.05129534 L6.62797927,10.4455959 C6.62797927,11.1388601 3.79507772,12.0225389 0.579792746,12.9715026 C3.77020725,20.4544041 10.0772021,24.7150259 17.0650259,23.4854922 Z" id="Path_9" fill="url(#linearGradient-1)"></path>
                            <path d="M16.5435233,0.34507772 L6.62875648,3.17487047 L6.62875648,9.45854922 C12.101054,12.3218034 15.9640672,17.529743 17.1163212,23.5974093 C22.4455959,22.6321244 25.4595855,18.011658 26.8896373,12.2044041 C24.6450777,11.4450777 19.3670984,9.63264249 17.8997409,8.89896373 C16.0220207,7.96010363 16.5435233,0.34507772 16.5435233,0.34507772 Z" id="Path_10" fill="#CB9EAE"></path>
                        </g>
                        <path d="M32.7629534,64.2878238 C28.338342,65.6409326 24.1624352,67.1284974 21.9528497,67.1284974 C17.5709845,67.1284974 11.1031088,60.9738342 8.04093264,64.7370466 C4.97875648,68.5002591 4.52797927,70.9888601 6.92253886,72.657513 C9.31709845,74.3261658 16.942228,72.0357513 20.5935233,72.761658 C22.2256477,73.0880829 27.7810881,73.3709845 33.6854922,73.2800518 C34.1914508,70.9329016 34.119171,66.6427461 32.7629534,64.2878238 Z" id="Path_11" fill="url(#linearGradient-2)"></path>
                        <path d="M48.4126943,38.023057 C47.384456,33.9093264 38.919171,41.4660622 41.0059585,48.3505181 C42.7935233,54.2572539 42.1445596,62.184715 42.1445596,62.184715 L50.4318653,70.5699482 C53.2484456,67.1284974 49.2474093,41.3611399 48.4126943,38.023057 Z" id="Path_12" fill="#008BE7"></path>
                        <path d="M44.9028497,62.2259067 C41.6984456,61.7595855 37.1098446,62.9580311 32.7629534,64.2878238 C34.1183938,66.6427461 34.1914508,70.9329016 33.688601,73.2800518 C41.0137306,73.1673575 48.8727979,72.4772021 50.4318653,70.5715026 C50.4318653,70.5699482 54.1873057,63.5813472 44.9028497,62.2259067 Z" id="Path_13" fill="#008BE7"></path>
                        <path d="M14.4435233,6.7111399 C12.7033679,10.0958549 12.8968912,21.6023316 17.7310881,22.6663212 C21.9544041,23.5989637 24.3069948,19.4751295 24.3069948,19.4751295 L24.3069948,11.8430052 C22.8022033,10.9550566 21.8000924,9.41363525 21.5992228,7.67797927 C21.3388601,5.33937824 19.9554404,5.09145078 19.9554404,5.09145078 C19.9554404,5.09145078 17.0541451,6.80829016 14.4435233,6.7111399 Z" id="Path_14" fill="url(#linearGradient-3)"></path>
                        <path d="M6.92564767,62.7108808 C4.74326425,58.3158031 3.29300518,52.7751295 2.01450777,49.6476684 C-0.394818653,43.7471503 -0.789637306,35.5196891 2.5492228,33.6419689 C8.70388601,30.4896373 11.3121762,41.3284974 11.7287565,44.4746114 C12.1453368,47.6207254 12.980829,54.973057 15.2759067,57.6093264 L6.92564767,62.7108808 Z" id="Path_15" fill="#008BE7"></path>
                        <path d="M34.2015544,24.6559585 C30.0295337,22.0484456 34.6795337,7.66554404 27.6831606,2.13186528 C24.8858632,-0.135009236 21.0214079,-0.556719814 17.8010237,1.05347227 C14.5806395,2.66366435 12.5993348,6.008255 12.734456,9.60621762 L12.734456,30.2284974 C15.0124352,29.5165803 16.7323834,28.861399 16.7323834,28.3212435 L16.7323834,22.2637306 C12.892228,19.8194301 12.8129534,9.88212435 14.4435233,6.7111399 C17.0541451,6.80829016 19.9554404,5.09145078 19.9554404,5.09145078 C19.9554404,5.09145078 21.3388601,5.33937824 21.5992228,7.67797927 C21.8000924,9.41363525 22.8022033,10.9550566 24.3069948,11.8430052 L24.3069948,19.4751295 C24.3069948,26.6409326 26.0316062,34.4751295 30.1165803,34.9111399 C34.2015544,35.3471503 34.8963731,29.9572539 38.0253886,30.3046632 C38.0253886,30.3046632 38.3727979,27.2626943 34.2015544,24.6559585 Z" id="Path_16" fill="#0033AC"></path>
                        <path d="M12.892228,52.3119171 C10.6134715,55.426943 7.04455959,58.1487047 6.92564767,62.7132124 C8.86398964,66.611658 11.3774611,69.6069948 14.8585492,69.215285 C19.9880829,68.6370466 21.7663212,62.5981865 22.3733161,57.0707254 C18.9458549,57.3341969 14.5787565,54.6209845 12.892228,52.3119171 Z" id="Path_17" fill="#008BE7"></path>
                        <path d="M20.6409326,24.1997409 C19.6624352,24.6450777 16.1930052,27.669171 16.1930052,28.4253886 C16.1930052,29.1816062 17.7474093,34.8761658 17.7474093,36.6101036 C17.7474093,38.3440415 16.1572539,45.903886 14.0696891,50.3766839 C13.7402615,51.0585756 13.3451276,51.7067201 12.8898964,52.3119171 C14.5764249,54.6209845 18.9435233,57.3341969 22.3717617,57.0707254 C22.5932646,54.9017747 22.6970437,52.7224122 22.6826425,50.542228 C22.6826425,50.542228 23.0331606,37.8979275 23.6067358,36.9994819 C24.1297927,36.1787565 24.1259067,34.8233161 24.1259067,33.6738342 L24.1259067,31.3305699 C24.1259067,31.3305699 24.9225389,31.2800518 24.9683943,29.9106218 C24.9683943,29.8702073 24.9683943,29.8282383 24.9683943,29.784715 C24.9699482,28.2901554 21.6194301,23.7551813 20.6409326,24.1997409 Z" id="Path_18" fill="url(#linearGradient-4)"></path>
                    </g>
                    <g id="Group_12" transform="translate(82.383420, 6.217617)">
                        <g id="Group_8" transform="translate(79.274611, 0.000000)">
                            <path d="M0.466321244,35.234456 L0.466321244,72.142228 C0.466321244,72.142228 12.7841969,72.5176166 12.4080311,72.142228 C12.0318653,71.7668394 12.4080311,54.9948187 12.4080311,54.9948187 L0.466321244,35.234456 Z" id="Path_19" fill="#008BE7"></path>
                            <path d="M24.8067358,76.0787565 C25.5260097,81.9745165 25.5260097,87.9358462 24.8067358,93.8316062 C24.4259067,96.8051813 15.6668394,123.383938 15.6668394,123.383938 L37.0196891,123.383938 L42.8992228,95.2266839 L35.096114,73.7160622 L24.8067358,76.0787565 Z" id="Path_20" fill="url(#linearGradient-5)"></path>
                            <path d="M24.8067358,76.0787565 C25.5260097,81.9745165 25.5260097,87.9358462 24.8067358,93.8316062 C24.4259067,96.8051813 13.9204663,123.607772 13.9204663,123.607772 L37.0196891,123.607772 L42.8992228,95.2266839 L35.096114,73.7160622 L24.8067358,76.0787565 Z" id="Path_21" fill="#0033AE"></path>
                            <path d="M49.9670984,68.7544041 C53.1124352,78.6139896 67.2085492,81.8020725 63.3194301,97.726943 C60.5129534,109.222539 54.7865285,123.607772 54.7865285,123.607772 L28.134715,123.607772 C28.134715,123.607772 36.4927461,98.546114 36.4927461,95.2266839 C36.4927461,91.9072539 31.2450777,74.85 31.2450777,74.85 L49.9670984,68.7544041 Z" id="Path_22" fill="#002D99"></path>
                            <path d="M4.77512953,26.8857513 C1.62979275,28.3849741 -1.24352332,35.0619171 1.62979275,41.3300518 C4.50310881,47.5981865 4.9119171,46.4782383 6.0015544,51.3987047 C7.09119171,56.319171 6.66373057,59.0448187 15.6668394,65.176943 C24.6699482,71.3090674 24.3979275,72.9443005 24.8067358,76.0787565 C25.215544,79.2132124 50.561658,78.5316062 50.1528497,66.8121762 C49.7440415,55.0927461 50.3906736,41.5601036 42.8471503,35.1800518 C35.3036269,28.8 4.77512953,26.8857513 4.77512953,26.8857513 Z" id="Path_23" fill="#0099FF"></path>
                            <path d="M1.63212435,12.3746114 L1.63212435,47.5515544 C1.63212435,47.5515544 14.4031088,40.6989637 14.2896373,33.9940415 C14.1761658,27.2891192 8.51502591,12.3746114 8.51502591,12.3746114 L1.63212435,12.3746114 Z" id="Path_24" fill="#0033AC"></path>
                            <path d="M10.5994819,33.4826425 C10.5994819,33.4826425 12.3,36.2354922 12.8766839,37.4183938 C13.4533679,38.6012953 10.8940415,43.8326425 11.7380829,48.3163212 C12.5821244,52.8 18.1290155,52.0360104 19.3686528,48.3163212 C19.742487,47.1955959 20.7349741,39.2409326 20.7349741,39.2409326 L20.7349741,26.0860104 L10.5994819,33.4826425 Z" id="Path_25" fill="url(#linearGradient-6)"></path>
                            <path d="M12.8766839,37.4183938 C16.4650259,33.3979275 20.1823834,50.4225389 14.2974093,51.2860104 C14.311399,51.2898964 14.3261658,51.2906736 14.3401554,51.2945596 L15.1826425,51.3878238 C17.0877975,51.3542514 18.7649741,50.1236161 19.3686528,48.3163212 C19.742487,47.1955959 20.7349741,39.2409326 20.7349741,39.2409326 L20.7349741,26.0860104 L10.5994819,33.4826425 C10.5994819,33.4826425 12.3,36.2354922 12.8766839,37.4183938 Z" id="Path_26" fill="#CB9EAE"></path>
                            <path d="M3.12046632,11.3712435 C1.37487047,22.1937824 3.29455959,32.1699482 8.5126943,33.3520725 C13.730829,34.5341969 21.211399,28.8264249 21.211399,23.792487 C21.211399,18.7585492 26.2562176,5.63937824 20.5158031,2.64481865 C14.7753886,-0.349740933 4.23264249,4.47512953 3.12046632,11.3712435 Z" id="Path_27" fill="url(#linearGradient-7)"></path>
                            <path d="M7.50699482,10.3849741 C6.00763748,11.6438738 4.42928522,12.8055722 2.78160622,13.8629534 C0.782642487,15.0512953 1.27227979,8.18937824 5.14430052,4.96476684 C9.01632124,1.74015544 14.0937824,-1.00492228 16.1525907,0.845595855 C16.1525907,0.845595855 22.6033679,-0.938082902 26.5134715,5.64870466 C30.4235751,12.2354922 30.6994819,18.1367876 31.934456,19.7836788 C33.1694301,21.4305699 35.2282383,22.4603627 34.2660622,25.5474093 C34.2660622,25.5474093 41.1272021,24.1756477 42.1569948,28.9103627 C43.1867876,33.6450777 42.8432642,35.1753886 42.8432642,35.1753886 C40.8448588,33.7929985 38.6523091,32.7149272 36.3373057,31.9764249 C36.3373057,31.9764249 33.3917098,34.2963731 30.5782383,34.2963731 C27.7647668,34.2963731 24.2207254,45.6435233 19.2800518,45.6435233 L19.2388601,18.6139896 C19.2388601,18.6139896 8.08290155,17.1955959 7.50699482,10.3849741 Z" id="Path_28" fill="#0033AC"></path>
                        </g>
                        <g id="Group_10" transform="translate(0.000000, 21.761658)">
                            <path d="M24.1632124,46.1261658 C11.1987047,59.6253886 0.031865285,100.803886 0.031865285,100.803886 L18.6435233,100.803886 L30.2759067,73.4650259 L24.1632124,46.1261658 Z" id="Path_29" fill="#007CCF"></path>
                            <path d="M91.6826425,48.3559585 C88.9702073,45.2735751 74.5235751,35.1326425 56.1031088,36.2316062 C39.8595855,37.203886 26.7248705,42.2207254 24.1601036,46.123057 C22.2870466,48.976943 26.3898964,68.2430052 29.2445596,75.9139896 C31.92414,83.2301035 33.3123953,90.9561035 33.3474093,98.7474093 C33.3474093,98.7474093 79.2800518,98.4792746 79.5489637,98.7474093 C79.8178756,99.015544 85.257513,81.8044041 85.9709845,73.2380829 C86.684456,64.6717617 85.0826425,55.2240933 91.6826425,48.3559585 Z" id="Path_30" fill="#0099FF"></path>
                            <path d="M66.8261658,20.25 C66.8261658,20.25 67.0593264,34.5256477 66.8261658,38.7870466 C66.5930052,43.0484456 59.9914508,46.8839378 57.5417098,46.9904145 C55.0919689,47.0968912 49.657772,43.4751295 48.8051813,37.4020725 L48.8051813,24.511399 L66.8261658,20.25 Z" id="Path_31" fill="url(#linearGradient-8)"></path>
                            <path d="M66.9124352,28.0056995 C66.884456,23.8686528 66.8261658,20.25 66.8261658,20.25 L48.8082902,24.511399 L48.8082902,35.0813472 C50.3098446,41.6875648 60.2759067,39.8821244 62.6487047,33.6209845 C64.0049223,30.0326425 65.1676166,28.9670984 66.9124352,28.0056995 Z" id="Path_32" fill="#CB9EAE"></path>
                            <path d="M44.0277202,14.703886 C44.7046632,25.1634715 48.9676166,35.2888601 55.7222798,34.2209845 C64.1005181,32.8997409 66.6443005,20.1909326 66.3132124,13.265285 C65.9821244,6.33963731 62.038601,2.01139896 56.0292746,2.00595279 C50.315285,2.00051813 43.4549223,5.8484456 44.0277202,14.703886 Z" id="Path_33" fill="url(#linearGradient-9)"></path>
                            <path d="M68.2810881,18.1865285 C67.8334197,20.2725389 66.8183938,21.8541451 66.0147668,21.7204663 C65.2111399,21.5867876 64.9266839,19.7867876 65.3712435,17.7015544 C65.8158031,15.6163212 66.8339378,14.0339378 67.6375648,14.1676166 C68.4411917,14.3012953 68.7295337,16.1020725 68.2810881,18.1865285 Z" id="Path_34" fill="url(#linearGradient-10)"></path>
                            <path d="M44.1637306,16.3398964 C42.8875648,14.3875648 42.7989637,13.6196891 42.8930052,10.3756477 C42.9870466,7.13160622 45.7235751,7.01813472 45.6660622,5.63471503 C45.6085492,4.25129534 47.3759067,0.523834197 54.5984456,0.223834197 C61.8209845,-0.0761658031 61.3857513,3.23471503 63.6225389,3.45 C65.8593264,3.66528497 69.3264249,5.95958549 67.6375648,14.1707254 C67.6375648,14.1707254 65.6743523,14.3588083 64.9010363,18.3264249 C64.8655708,18.4582186 64.7578712,18.5581302 64.6237908,18.583622 C64.4897104,18.6091138 64.3528595,18.5556971 64.2715026,18.446114 C63.9710854,17.9776721 63.7475358,17.4641902 63.6093264,16.9251295 C63.0707254,14.9417098 60.9093264,17.9222798 60.5176166,13.9717617 C60.2378238,11.1536269 53.3619171,16.3251295 48.2611399,11.7536269 C48.2611399,11.7536269 47.5033679,12.7639896 45.3303109,12.6979275 C44.0673575,12.6544041 44.1637306,16.3398964 44.1637306,16.3398964 Z" id="Path_35" fill="#0033AC"></path>
                            <path d="M48.8082902,37.4020725 L48.8082902,34.2987047 C46.115285,35.4816062 43.6204663,36.4810881 43.346114,38.0222798 C42.807513,41.042487 45.2316062,49.8194301 48.8082902,52.9189119 C48.8082902,52.9189119 49.4028497,53.6790155 50.5181347,51.9862694 C51.6334197,50.2935233 55.426943,46.4082902 56.7443005,46.9165803 L56.7380829,46.9080311 C54.0582902,46.35 49.5738342,42.8766839 48.8082902,37.4020725 Z" id="Path_38" fill="#007CCF"></path>
                            <path d="M71.326943,36.8751295 C70.5816062,35.188601 68.1637306,33.819171 66.9264249,33.2331606 C66.9202073,35.5251295 66.892228,37.5676166 66.8261658,38.7870466 C66.6272021,42.4935233 61.6064767,45.8759067 58.6896373,46.7650259 L58.6896373,46.7650259 C60.0676166,46.2295337 65.1295337,51.6209845 66.0069948,53.088342 C66.884456,54.5556995 67.9686528,52.8458549 69.7492228,48.8253886 C71.5608808,44.7326425 72.5432642,39.6256477 71.326943,36.8751295 Z" id="Path_39" fill="#007CCF"></path>
                            <path d="M100.601813,90.1919689 C100.601813,78.3544041 97.1533679,54.6295337 91.6826425,48.3559585 C91.6826425,48.3559585 83.1194301,52.9360104 80.4132124,67.4525907 C79.6041451,71.7893782 80.9821244,84.1818653 81.3388601,89.4147668 L100.601813,90.1919689 Z" id="Path_40" fill="#007CCF"></path>
                            <path d="M67.211658,101.846114 L93.1950777,101.846114 C97.0437824,101.846114 101.183161,98.703886 100.601813,90.1919689 C100.020466,81.6800518 86.0930052,82.8738342 81.3365285,89.4147668 L67.0204663,91.6010363 L67.211658,101.846114 Z" id="Path_41" fill="#007CCF"></path>
                            <path d="M54.1204663,101.326166 L55.3492228,100.173575 L59.0867876,101.494819 C59.735674,101.724812 60.4190721,101.842228 61.107513,101.842228 L68.5243523,101.842228 C70.7212677,101.247258 72.2215187,99.2207614 72.1492228,96.9458549 C72.2274484,95.564031 71.7368044,94.210384 70.7913532,93.1996027 C69.8459021,92.1888215 68.5280056,91.608959 67.1440415,91.5948187 L59.011399,91.5948187 C58.6040322,91.5947981 58.1977482,91.5528675 57.7989637,91.4696891 L52.0158031,90.2611399 C51.1612699,90.0830982 50.271113,90.2246827 49.5139896,90.6590674 L46.2365285,92.542228 C45.6023983,92.9067223 45.0193475,93.3536147 44.5025907,93.8712435 L38.5554404,99.8316062 C38.219078,100.16832 38.1186748,100.674503 38.3010508,101.11411 C38.4834268,101.553718 38.9126641,101.840173 39.388601,101.839896 L52.8054404,101.839896 C53.2931101,101.84183 53.7632508,101.658164 54.1204663,101.326166 Z" id="Path_42" fill="url(#linearGradient-11)"></path>
                        </g>
                        <g id="Group_11" transform="translate(48.963731, 35.751295)">
                            <path d="M74.0673575,0.914766839 C68.4971503,-2.30440415 58.7354922,6.85181347 60.8354922,17.6751295 C62.9354922,28.4984456 51.0489637,41.9238342 51.0489637,41.9238342 C51.0489637,41.9238342 37.576943,47.3331606 32.169171,48.3582902 C33.8797939,50.7835391 35.0550179,53.5448916 35.6168394,56.4590674 C44.4637306,55.730829 57.1585492,53.9316062 62.2888601,49.6562176 C70.0430052,43.1945596 78.2797927,19.3670984 78.2813472,11.7963731 C78.2805699,2.99145078 74.0673575,0.914766839 74.0673575,0.914766839 Z" id="Path_43" fill="#008BE7"></path>
                            <path d="M30.7569948,48.5292746 L13.3391192,48.5292746 C13.3391192,48.5292746 0.90388601,52.742487 0.578238342,53.4629534 C0.252590674,54.1834197 -0.391709845,58.4673575 0.578238342,59.4753886 C1.54818653,60.4834197 7.84740933,62.2601036 9.46243523,61.9367876 C11.0774611,61.6134715 23.6782383,56.9292746 26.5857513,56.9292746 C27.5696891,56.9292746 31.0935233,56.8360104 35.6137306,56.4629534 C35.0519091,53.5487777 33.8766851,50.7874251 32.1660622,48.3621762 C31.7022339,48.4594061 31.230699,48.5153245 30.7569948,48.5292746 L30.7569948,48.5292746 Z" id="Path_44" fill="url(#linearGradient-12)"></path>
                        </g>
                    </g>
                    <g id="Group_14">
                        <path d="M50.480829,78.9248705 C50.480829,78.9248705 54.8455959,82.3787565 59.3090674,78.9248705 C63.7725389,75.4709845 60.6979275,69.5743523 60.6979275,69.5743523 L50.480829,75.0147668 L50.480829,78.9248705 Z" id="Path_45" fill="#008BE7"></path>
                        <polygon id="Path_46" fill="#008BE7" points="56.7777202 46.5660622 56.7777202 72.388601 48.3839378 72.388601 48.3839378 47.9797927"></polygon>
                        <g id="Group_13" transform="translate(13.212435, 90.932642)">
                            <path d="M29.8764249,19.7937824 C29.0681347,24.1025907 24.4764249,30.1546632 21.5556995,38.8927461 L38.2430052,38.8927461 C39.8432642,28.3950777 41.2888601,14.3051813 39.0069948,1.78134715 L29.3852332,1.78134715 C30.2735751,6.00233161 30.6365285,15.7398964 29.8764249,19.7937824 Z" id="Path_47" fill="#002D99"></path>
                            <path d="M13.873057,18.8595855 C13.873057,18.8595855 15.8044041,28.2357513 17.1240933,38.8927461 L21.5541451,38.8927461 C24.4748705,30.1546632 29.0665803,24.1025907 29.8748705,19.7937824 C30.6349741,15.7398964 30.2720207,6.00233161 29.3836788,1.78134715 L14.2709845,1.78134715 L13.873057,18.8595855 Z" id="Path_48" fill="url(#linearGradient-13)"></path>
                            <path d="M29.3852332,1.78134715 C29.2970505,1.32785076 29.1744152,0.881738861 29.0183938,0.446891192 L0.0116580311,0.446891192 C0.411139896,14.4085492 1.51165803,28.3025907 2.17227979,38.8927461 L21.5556995,38.8927461 C24.4764249,30.1546632 29.0681347,24.1025907 29.8764249,19.7937824 C30.6365285,15.7398964 30.2735751,6.00233161 29.3852332,1.78134715 Z" id="Path_49" fill="#0033AE"></path>
                        </g>
                        <path d="M32.9953368,23.5865285 C15.8378238,18.9823834 4.24896373,26.642487 2.34637306,37.6430052 C0.608549223,47.6898964 13.2272021,78.7997409 13.2272021,91.3795337 C13.2272021,91.3795337 33.5642487,101.863212 52.2225389,92.7139896 C52.2225389,92.7139896 49.4246114,79.3709845 52.2225389,67.5536269 C55.0204663,55.7362694 58.742487,48.965285 55.5816062,40.4875648 C52.8170984,33.080829 41.0199482,25.7393782 32.9953368,23.5865285 Z" id="Path_50" fill="#0099FF"></path>
                        <path d="M39.4041451,12.223057 C39.4041451,12.223057 32.9284974,20.3673575 30.1958549,22.9632124 C27.4632124,25.5590674 32.5056995,30.8696891 36.3310881,33.1235751 C38.857772,34.6126943 44.1854922,36.2650259 42.6147668,31.6204663 C42.6147668,31.6204663 41.7264249,29.0253886 46.0297951,25.3367876 C46.0336788,25.3367876 41.2523316,11.0619171 39.4041451,12.223057 Z" id="Path_51" fill="url(#linearGradient-14)"></path>
                        <path d="M46.0336788,25.3367876 C44.8388259,21.7647986 43.4316563,18.2673775 41.8196891,14.8632124 L39.7103627,15.8588083 C37.2520725,20.9005181 36.811399,30.4002591 42.6186528,31.6204663 C42.6186528,31.6204663 41.7303109,29.0253886 46.0336788,25.3367876 Z" id="Path_52" fill="#CB9EAE"></path>
                        <path d="M41.9611399,10.7572539 C42.5090674,7.6484456 39.734456,7.41917098 38.8639896,10.0103627 C37.869171,12.9722798 38.9650259,15.0240933 40.107513,14.3409326 C40.107513,14.3409326 37.8963731,21.0287565 40.6803109,25.0562176 C43.4642487,29.0836788 47.0183938,27.5362694 51.4608808,23.1606218 C55.280829,19.3989637 57.7678756,14.8025907 58.1541451,13.0321244 C59.1645078,8.41165803 54.3637306,4.67487047 49.861399,4.91735751 C44.3494819,5.2134715 41.9611399,10.7572539 41.9611399,10.7572539 Z" id="Path_53" fill="url(#linearGradient-15)"></path>
                        <path d="M41.9611399,10.7572539 C41.7878238,12.5860104 42.0870466,14.0020725 43.1626943,13.3795337 C44.238342,12.7569948 46.784456,9.07772021 49.1051813,11.7380829 C51.4259067,14.3984456 53.307513,16.8738342 57.4259067,16.4362694 C62.7458549,15.8696891 63.9800518,8.66891192 59.2911917,7.38031088 C59.2911917,7.38031088 61.3290155,4.90569948 57.7064767,3.75777202 C54.3901554,2.70621762 54.2572539,3.35751295 51.9365285,0.754663212 C50.6005181,-0.744559585 42.5937824,0.0551813472 40.4106218,8.28108808 C40.4145078,8.28108808 42.2316062,7.90803109 41.9611399,10.7572539 Z" id="Path_54" fill="#0033AC"></path>
                        <path d="M15.6520725,63.8556995 C15.8222798,60.2805699 18.0357513,50.9953368 21.1569948,45.065285 C24.2782383,39.1352332 22.7463731,31.5085492 18.5036269,28.5233161 C14.2896373,25.557513 8.38212435,26.0836788 5.58419689,30.2137306 C-1.94067358,41.3199482 0.244818653,66.2898964 4.30181347,74.7170984 C5.10777202,76.3904145 7.05,77.4777202 9.68549223,78.1305699 C3.97305699,75.5215026 9.70103627,62.4955959 15.6520725,63.8556995 Z" id="Path_55" fill="#008BE7"></path>
                        <path d="M37.7797927,74.0284974 L49.0492228,60.3893782 C49.5354087,59.8010242 50.3216058,59.5527514 51.057513,59.7551813 L70.1805699,65.0253886 C70.3976641,65.0866355 70.5645595,65.2606563 70.6166821,65.4801199 C70.6688047,65.6995835 70.5979781,65.9300633 70.4316062,66.0823834 L55.9670984,79.1393782 C55.6609357,79.4158317 55.2384819,79.5242053 54.8370466,79.4292746 L38.2756477,75.5129534 C37.9659434,75.4389996 37.7163382,75.2104423 37.6154579,74.9084339 C37.5145776,74.6064256 37.5767095,74.2737382 37.7797927,74.0284974 L37.7797927,74.0284974 Z" id="Path_56" fill="url(#linearGradient-16)"></path>
                        <path d="M51.3069948,68.626943 C50.6591619,66.9742128 49.3449062,65.6709609 47.6867876,65.0370466 C46.8932642,64.8108808 40.9950777,64.9134715 37.8264249,64.9865285 C36.5954706,65.0116854 35.3943458,65.3699815 34.3507772,66.0233161 C33.3528497,66.6505181 32.1085492,67.3445596 31.4906736,67.3445596 L21.5284974,67.3445596 C19.6887482,65.9899206 17.7198944,64.8200107 15.6505181,63.8518135 C9.69948187,62.4917098 3.97150259,75.5176166 9.68393782,78.1266839 C19.288601,80.5088083 38.2468912,77.0316062 46.2124352,74.3082902 C47.9851774,73.7259666 49.5245101,72.5906031 50.6044041,71.0689119 C51.1975339,70.4039908 51.4560697,69.5054074 51.3069948,68.626943 Z" id="Path_57" fill="url(#linearGradient-17)"></path>
                    </g>
                </g>
                <line x1="22.8396373" y1="178.923057" x2="278.870984" y2="178.923057" id="Line_1" stroke="#0033AC" stroke-width="0.777202073"></line>
                <g id="Group_16" transform="translate(94.206995, 136.151295)" fill="#0033AC" fill-rule="nonzero">
                    <path d="M63.7531088,44.9440424 L91.0445596,44.9440424 C92.6095571,44.9440424 93.8782383,43.6753603 93.8782383,42.1103627 L93.8782383,42.1103627 C93.8778096,41.3967195 93.2993945,40.8183044 92.5857513,40.8178756 L63.7515544,40.8178756 C63.0379112,40.8183044 62.4594961,41.3967195 62.4590674,42.1103627 L62.4590674,43.6515544 C62.4590674,43.9946128 62.5954528,44.3235977 62.8381774,44.5660308 C63.0809021,44.8084638 63.4100507,44.944454 63.7531088,44.9440424 Z" id="Path_58"></path>
                    <path d="M15.45,44.9440416 L72.4546632,44.9440416 C73.49402,44.9440416 74.4739325,44.4594198 75.1040895,43.6328819 C75.7342464,42.8063441 75.9423842,41.7329955 75.6668394,40.730829 L65.6051813,4.10362694 C64.9539018,1.73225166 62.7980441,0.0886010363 60.3388601,0.0886010363 L3.33341969,0.0886010363 C2.29411564,0.0886010363 1.31445472,0.574056293 0.684403238,1.40060822 C0.0543517587,2.22716015 -0.153916321,3.30037312 0.121243523,4.30259067 L10.1813472,40.9290155 C10.8333228,43.3009107 12.9901304,44.944526 15.45,44.9440416 L15.45,44.9440416 Z" id="Path_59"></path>
                </g>
                <g id="Group_23" transform="translate(241.875389, 138.482902)" fill-rule="nonzero">
                    <g id="Group_20" fill="#0099FF">
                        <g id="Group_17" transform="translate(17.098446, 13.989637)">
                            <path d="M17.8795337,0.266580311 C17.019171,0.499740933 15.8277202,1.45259067 14.5134715,2.71632124 C13.0644543,4.17269413 11.5304192,5.54193274 9.91943005,6.81683938 C8.81580311,7.67176166 7.7238342,8.44041451 6.67150259,9.19196891 C5.64248705,9.96062176 4.61968912,10.6772021 3.73678756,11.411658 C1.93834197,12.8494819 0.565803109,14.2686528 0.0932642487,15.3341969 C0.565803109,14.2795337 0.767098446,12.3233161 1.66398964,9.95129534 C2.14844014,8.64440744 2.7882649,7.4005067 3.56968912,6.24637306 C4.48144774,4.92532694 5.59197471,3.75319142 6.8619171,2.77150259 C8.80864156,1.35173011 11.1226511,0.521848629 13.5279793,0.380829016 C15.5106218,0.214507772 17.0261658,0.501295337 17.8795337,0.266580311 Z" id="Path_60"></path>
                        </g>
                        <g id="Group_18" transform="translate(14.766839, 0.000000)">
                            <path d="M1.71994819,28.5233161 C1.80388601,27.461658 1.28471503,25.7572539 0.942746114,23.5095855 C0.475785487,20.8307501 0.524057324,18.0874326 1.08497409,15.4266839 C1.88794857,12.1145092 3.25222765,8.96431255 5.11865285,6.1126943 C6.67305699,3.65362694 8.1373057,1.8746114 8.6984456,0.602331606 C8.1357513,1.87772021 7.83186528,4.16735751 7.50621762,6.96683938 C7.18802169,10.1850267 6.69506599,13.3835309 6.02953368,16.5481865 C5.42024691,19.0562202 4.55859929,21.496123 3.45777202,23.8305699 C2.5507772,25.8505181 1.80310881,27.4624352 1.71994819,28.5233161 Z" id="Path_61"></path>
                        </g>
                        <g id="Group_19" transform="translate(0.000000, 10.103627)">
                            <path d="M0.645854922,0.0637305699 C1.5007772,0.460880829 3.13290155,0.46865285 5.16062176,1.07409326 C7.6245058,1.74971262 9.85065609,3.10020791 11.5880829,4.97331606 C13.6886727,7.37580416 15.0968833,10.3039795 15.6621762,13.4448187 C16.1751295,16.0873057 16.0282383,18.1740933 16.2839378,19.3772021 C16.0259067,18.1569948 14.919171,16.3810881 13.3523316,14.4987047 C11.8018135,12.5875648 9.79896373,10.6056995 7.81554404,8.36658031 C6.17020725,6.55803109 4.92979275,4.72927461 3.75621762,3.1880829 C2.61139896,1.63601036 1.51165803,0.466321244 0.645854922,0.0637305699 Z" id="Path_62"></path>
                        </g>
                    </g>
                    <g id="Group_22" transform="translate(6.994819, 20.984456)">
                        <g id="Group_21">
                            <path d="M19.7036269,1.44559585 L2.87564767,1.44559585 C2.45069031,1.44598108 2.04616453,1.62800139 1.7640225,1.94578241 C1.48188048,2.26356344 1.34903382,2.68679418 1.39896373,3.10880829 L3.4515544,20.3129534 C3.54081764,21.0610813 4.17480465,21.6246624 4.92823834,21.6256477 L17.6502591,21.6256477 C18.4036928,21.6246624 19.0376798,21.0610813 19.126943,20.3129534 L21.1826425,3.10880829 C21.2323622,2.68644364 21.0991215,2.26297383 20.8165157,1.94517219 C20.5339098,1.62737055 20.128908,1.44559585 19.7036269,1.44559585 L19.7036269,1.44559585 Z" id="Path_63" fill="#062776"></path>
                            <path d="M0.570466321,1.50777202 L1.33056995,7.88082902 C1.3703295,8.23651135 1.67216099,8.50480601 2.03005181,8.50260429 L20.5562176,8.50260429 C20.9141084,8.50480601 21.2159399,8.23651135 21.2556995,7.88082902 L22.0158031,1.50777202 C22.0401731,1.30807815 21.9773838,1.10755943 21.8434718,0.95742915 C21.7095597,0.807298866 21.5174912,0.722093603 21.3163212,0.723556126 L1.26683938,0.723556126 C1.06621017,0.722989868 0.874988424,0.808582631 0.741770912,0.958601012 C0.6085534,1.10861939 0.546166938,1.30861891 0.570466321,1.50777202 L0.570466321,1.50777202 Z" id="Path_64" fill="#0033AE"></path>
                        </g>
                    </g>
                </g>
                <path d="M158.499799,0 C170.927189,0 181,10.0723196 181,22.5 C181,34.9272789 170.927189,45 158.499799,45 C146.072409,45 136,34.9272789 136,22.5 C136,10.0723196 146.072409,0 158.499799,0 Z M160.197875,3.47602434 L160.197875,4.88217396 C160.197875,5.82094546 159.438579,6.58023414 158.499799,6.58023414 C157.561019,6.58023414 156.801724,5.82094546 156.801724,4.88217396 L156.801724,4.88217396 L156.801724,3.47602434 C147.638783,4.2875116 140.31646,11.5929046 139.479669,20.7489382 L139.479669,20.7489382 L140.93522,20.7489382 C141.873598,20.7489382 142.632893,21.5082269 142.632893,22.4469984 C142.632893,23.3857699 141.873598,24.1450585 140.93522,24.1450585 L140.93522,24.1450585 L139.471639,24.1450585 C140.261049,33.35048 147.603448,40.7096777 156.801724,41.5239757 L156.801724,41.5239757 L156.801724,40.0118228 C156.801724,39.0730513 157.561019,38.3133611 158.499799,38.3133611 C159.438579,38.3133611 160.197875,39.0730513 160.197875,40.0118228 L160.197875,40.0118228 L160.197875,41.5239757 C169.396552,40.7096777 176.738951,33.35048 177.528361,24.1450585 L177.528361,24.1450585 L176.06478,24.1450585 C175.126,24.1450585 174.366705,23.3857699 174.366705,22.4469984 C174.366705,21.5082269 175.126,20.7489382 176.06478,20.7489382 L176.06478,20.7489382 L177.519929,20.7489382 C176.68354,11.5929046 169.361217,4.2875116 160.197875,3.47602434 L160.197875,3.47602434 Z M168.615574,11.5386983 C169.103033,11.0311675 169.909307,11.0078789 170.416843,11.4953334 C170.927189,11.9827879 170.944053,12.7854415 170.459405,13.2965861 L170.459405,13.2965861 L160.402655,23.8366853 C160.406671,23.8860732 160.410285,23.9354611 160.410285,23.9860536 C160.410285,25.0404651 159.554622,25.8965219 158.499799,25.8965219 C157.499184,25.8965219 156.678855,25.1251874 156.597746,24.1454601 L156.597746,24.1454601 L148.182054,17.7868692 C147.617903,17.3624545 147.508686,16.5602024 147.933105,16.0028821 C148.357523,15.4391373 149.15657,15.3327325 149.713896,15.7507227 L149.713896,15.7507227 L158.131997,22.1117228 C158.251251,22.0884342 158.37412,22.0755853 158.499799,22.0755853 L158.499799,22.0755853 L158.557218,22.078396 Z" id="Combined-Shape" fill-opacity="0.2" fill="#0033AC"></path>
            </g>
        </g>
    </g>
</svg>