<?xml version="1.0" encoding="UTF-8"?>
<svg width="300px" height="192px" viewBox="0 0 300 192" version="1.1" xmlns="http://www.w3.org/2000/svg" xmlns:xlink="http://www.w3.org/1999/xlink">
    <!-- Generator: Sketch 61.2 (89653) - https://sketch.com -->
    <title>img-new-services-qa</title>
    <desc>Created with Sketch.</desc>
    <g id="Page-1" stroke="none" stroke-width="1" fill="none" fill-rule="evenodd">
        <g id="Home-page-5-Copy-2" transform="translate(-2480.000000, -157.000000)" fill-rule="nonzero">
            <g id="img-new-services-qa" transform="translate(2480.000000, 157.000000)">
                <path d="M173.221757,59.3096234 L153.012552,129.728033 L271.129707,129.728033 L292.029289,48.0753138 C294.60251,39.1631799 289.456067,31.8828452 280.481172,31.8828452 L280.481172,31.8828452 C271.25523,31.8828452 261.401674,39.2259414 258.640167,48.4518828 C257.447699,52.5941423 233.096234,52.3430962 234.790795,55.292887 L173.221757,59.3096234 Z" id="Path" fill="#B8D0D7"></path>
                <g id="Group" transform="translate(113.598326, 50.836820)">
                    <path d="M143.410042,93.6401674 L0.125523013,93.6401674 L28.8075314,3.07531381 C29.3096234,1.50627615 30.8158996,0.376569038 32.4476987,0.376569038 L163.054393,0.376569038 C165.564854,0.376569038 167.384937,2.76150628 166.757322,5.20920502 L143.410042,93.6401674 Z" id="Path" fill="#8FA8BB"></path>
                    <path d="M134.372385,87.9288703 L11.6736402,87.9288703 C10.167364,87.9288703 9.10041841,86.4853556 9.53974895,85.041841 L34.0794979,7.65690377 C34.3933054,6.71548117 35.209205,6.08786611 36.2133891,6.08786611 L154.769874,6.08786611 C156.213389,6.08786611 157.280335,7.46861925 156.903766,8.91213389 L136.506276,86.2970711 C136.25523,87.2384937 135.376569,87.9288703 134.372385,87.9288703 Z" id="Path" fill="#E8F3F5"></path>
                </g>
                <rect id="Rectangle" fill="#136CA0" x="57.5523013" y="142.719665" width="146.23431" height="3.13807531"></rect>
                <g id="Group" transform="translate(95.397490, 37.656904)">
                    <g transform="translate(21.338912, 97.280335)" id="Path">
                        <path d="M11.6108787,6.52719665 C11.1087866,5.71129707 5.9623431,5.0209205 4.20502092,5.27196653 C2.25941423,5.52301255 3.76569038,4.07949791 2.19665272,4.58158996 C0.627615063,5.08368201 0.627615063,5.08368201 0.627615063,5.08368201 C0.627615063,5.08368201 0.251046025,6.21338912 0.50209205,7.71966527 C0.50209205,7.84518828 0.564853556,7.90794979 0.564853556,8.0334728 C0.815899582,9.10041841 4.33054393,9.66527197 7.34309623,8.84937238 C9.22594142,8.34728033 10.9205021,8.91213389 11.6108787,7.90794979 C11.7991632,7.71966527 11.6736402,6.58995816 11.6108787,6.52719665 Z" fill="#291A6D"></path>
                        <path d="M0.50209205,0.188284519 L0.690376569,5.08368201 C0.690376569,5.08368201 2.57322176,5.89958159 4.20502092,5.33472803 L4.51882845,0.50209205 L0.50209205,0.188284519 Z" fill="#F7D3C8"></path>
                    </g>
                    <g transform="translate(6.276151, 98.535565)" id="Path">
                        <path d="M11.4853556,5.58577406 C10.9832636,4.83263598 5.46025105,3.9539749 3.82845188,4.33054393 C2.0083682,4.70711297 3.38912134,3.20083682 1.94560669,3.70292887 C0.564853556,4.26778243 0.564853556,4.26778243 0.564853556,4.26778243 C0.564853556,4.26778243 0.251046025,5.9623431 0.564853556,7.46861925 C0.564853556,7.59414226 0.627615063,7.65690377 0.627615063,7.78242678 C0.941422594,8.78661088 3.82845188,8.72384937 6.58995816,7.78242678 C8.28451883,7.15481172 10.6066946,7.78242678 11.1715481,6.77824268 C11.3598326,6.65271967 11.6108787,5.64853556 11.4853556,5.58577406 Z" fill="#291A6D"></path>
                        <path d="M0.188284519,0 L0.627615063,4.45606695 C0.627615063,4.45606695 2.51046025,5.20920502 4.14225941,4.45606695 L4.20502092,0.0627615063 L0.188284519,0 Z" fill="#F7D3C8"></path>
                    </g>
                    <path d="M25.6694561,46.0041841 C25.6694561,46.0041841 12.9916318,49.832636 3.26359833,47.7615063 C3.26359833,47.7615063 2.76150628,78.3891213 6.21338912,100.983264 L11.0460251,101.297071 C11.0460251,101.297071 12.6150628,94.5188285 13.9330544,59.874477 L15,59.8117155 C15,59.8117155 18.2008368,85.4811715 20.6485356,99.6025105 L26.4853556,99.4769874 C26.4853556,99.3514644 27.8033473,89.6861925 25.6694561,46.0041841 Z" id="Path" fill="#291A6D"></path>
                    <path d="M8.78661088,22.2803347 C8.78661088,22.2803347 2.0083682,29.6861925 0.690376569,32.0083682 C-0.627615063,34.3305439 6.46443515,40.6066946 6.46443515,40.6066946 L8.59832636,38.4728033 L5.33472803,33.2008368 L13.1799163,25.6694561 L8.78661088,22.2803347 Z" id="Path" fill="#F7D3C8"></path>
                    <path d="M30.9414226,19.0167364 C30.9414226,19.0167364 20.8368201,14.2468619 16.9456067,14.748954 C13.0543933,15.251046 7.90794979,20.8368201 6.71548117,22.4686192 C6.71548117,22.4686192 9.66527197,24.3514644 11.9874477,25.2301255 C14.2468619,26.1087866 30.9414226,19.0167364 30.9414226,19.0167364 Z" id="Path" fill="#F9B502"></path>
                    <path d="M35.334728,24.4769874 C35.334728,24.4769874 39.0376569,29.8117155 40.9832636,29.3096234 C42.8661088,28.8075314 52.4058577,25.6694561 52.4058577,25.6694561 C52.4058577,25.6694561 52.6569038,23.5355649 53.1589958,23.0334728 C53.6610879,22.5313808 55.6066946,22.0292887 56.1087866,21.9037657 C56.6108787,21.7782427 56.0460251,22.6569038 55.4811715,22.8451883 C55.292887,22.9079498 54.2259414,23.4728033 54.1631799,23.7238494 C54.1631799,24.0376569 55.9832636,22.9707113 57.1129707,22.4686192 C58.2426778,21.9665272 60.125523,21.5271967 60.1882845,21.6527197 C60.376569,22.0920502 58.4937238,22.7196653 58.1799163,22.8451883 C57.8661088,22.9707113 57.0502092,23.4728033 57.0502092,23.4728033 C57.0502092,23.4728033 57.9916318,23.7866109 57.6778243,24.2887029 C57.6778243,24.2887029 58.3054393,24.9790795 57.9288703,25.292887 C57.9288703,25.292887 58.1799163,25.9832636 57.5523013,26.4225941 C56.9246862,26.8619247 55.5439331,27.9916318 53.7238494,27.6150628 C53.7238494,27.6150628 41.3598326,35.7112971 39.4769874,35.334728 C36.1506276,34.6443515 32.3849372,29.3723849 32.3849372,29.3723849 L35.334728,24.4769874 Z" id="Path" fill="#F7D3C8"></path>
                    <path d="M31.4435146,19.2050209 C34.3305439,20.8368201 36.4016736,22.7824268 39.665272,26.9874477 C39.665272,26.9874477 35.8368201,30.6903766 34.8953975,33.9539749 C34.8953975,33.9539749 33.7029289,31.7573222 31.5062762,29.3723849 C29.5606695,29.748954 26.0460251,51.0251046 26.1715481,54.2259414 C26.1715481,54.2259414 12.3012552,53.1589958 2.63598326,48.5774059 C2.63598326,48.5774059 10.6694561,22.7196653 12.9916318,19.958159 C15.3138075,17.1966527 14.9372385,13.6192469 20.8368201,15.1882845 C24.6025105,16.2552301 28.9330544,17.8242678 31.4435146,19.2050209 Z" id="Path" fill="#F9B502"></path>
                    <path d="M35.3974895,6.52719665 C35.3974895,6.52719665 35.334728,8.59832636 35.1464435,9.53974895 C35.0209205,10.41841 35.8368201,10.9205021 35.7740586,11.2343096 C35.7740586,11.4853556 35.0209205,11.9246862 35.0209205,11.9246862 C35.0209205,11.9246862 34.6443515,15.0627615 33.7029289,15.6276151 C32.6987448,16.1924686 30.9414226,15.0627615 30.9414226,15.0627615 L29.4351464,19.2050209 C29.4351464,19.2050209 25.7949791,19.7698745 23.4728033,16.6317992 L24.916318,12.6150628 C24.916318,12.6150628 24.4769874,6.90376569 27.5523013,4.70711297 C30.5648536,2.44769874 35.3974895,6.52719665 35.3974895,6.52719665 Z" id="Path" fill="#F7D3C8"></path>
                    <path d="M30.5648536,11.1087866 C30.5648536,11.1087866 30.251046,9.0376569 31.0041841,7.78242678 C31.0041841,7.78242678 35.460251,8.66108787 37.1548117,6.84100418 C37.1548117,6.84100418 36.3389121,7.0292887 36.0878661,6.9665272 C36.0878661,6.9665272 39.1631799,6.52719665 38.9748954,1.12970711 C38.9748954,1.12970711 37.1548117,3.26359833 35.9623431,2.82426778 C34.832636,2.38493724 33.4518828,-0.125523013 28.9330544,0.376569038 C24.3514644,0.815899582 19.832636,5.33472803 22.2175732,12.2384937 C22.5941423,13.3682008 24.9790795,14.623431 25.7322176,14.874477 C25.7322176,14.874477 24.8535565,13.6192469 24.790795,13.1799163 C24.790795,13.1799163 26.1715481,14.0585774 27.6778243,14.4351464 C27.6778243,14.4351464 26.6108787,13.1171548 26.3598326,12.2384937 C26.3598326,12.2384937 28.1171548,13.6192469 29.623431,12.3012552 C29.623431,12.3012552 27.6150628,11.5481172 27.4895397,10.7949791 C27.3640167,10.041841 28.2426778,8.66108787 29.0585774,9.60251046 C29.874477,10.5439331 30.1882845,11.0460251 30.5648536,11.1087866 Z" id="Path" fill="#291A6D"></path>
                </g>
                <g id="Group" transform="translate(135.564854, 31.380753)">
                    <path d="M144.539749,0.439330544 L45.5020921,0.439330544 C36.4644351,0.439330544 27.0502092,7.65690377 24.2259414,16.6317992 L24.2259414,16.6317992 L0.376569038,99.8535565 L99.4142259,99.8535565 L120.062762,27.8661088 L123.012552,17.6359833 L123.32636,16.6317992 L123.32636,16.6317992 C126.025105,7.65690377 135.439331,0.439330544 144.539749,0.439330544 Z" id="Path" fill="#FFFFFF"></path>
                    <path d="M24.2259414,16.6945607 L24.2259414,16.6945607 L0.376569038,99.916318 L99.4142259,99.916318 L120.062762,27.9288703 L123.012552,17.6987448 L123.32636,16.6945607 L123.32636,16.6945607 C126.150628,7.71966527 135.564854,0.501685826 144.60251,0.501685826 L45.5020921,0.501685826 C36.4644351,0.439330544 26.9874477,7.65690377 24.2259414,16.6945607 Z M131.108787,4.51882845 C126.903766,7.71966527 123.76569,12.0502092 122.322176,16.6317992 C122.322176,16.6945607 122.322176,16.7573222 122.259414,16.7573222 L122.008368,17.6359833 L119.058577,27.8661088 L98.6610879,98.9121339 L1.50627615,98.9121339 L25.041841,16.6945607 C25.041841,16.6945607 25.041841,16.6317992 25.041841,16.6317992 C26.3598326,12.4895397 29.1213389,8.66108787 32.8870293,5.77405858 C36.6527197,2.88702929 41.0460251,1.31799163 45.125523,1.31799163 L136.317992,1.31799163 C134.560669,2.19665272 132.803347,3.26359833 131.108787,4.51882845 Z" id="Shape" fill="#B8D0D7"></path>
                </g>
                <g id="Group" transform="translate(187.656904, 57.112971)" fill="#B8D0D7">
                    <path d="M6.0251046,2.38493724 L53.8493724,2.38493724 C54.539749,2.38493724 55.2301255,1.94560669 55.41841,1.31799163 L55.41841,1.31799163 C55.6066946,0.753138075 55.167364,0.251046025 54.4769874,0.251046025 L6.65271967,0.251046025 C5.9623431,0.251046025 5.27196653,0.690376569 5.08368201,1.31799163 L5.08368201,1.31799163 C4.89539749,1.88284519 5.33472803,2.38493724 6.0251046,2.38493724 Z" id="Path"></path>
                    <path d="M17.3221757,6.65271967 L52.5941423,6.65271967 C53.2845188,6.65271967 53.9748954,6.21338912 54.1631799,5.58577406 L54.1631799,5.58577406 C54.3514644,5.0209205 53.9121339,4.51882845 53.2217573,4.51882845 L17.9497908,4.51882845 C17.2594142,4.51882845 16.5690377,4.958159 16.3807531,5.58577406 L16.3807531,5.58577406 C16.1924686,6.21338912 16.6317992,6.65271967 17.3221757,6.65271967 Z" id="Path"></path>
                    <path d="M4.76987448,6.65271967 L12.3012552,6.65271967 C12.9916318,6.65271967 13.6820084,6.21338912 13.8702929,5.58577406 L13.8702929,5.58577406 C14.0585774,5.0209205 13.6192469,4.51882845 12.9288703,4.51882845 L5.39748954,4.51882845 C4.70711297,4.51882845 4.0167364,4.958159 3.82845188,5.58577406 L3.82845188,5.58577406 C3.70292887,6.21338912 4.07949791,6.65271967 4.76987448,6.65271967 Z" id="Path"></path>
                    <path d="M13.6192469,19.58159 L48.9539749,19.58159 C49.6443515,19.58159 50.334728,19.0794979 50.5230126,18.5146444 L50.5230126,18.5146444 C50.7112971,17.9497908 50.2719665,17.4476987 49.58159,17.4476987 L14.3096234,17.4476987 C13.6192469,17.4476987 12.9288703,17.8870293 12.7405858,18.5146444 L12.7405858,18.5146444 C12.4895397,19.1422594 12.9288703,19.58159 13.6192469,19.58159 Z" id="Path"></path>
                    <path d="M1.06694561,19.58159 L8.59832636,19.58159 C9.28870293,19.58159 9.9790795,19.0794979 10.167364,18.5146444 L10.167364,18.5146444 C10.3556485,17.9497908 9.91631799,17.4476987 9.22594142,17.4476987 L1.69456067,17.4476987 C1.0041841,17.4476987 0.313807531,17.8870293 0.125523013,18.5146444 L0.125523013,18.5146444 C-0.0627615063,19.1422594 0.376569038,19.58159 1.06694561,19.58159 Z" id="Path"></path>
                    <path d="M3.57740586,10.9832636 L51.4016736,10.9832636 C52.0920502,10.9832636 52.7824268,10.4811715 52.9707113,9.91631799 L52.9707113,9.91631799 C53.1589958,9.35146444 52.7196653,8.84937238 52.0292887,8.84937238 L4.20502092,8.84937238 C3.51464435,8.84937238 2.82426778,9.28870293 2.63598326,9.91631799 L2.63598326,9.91631799 C2.44769874,10.4811715 2.88702929,10.9832636 3.57740586,10.9832636 Z" id="Path"></path>
                    <path d="M2.32217573,15.251046 L19.707113,15.251046 C20.3974895,15.251046 21.0878661,14.748954 21.2761506,14.1841004 L21.2761506,14.1841004 C21.4644351,13.6192469 21.0251046,13.1171548 20.334728,13.1171548 L2.94979079,13.1171548 C2.25941423,13.1171548 1.56903766,13.6192469 1.38075314,14.1841004 L1.38075314,14.1841004 C1.19246862,14.8117155 1.63179916,15.251046 2.32217573,15.251046 Z" id="Path"></path>
                    <path d="M24.916318,15.251046 L50.083682,15.251046 C50.7740586,15.251046 51.4644351,14.748954 51.6527197,14.1841004 L51.6527197,14.1841004 C51.8410042,13.6192469 51.4016736,13.1171548 50.7112971,13.1171548 L25.5439331,13.1171548 C24.8535565,13.1171548 24.1631799,13.6192469 23.9748954,14.1841004 L23.9748954,14.1841004 C23.7866109,14.8117155 24.2259414,15.251046 24.916318,15.251046 Z" id="Path"></path>
                </g>
                <g id="Group" transform="translate(153.765690, 82.217573)" fill="#B8D0D7">
                    <path d="M6.27615063,2.63598326 L54.1004184,2.63598326 C54.790795,2.63598326 55.4811715,2.19665272 55.6694561,1.56903766 L55.6694561,1.56903766 C55.8577406,1.0041841 55.41841,0.50209205 54.7280335,0.50209205 L6.90376569,0.50209205 C6.21338912,0.50209205 5.52301255,0.941422594 5.33472803,1.56903766 L5.33472803,1.56903766 C5.14644351,2.13389121 5.58577406,2.63598326 6.27615063,2.63598326 Z" id="Path"></path>
                    <path d="M17.5732218,6.90376569 L52.8451883,6.90376569 C53.5355649,6.90376569 54.2259414,6.46443515 54.4142259,5.83682008 L54.4142259,5.83682008 C54.6025105,5.27196653 54.1631799,4.76987448 53.4728033,4.76987448 L18.2008368,4.76987448 C17.5104603,4.76987448 16.8200837,5.20920502 16.6317992,5.83682008 L16.6317992,5.83682008 C16.5062762,6.46443515 16.8828452,6.90376569 17.5732218,6.90376569 Z" id="Path"></path>
                    <path d="M5.0209205,6.90376569 L12.5523013,6.90376569 C13.2426778,6.90376569 13.9330544,6.46443515 14.1213389,5.83682008 L14.1213389,5.83682008 C14.3096234,5.27196653 13.8702929,4.76987448 13.1799163,4.76987448 L5.64853556,4.76987448 C4.958159,4.76987448 4.26778243,5.20920502 4.07949791,5.83682008 L4.07949791,5.83682008 C3.9539749,6.46443515 4.33054393,6.90376569 5.0209205,6.90376569 Z" id="Path"></path>
                    <path d="M13.8702929,19.832636 L49.1422594,19.832636 C49.832636,19.832636 50.5230126,19.3305439 50.7112971,18.7656904 L50.7112971,18.7656904 C50.8995816,18.2008368 50.460251,17.6987448 49.7698745,17.6987448 L14.4979079,17.6987448 C13.8075314,17.6987448 13.1171548,18.1380753 12.9288703,18.7656904 L12.9288703,18.7656904 C12.7405858,19.3933054 13.1799163,19.832636 13.8702929,19.832636 Z" id="Path"></path>
                    <path d="M1.31799163,19.832636 L8.84937238,19.832636 C9.53974895,19.832636 10.2301255,19.3305439 10.41841,18.7656904 L10.41841,18.7656904 C10.6066946,18.2008368 10.167364,17.6987448 9.47698745,17.6987448 L1.94560669,17.6987448 C1.25523013,17.6987448 0.564853556,18.1380753 0.376569038,18.7656904 L0.376569038,18.7656904 C0.188284519,19.3933054 0.627615063,19.832636 1.31799163,19.832636 Z" id="Path"></path>
                    <path d="M3.82845188,11.2343096 L51.6527197,11.2343096 C52.3430962,11.2343096 53.0334728,10.7949791 53.2217573,10.167364 L53.2217573,10.167364 C53.4100418,9.60251046 52.9707113,9.10041841 52.2803347,9.10041841 L4.39330544,9.10041841 C3.70292887,9.10041841 3.0125523,9.53974895 2.82426778,10.167364 L2.82426778,10.167364 C2.69874477,10.7949791 3.13807531,11.2343096 3.82845188,11.2343096 Z" id="Path"></path>
                    <path d="M2.57322176,15.5648536 L19.958159,15.5648536 C20.6485356,15.5648536 21.3389121,15.0627615 21.5271967,14.4979079 L21.5271967,14.4979079 C21.7154812,13.9330544 21.2761506,13.4309623 20.5857741,13.4309623 L3.20083682,13.4309623 C2.51046025,13.4309623 1.82008368,13.9330544 1.63179916,14.4979079 L1.63179916,14.4979079 C1.44351464,15.0627615 1.88284519,15.5648536 2.57322176,15.5648536 Z" id="Path"></path>
                    <path d="M25.167364,15.5648536 L50.334728,15.5648536 C51.0251046,15.5648536 51.7154812,15.0627615 51.9037657,14.4979079 L51.9037657,14.4979079 C52.0920502,13.9330544 51.6527197,13.4309623 50.9623431,13.4309623 L25.7949791,13.4309623 C25.1046025,13.4309623 24.4142259,13.9330544 24.2259414,14.4979079 L24.2259414,14.4979079 C24.0376569,15.0627615 24.4769874,15.5648536 25.167364,15.5648536 Z" id="Path"></path>
                </g>
                <g id="Group" transform="translate(207.740586, 82.217573)" fill="#B8D0D7">
                    <path d="M6.33891213,2.63598326 L34.0167364,2.63598326 C34.707113,2.63598326 35.3974895,2.19665272 35.5857741,1.56903766 L35.5857741,1.56903766 C35.7740586,1.0041841 35.334728,0.50209205 34.6443515,0.50209205 L6.9665272,0.50209205 C6.27615063,0.50209205 5.58577406,0.941422594 5.39748954,1.56903766 L5.39748954,1.56903766 C5.27196653,2.13389121 5.64853556,2.63598326 6.33891213,2.63598326 Z" id="Path"></path>
                    <path d="M17.6987448,6.90376569 L32.8242678,6.90376569 C33.5146444,6.90376569 34.2050209,6.46443515 34.3933054,5.83682008 L34.3933054,5.83682008 C34.58159,5.27196653 34.1422594,4.76987448 33.4518828,4.76987448 L18.3263598,4.76987448 C17.6359833,4.76987448 16.9456067,5.20920502 16.7573222,5.83682008 L16.7573222,5.83682008 C16.5690377,6.46443515 17.0083682,6.90376569 17.6987448,6.90376569 Z" id="Path"></path>
                    <path d="M5.14644351,6.90376569 L12.6778243,6.90376569 C13.3682008,6.90376569 14.0585774,6.46443515 14.2468619,5.83682008 L14.2468619,5.83682008 C14.4351464,5.27196653 13.9958159,4.76987448 13.3054393,4.76987448 L5.77405858,4.76987448 C5.08368201,4.76987448 4.39330544,5.20920502 4.20502092,5.83682008 L4.20502092,5.83682008 C4.0167364,6.46443515 4.45606695,6.90376569 5.14644351,6.90376569 Z" id="Path"></path>
                    <path d="M13.9958159,19.832636 L29.1213389,19.832636 C29.8117155,19.832636 30.5020921,19.3305439 30.6903766,18.7656904 L30.6903766,18.7656904 C30.8786611,18.2008368 30.4393305,17.6987448 29.748954,17.6987448 L14.623431,17.6987448 C13.9330544,17.6987448 13.2426778,18.1380753 13.0543933,18.7656904 L13.0543933,18.7656904 C12.8661088,19.3933054 13.3054393,19.832636 13.9958159,19.832636 Z" id="Path"></path>
                    <path d="M1.44351464,19.832636 L8.9748954,19.832636 C9.66527197,19.832636 10.3556485,19.3305439 10.5439331,18.7656904 L10.5439331,18.7656904 C10.7322176,18.2008368 10.292887,17.6987448 9.60251046,17.6987448 L2.07112971,17.6987448 C1.38075314,17.6987448 0.690376569,18.1380753 0.50209205,18.7656904 L0.50209205,18.7656904 C0.313807531,19.3933054 0.753138075,19.832636 1.44351464,19.832636 Z" id="Path"></path>
                    <path d="M3.89121339,11.2343096 L31.5690377,11.2343096 C32.2594142,11.2343096 32.9497908,10.7949791 33.1380753,10.167364 L33.1380753,10.167364 C33.3263598,9.60251046 32.8870293,9.10041841 32.1966527,9.10041841 L4.51882845,9.10041841 C3.82845188,9.10041841 3.13807531,9.53974895 2.94979079,10.167364 L2.94979079,10.167364 C2.76150628,10.7949791 3.20083682,11.2343096 3.89121339,11.2343096 Z" id="Path"></path>
                    <path d="M2.63598326,15.5648536 L20.083682,15.5648536 C20.7740586,15.5648536 21.4644351,15.0627615 21.6527197,14.4979079 L21.6527197,14.4979079 C21.8410042,13.9330544 21.4016736,13.4309623 20.7112971,13.4309623 L3.32635983,13.4309623 C2.63598326,13.4309623 1.94560669,13.9330544 1.75732218,14.4979079 L1.75732218,14.4979079 C1.56903766,15.0627615 1.94560669,15.5648536 2.63598326,15.5648536 Z" id="Path"></path>
                    <path d="M25.2301255,15.5648536 L30.251046,15.5648536 C30.9414226,15.5648536 31.6317992,15.0627615 31.8200837,14.4979079 L31.8200837,14.4979079 C32.0083682,13.9330544 31.5690377,13.4309623 30.8786611,13.4309623 L25.8577406,13.4309623 C25.167364,13.4309623 24.4769874,13.9330544 24.2887029,14.4979079 L24.2887029,14.4979079 C24.1631799,15.0627615 24.539749,15.5648536 25.2301255,15.5648536 Z" id="Path"></path>
                </g>
                <g id="Group" transform="translate(200.836820, 106.694561)" fill="#B8D0D7">
                    <path d="M34.0794979,2.13389121 L6.40167364,2.13389121 C5.71129707,2.13389121 5.27196653,1.69456067 5.46025105,1.06694561 L5.46025105,1.06694561 C5.64853556,0.50209205 6.33891213,0 7.0292887,0 L34.707113,0 C35.3974895,0 35.8368201,0.439330544 35.6485356,1.06694561 L35.6485356,1.06694561 C35.460251,1.69456067 34.7698745,2.13389121 34.0794979,2.13389121 Z" id="Path"></path>
                    <path d="M20.2719665,6.46443515 L5.14644351,6.46443515 C4.45606695,6.46443515 4.0167364,5.9623431 4.20502092,5.39748954 L4.20502092,5.39748954 C4.39330544,4.83263598 5.08368201,4.33054393 5.77405858,4.33054393 L20.8995816,4.33054393 C21.5899582,4.33054393 22.0292887,4.76987448 21.8410042,5.39748954 L21.8410042,5.39748954 C21.6527197,6.0251046 20.9623431,6.46443515 20.2719665,6.46443515 Z" id="Path"></path>
                    <path d="M32.8242678,6.46443515 L25.292887,6.46443515 C24.6025105,6.46443515 24.1631799,5.9623431 24.3514644,5.39748954 L24.3514644,5.39748954 C24.539749,4.83263598 25.2301255,4.33054393 25.9205021,4.33054393 L33.4518828,4.33054393 C34.1422594,4.33054393 34.58159,4.76987448 34.3933054,5.39748954 L34.3933054,5.39748954 C34.2050209,6.0251046 33.5146444,6.46443515 32.8242678,6.46443515 Z" id="Path"></path>
                    <path d="M16.5690377,19.3933054 L1.44351464,19.3933054 C0.753138075,19.3933054 0.313807531,18.9539749 0.50209205,18.3263598 L0.50209205,18.3263598 C0.690376569,17.7615063 1.38075314,17.2594142 2.07112971,17.2594142 L17.1966527,17.2594142 C17.8870293,17.2594142 18.3263598,17.6987448 18.1380753,18.3263598 L18.1380753,18.3263598 C17.9497908,18.9539749 17.2594142,19.3933054 16.5690377,19.3933054 Z" id="Path"></path>
                    <path d="M29.1213389,19.3933054 L21.5899582,19.3933054 C20.8995816,19.3933054 20.460251,18.9539749 20.6485356,18.3263598 L20.6485356,18.3263598 C20.8368201,17.7615063 21.5271967,17.2594142 22.2175732,17.2594142 L29.748954,17.2594142 C30.4393305,17.2594142 30.8786611,17.6987448 30.6903766,18.3263598 L30.6903766,18.3263598 C30.5020921,18.9539749 29.8117155,19.3933054 29.1213389,19.3933054 Z" id="Path"></path>
                    <path d="M31.6317992,10.7949791 L3.9539749,10.7949791 C3.26359833,10.7949791 2.82426778,10.3556485 3.0125523,9.72803347 L3.0125523,9.72803347 C3.20083682,9.16317992 3.89121339,8.66108787 4.58158996,8.66108787 L32.2594142,8.66108787 C32.9497908,8.66108787 33.3891213,9.16317992 33.2008368,9.72803347 L33.2008368,9.72803347 C33.0125523,10.292887 32.3221757,10.7949791 31.6317992,10.7949791 Z" id="Path"></path>
                    <path d="M30.376569,15.0627615 L12.9916318,15.0627615 C12.3012552,15.0627615 11.8619247,14.623431 12.0502092,13.9958159 L12.0502092,13.9958159 C12.2384937,13.4309623 12.9288703,12.9288703 13.6192469,12.9288703 L31.0041841,12.9288703 C31.6945607,12.9288703 32.1338912,13.3682008 31.9456067,13.9958159 L31.9456067,13.9958159 C31.7573222,14.623431 31.0669456,15.0627615 30.376569,15.0627615 Z" id="Path"></path>
                    <path d="M7.78242678,15.0627615 L2.76150628,15.0627615 C2.07112971,15.0627615 1.63179916,14.623431 1.82008368,13.9958159 L1.82008368,13.9958159 C2.0083682,13.4309623 2.69874477,12.9288703 3.38912134,12.9288703 L8.41004184,12.9288703 C9.10041841,12.9288703 9.53974895,13.3682008 9.35146444,13.9958159 L9.35146444,13.9958159 C9.16317992,14.623431 8.47280335,15.0627615 7.78242678,15.0627615 Z" id="Path"></path>
                </g>
                <g id="Group" transform="translate(146.861925, 106.694561)" fill="#B8D0D7">
                    <path d="M54.1631799,2.19665272 L6.27615063,2.19665272 C5.58577406,2.19665272 5.14644351,1.75732218 5.33472803,1.12970711 L5.33472803,1.12970711 C5.52301255,0.564853556 6.21338912,0.0627615063 6.90376569,0.0627615063 L54.7280335,0.0627615063 C55.41841,0.0627615063 55.8577406,0.50209205 55.6694561,1.12970711 L55.6694561,1.12970711 C55.5439331,1.69456067 54.8535565,2.19665272 54.1631799,2.19665272 Z" id="Path"></path>
                    <path d="M40.3556485,6.46443515 L5.08368201,6.46443515 C4.39330544,6.46443515 3.9539749,6.0251046 4.14225941,5.39748954 L4.14225941,5.39748954 C4.33054393,4.83263598 5.0209205,4.33054393 5.71129707,4.33054393 L40.9832636,4.33054393 C41.6736402,4.33054393 42.1129707,4.76987448 41.9246862,5.39748954 L41.9246862,5.39748954 C41.7364017,6.0251046 41.0460251,6.46443515 40.3556485,6.46443515 Z" id="Path"></path>
                    <path d="M52.9079498,6.46443515 L45.376569,6.46443515 C44.6861925,6.46443515 44.2468619,6.0251046 44.4351464,5.39748954 L44.4351464,5.39748954 C44.623431,4.83263598 45.3138075,4.33054393 46.0041841,4.33054393 L53.5355649,4.33054393 C54.2259414,4.33054393 54.665272,4.76987448 54.4769874,5.39748954 L54.4769874,5.39748954 C54.2887029,6.0251046 53.5983264,6.46443515 52.9079498,6.46443515 Z" id="Path"></path>
                    <path d="M36.6527197,19.3933054 L1.38075314,19.3933054 C0.690376569,19.3933054 0.251046025,18.9539749 0.439330544,18.3263598 L0.439330544,18.3263598 C0.627615063,17.7615063 1.31799163,17.2594142 2.0083682,17.2594142 L37.2803347,17.2594142 C37.9707113,17.2594142 38.4100418,17.6987448 38.2217573,18.3263598 L38.2217573,18.3263598 C38.0334728,18.9539749 37.3430962,19.3933054 36.6527197,19.3933054 Z" id="Path"></path>
                    <path d="M49.2050209,19.3933054 L41.6736402,19.3933054 C40.9832636,19.3933054 40.5439331,18.9539749 40.7322176,18.3263598 L40.7322176,18.3263598 C40.9205021,17.7615063 41.6108787,17.2594142 42.3012552,17.2594142 L49.832636,17.2594142 C50.5230126,17.2594142 50.9623431,17.6987448 50.7740586,18.3263598 L50.7740586,18.3263598 C50.5857741,18.9539749 49.8953975,19.3933054 49.2050209,19.3933054 Z" id="Path"></path>
                    <path d="M51.6527197,10.7949791 L3.82845188,10.7949791 C3.13807531,10.7949791 2.69874477,10.292887 2.88702929,9.72803347 L2.88702929,9.72803347 C3.07531381,9.16317992 3.76569038,8.66108787 4.45606695,8.66108787 L52.2803347,8.66108787 C52.9707113,8.66108787 53.4100418,9.10041841 53.2217573,9.72803347 L53.2217573,9.72803347 C53.0334728,10.292887 52.3430962,10.7949791 51.6527197,10.7949791 Z" id="Path"></path>
                    <path d="M50.460251,15.0627615 L33.0753138,15.0627615 C32.3849372,15.0627615 31.9456067,14.623431 32.1338912,13.9958159 L32.1338912,13.9958159 C32.3221757,13.4309623 33.0125523,12.9288703 33.7029289,12.9288703 L51.0878661,12.9288703 C51.7782427,12.9288703 52.2175732,13.3682008 52.0292887,13.9958159 L52.0292887,13.9958159 C51.8410042,14.623431 51.1506276,15.0627615 50.460251,15.0627615 Z" id="Path"></path>
                    <path d="M27.8661088,15.0627615 L2.69874477,15.0627615 C2.0083682,15.0627615 1.56903766,14.623431 1.75732218,13.9958159 L1.75732218,13.9958159 C1.94560669,13.4309623 2.63598326,12.9288703 3.32635983,12.9288703 L28.4937238,12.9288703 C29.1841004,12.9288703 29.623431,13.3682008 29.4351464,13.9958159 L29.4351464,13.9958159 C29.2468619,14.623431 28.5564854,15.0627615 27.8661088,15.0627615 Z" id="Path"></path>
                </g>
                <polygon id="Path" fill="#44CC7C" points="170.146444 76.6945607 175.543933 57.8661088 168.828452 57.8661088 169.958159 54.0376569 187.970711 54.0376569 186.841004 57.8661088 180.125523 57.8661088 174.728033 76.6945607"></polygon>
                <path d="M244.707113,48.3263598 L196.945607,48.3263598 C196.25523,48.3263598 195.502092,48.8912134 195.313808,49.58159 L194.560669,52.2803347 C194.372385,52.9707113 194.748954,53.5355649 195.502092,53.5355649 L243.263598,53.5355649 C243.953975,53.5355649 244.707113,52.9707113 244.895397,52.2803347 L245.648536,49.58159 C245.83682,48.8912134 245.39749,48.3263598 244.707113,48.3263598 Z" id="Path" fill="#44CC7C"></path>
                <g id="Group" transform="translate(57.112971, 142.468619)">
                    <rect id="Rectangle" fill="#6F808C" x="146.548117" y="0.251046025" width="53.7866109" height="3.13807531"></rect>
                    <path d="M148.117155,3.38912134 L130.794979,3.38912134 L114.790795,3.38912134 L106.004184,3.38912134 L53.9748954,3.38912134 C53.9748954,3.38912134 56.6736402,9.91631799 75.1882845,10.7949791 L114.790795,10.7949791 L130.794979,10.7949791 L178.933054,10.7949791 C197.447699,9.91631799 200.146444,3.38912134 200.146444,3.38912134 L148.117155,3.38912134 Z" id="Path" fill="#7A8FA2"></path>
                    <path d="M146.548117,3.38912134 L94.6443515,3.38912134 L77.3221757,3.38912134 L61.3179916,3.38912134 L52.5313808,3.38912134 L0.50209205,3.38912134 C0.50209205,3.38912134 3.20083682,9.91631799 21.7154812,10.7949791 L61.3179916,10.7949791 L77.3221757,10.7949791 L125.460251,10.7949791 C142.656904,9.9790795 146.171548,4.33054393 146.610879,3.51464435 C146.610879,3.38912134 146.548117,3.38912134 146.548117,3.38912134 Z" id="Path" fill="#8FA8BB"></path>
                    <path d="M76.7573222,6.90376569 L52.7824268,6.90376569 C51.5271967,6.90376569 50.460251,5.89958159 50.460251,4.58158996 L50.460251,3.38912134 L79.0794979,3.38912134 L79.0794979,4.58158996 C79.0794979,5.83682008 78.0125523,6.90376569 76.7573222,6.90376569 Z" id="Path" fill="#B8D0D7"></path>
                    <rect id="Rectangle" fill="#7A8FA2" x="0.439330544" y="0.251046025" width="146.23431" height="3.13807531"></rect>
                </g>
                <g id="Group" transform="translate(93.514644, 160.669456)">
                    <path d="M24.4142259,26.8619247 L5.9623431,26.9246862 C2.88702929,26.9246862 0.376569038,24.4142259 0.376569038,21.4016736 L0.376569038,6.0251046 C0.376569038,2.94979079 2.82426778,0.439330544 5.89958159,0.439330544 L24.3514644,0.376569038 C27.4267782,0.376569038 29.9372385,2.88702929 29.9372385,5.89958159 L29.9372385,21.2761506 C29.9372385,24.3514644 27.4895397,26.8619247 24.4142259,26.8619247 Z" id="Path" fill="#E8F3F5"></path>
                    <circle id="Oval" fill="#F33F54" cx="15.125523" cy="11.2970711" r="7.34309623"></circle>
                    <path d="M18.9539749,10.6694561 L13.9330544,7.78242678 C13.4309623,7.53138075 12.8661088,7.84518828 12.8661088,8.41004184 L12.8661088,14.1841004 C12.8661088,14.748954 13.4937238,15.0627615 13.9330544,14.8117155 L18.9539749,11.9246862 C19.4560669,11.6108787 19.4560669,10.9205021 18.9539749,10.6694561 Z" id="Path" fill="#FFFFFF"></path>
                    <g transform="translate(2.510460, 21.338912)" id="Path">
                        <path d="M25.167364,1.12970711 C25.167364,1.69456067 24.665272,2.19665272 24.1004184,2.19665272 L1.19246862,2.25941423 C0.627615063,2.25941423 0.125523013,1.75732218 0.125523013,1.19246862 C0.125523013,0.627615063 0.627615063,0.125523013 1.19246862,0.125523013 L24.1004184,0.0627615063 C24.665272,0.0627615063 25.167364,0.50209205 25.167364,1.12970711 Z" fill="#CAE2E9"></path>
                        <path d="M11.6736402,0.0627615063 L11.6736402,2.19665272 L1.19246862,2.19665272 C0.627615063,2.19665272 0.125523013,1.69456067 0.125523013,1.12970711 C0.125523013,0.564853556 0.627615063,0.0627615063 1.19246862,0.0627615063 L11.6736402,0.0627615063 Z" fill="#F33F54"></path>
                    </g>
                </g>
                <g id="Group" transform="translate(207.740586, 61.506276)">
                    <g transform="translate(48.953975, 42.050209)" id="Path">
                        <path d="M6.90376569,16.5690377 C5.83682008,16.6317992 1.94560669,15.3138075 1.56903766,15 C0.941422594,14.5606695 1.19246862,14.3096234 1.19246862,14.3096234 C0.50209205,13.8702929 0.690376569,13.4309623 0.690376569,13.4309623 C1.66533454e-16,12.7405858 1.06694561,12.7405858 1.06694561,12.7405858 C0.564853556,11.6108787 2.57322176,12.1757322 3.13807531,12.3640167 C3.45188285,12.4895397 4.83263598,12.8033473 4.83263598,12.8033473 C4.83263598,12.8033473 4.83263598,12.4267782 4.58158996,12.1129707 C4.33054393,11.8619247 3.76569038,11.5481172 3.70292887,10.9205021 C3.64016736,10.5439331 5.64853556,11.7364017 6.27615063,12.4267782 C6.77824268,12.9916318 7.40585774,14.4979079 7.40585774,14.4979079 L13.6192469,14.748954 L14.1841004,18.0125523 L6.90376569,16.5690377 Z" fill="#F9C5B3"></path>
                        <path d="M19.6443515,4.20502092 C19.2050209,6.9665272 17.5732218,11.7364017 16.7573222,12.7405858 C15.8786611,13.8075314 12.9916318,14.1841004 12.9916318,14.1841004 L11.8619247,18.6401674 C11.8619247,18.6401674 17.6987448,18.8284519 19.2677824,17.8242678 C21.7154812,16.2552301 26.2970711,10.41841 27.0502092,5.64853556 C27.5523013,2.38493724 24.665272,-0.50209205 22.2803347,0.439330544 C20.7112971,1.12970711 19.7698745,3.45188285 19.6443515,4.20502092 Z" fill="#8FA8BB"></path>
                        <path d="M14.1841004,13.3682008 C14.1841004,13.3682008 12.4267782,17.0711297 12.6778243,19.2677824 C12.6778243,19.2677824 11.5481172,19.4560669 10.9832636,19.0794979 C10.9832636,19.0794979 11.7991632,14.1213389 12.6778243,13.0543933 C12.6778243,13.0543933 13.3054393,12.8661088 14.1841004,13.3682008 Z" fill="#8FA8BB"></path>
                    </g>
                    <path d="M62.4476987,124.769874 C62.4476987,124.769874 63.7656904,125.39749 65.8995816,125.334728 L65.8368201,128.974895 C65.8368201,128.974895 64.3305439,129.225941 63.3263598,129.037657 L62.9497908,128.096234 L62.1338912,129.100418 C62.1338912,129.100418 57.3640167,129.790795 54.916318,129.60251 C54.916318,129.60251 54.665272,128.535565 55.7949791,128.033473 C56.9874477,127.531381 59.623431,126.841004 60.376569,126.338912 C61.1297071,125.83682 62.4476987,124.769874 62.4476987,124.769874 Z" id="Path" fill="#291A6D"></path>
                    <path d="M65.8995816,125.334728 L66.4644351,121.631799 L62.8242678,120.878661 L62.4476987,124.769874 C62.3849372,125.460251 65.7740586,125.899582 65.8995816,125.334728 Z" id="Path" fill="#F9C5B3"></path>
                    <path d="M86.4853556,121.506276 C86.4853556,121.506276 87.9288703,121.129707 89.4979079,119.811715 L91.7573222,122.698745 C91.7573222,122.698745 90.7531381,123.828452 89.874477,124.267782 L88.9958159,123.76569 L88.9958159,125.020921 C88.9958159,125.020921 85.7322176,128.535565 83.6610879,129.916318 C83.6610879,129.916318 82.7824268,129.288703 83.4100418,128.158996 C84.0376569,127.029289 85.6694561,124.832636 85.9205021,123.953975 C86.1087866,123.075314 86.4853556,121.506276 86.4853556,121.506276 Z" id="Path" fill="#291A6D"></path>
                    <path d="M89.5606695,119.748954 L87.6778243,116.485356 L84.3514644,118.179916 L86.4853556,121.506276 C86.8619247,122.07113 89.748954,120.251046 89.5606695,119.748954 Z" id="Path" fill="#F9C5B3"></path>
                    <path d="M64.1422594,73.3054393 C64.1422594,73.3054393 62.4476987,91.3179916 61.5690377,96.7154812 C60.6903766,102.050209 61.4435146,122.824268 61.4435146,122.824268 L67.5313808,124.079498 L71.0460251,102.050209 C71.2970711,100.41841 71.8619247,98.9121339 72.7405858,97.5313808 C76.3179916,92.0711297 85.5439331,76.6317992 81.5899582,69.1631799 C76.7573222,60 64.1422594,73.3054393 64.1422594,73.3054393 Z" id="Path" fill="#161052"></path>
                    <path d="M69.3514644,69.9790795 C69.3514644,69.9790795 74.1841004,96.5899582 75.1882845,100.732218 C76.2552301,105.062762 84.3514644,121.192469 84.3514644,121.192469 L89.5606695,117.364017 C89.5606695,117.364017 84.9790795,103.995816 84.2259414,102.050209 C83.4728033,100.104603 86.1715481,83.0962343 86.3598326,74.9372385 C86.5481172,66.7154812 69.3514644,69.9790795 69.3514644,69.9790795 Z" id="Path" fill="#291A6D"></path>
                    <path d="M79.3305439,42.1129707 C77.1338912,39.6025105 72.3640167,38.4728033 69.539749,41.6108787 C65.6485356,45.9414226 63.9539749,68.5983264 64.1422594,74.2468619 C64.1422594,74.2468619 79.2050209,74.5606695 86.3598326,73.6192469 C86.2970711,73.6192469 83.3472803,46.7573222 79.3305439,42.1129707 Z" id="Path" fill="#E8F3F5"></path>
                    <path d="M68.4100418,29.2468619 C68.3472803,29.3723849 68.2217573,29.623431 68.0962343,29.9372385 C67.8451883,30.5020921 67.3430962,30.8786611 66.7782427,31.1924686 C66.7154812,31.2552301 66.6527197,31.2552301 66.6527197,31.3179916 C66.5899582,31.4435146 66.7782427,31.7573222 67.0292887,32.0083682 C67.3430962,32.3849372 67.4686192,32.8870293 67.3430962,33.3263598 C67.0920502,34.2677824 66.8410042,35.7112971 67.2803347,36.0251046 C67.9707113,36.4644351 70.167364,37.2175732 70.167364,37.2175732 L70.7949791,40.9205021 C70.7949791,40.9205021 71.6108787,42.1129707 75.0627615,41.3598326 C76.2552301,41.1087866 76.6945607,40.6066946 76.6945607,40.6066946 L76.2552301,36.9665272 C76.2552301,36.9665272 79.58159,33.3891213 77.8870293,29.9372385 C76.1297071,26.4853556 70.041841,25.6066946 68.4100418,29.2468619 Z" id="Path" fill="#F9C5B3"></path>
                    <g>
                        <circle id="Oval" fill="#FFFFFF" opacity="0.53" cx="23.5983264" cy="23.4100418" r="18.9539749"></circle>
                        <g>
                            <rect id="Rectangle" fill="#EDA800" transform="translate(39.999813, 41.671974) rotate(-41.984231) translate(-39.999813, -41.671974) " x="37.6463479" y="36.776767" width="4.70692963" height="9.79041362"></rect>
                            <path d="M74.3096234,80.1464435 L74.3096234,80.1464435 C72.3640167,81.9037657 69.0376569,81.3389121 67.0292887,78.9539749 L39.665272,46.0041841 L44.3096234,41.7991632 L73.8702929,72.7405858 C76.0669456,75 76.2552301,78.3891213 74.3096234,80.1464435 Z" id="Path" fill="#F9B502"></path>
                            <path d="M0.941422594,28.9330544 C1.82008368,32.5732218 3.57740586,36.0251046 6.27615063,39.0376569 C14.874477,48.6401674 29.6861925,49.3933054 39.2259414,40.7949791 C48.8284519,32.1966527 49.58159,17.3849372 40.9832636,7.84518828 C39.6025105,6.27615063 38.0334728,4.958159 36.3389121,3.89121339 C27.6778243,-1.75732218 16.0669456,-1.12970711 8.0334728,6.08786611 C1.38075314,11.9874477 -1.06694561,20.8995816 0.941422594,28.9330544 Z M7.90794979,29.748954 C5.33472803,23.3472803 6.84100418,15.7531381 12.3012552,10.8577406 C18.9539749,4.83263598 29.1213389,5.14644351 35.460251,11.3598326 C35.7112971,11.6108787 35.9623431,11.8619247 36.2133891,12.1129707 C42.4267782,19.0794979 41.9246862,29.748954 34.958159,36.0251046 C27.9916318,42.2384937 17.3221757,41.7364017 11.0460251,34.7698745 C9.66527197,33.2635983 8.59832636,31.5690377 7.90794979,29.748954 Z" id="Shape" fill="#F9B502"></path>
                        </g>
                    </g>
                    <path d="M76.7573222,40.3556485 C76.7573222,40.3556485 72.8033473,42.1129707 70.5439331,40.7322176 L70.2301255,40.9832636 C70.2301255,40.9832636 73.1171548,42.8661088 77.1966527,40.6066946 C77.1966527,40.5439331 77.0083682,40.3556485 76.7573222,40.3556485 Z" id="Path" fill="#E1E7F0"></path>
                    <path d="M76.2552301,31.5062762 C75.8786611,30.5020921 73.1171548,29.2468619 70.9205021,29.0585774 C68.7238494,28.8702929 65.3974895,26.5481172 66.4016736,25.41841 C67.4058577,24.3514644 69.790795,23.9748954 70.4811715,24.2259414 C71.1715481,24.4142259 70.1046025,22.6569038 71.2343096,22.5313808 C72.3640167,22.4058577 79.0794979,24.0376569 79.707113,27.6778243 C80.460251,31.8828452 78.6401674,35.5230126 76.2552301,36.9037657 L76.3179916,35.1464435 C76.3179916,35.1464435 78.3263598,34.2050209 78.0753138,33.0753138 C77.8870293,32.3849372 77.0083682,32.6359833 76.5690377,33.0753138 C76.5690377,33.0753138 76.3807531,31.8828452 76.2552301,31.5062762 Z" id="Path" fill="#310078"></path>
                    <g transform="translate(53.974895, 41.422594)" id="Path">
                        <path d="M7.28033473,20.3974895 C6.27615063,20.7112971 2.13389121,20.334728 1.75732218,20.1464435 C1.06694561,19.832636 1.25523013,19.58159 1.25523013,19.58159 C0.50209205,19.3305439 0.564853556,18.8912134 0.564853556,18.8912134 C-0.251046025,18.3891213 0.753138075,18.1380753 0.753138075,18.1380753 C-1.38777878e-16,17.1966527 2.07112971,17.1966527 2.63598326,17.3221757 C2.94979079,17.3849372 4.33054393,17.3221757 4.33054393,17.3221757 C4.33054393,17.3221757 4.26778243,16.9456067 3.89121339,16.6945607 C3.57740586,16.5062762 2.94979079,16.3179916 2.76150628,15.7531381 C2.63598326,15.376569 4.83263598,16.0669456 5.64853556,16.5690377 C6.27615063,16.9456067 7.28033473,18.3263598 7.28033473,18.3263598 L13.3682008,17.0083682 L14.6861925,20.083682 L7.28033473,20.3974895 Z" fill="#F9C5B3"></path>
                        <path d="M16.6317992,5.33472803 C16.8828452,8.09623431 16.5062762,13.1799163 15.8786611,14.3096234 C15.251046,15.5648536 12.6150628,16.6317992 12.6150628,16.6317992 L12.6150628,21.2133891 C12.6150628,21.2133891 18.3263598,19.958159 19.58159,18.6401674 C21.5899582,16.5690377 24.6025105,9.72803347 24.2259414,4.958159 C23.9121339,1.69456067 20.3974895,-0.439330544 18.3263598,1.0041841 C16.8828452,2.13389121 16.5690377,4.58158996 16.6317992,5.33472803 Z" fill="#8FA8BB"></path>
                        <path d="M13.5564854,15.5648536 C13.5564854,15.5648536 12.7405858,19.58159 13.4937238,21.6527197 C13.4937238,21.6527197 12.4267782,22.1548117 11.7991632,21.9037657 C11.7991632,21.9037657 11.3598326,16.8828452 11.9874477,15.6276151 C11.9874477,15.6276151 12.5523013,15.3138075 13.5564854,15.5648536 Z" fill="#8FA8BB"></path>
                    </g>
                </g>
                <g id="Group" transform="translate(52.092050, 144.351464)">
                    <path d="M43.3054393,8.0334728 L21.5271967,8.0334728 C20.7740586,8.0334728 20.083682,7.59414226 19.7698745,6.9665272 L17.0711297,1.50627615 C16.7573222,0.878661088 16.1297071,0.439330544 15.376569,0.439330544 L3.57740586,0.439330544 C3.0125523,0.439330544 2.51046025,0.690376569 2.19665272,1.06694561 L0.941422594,2.32217573 L1.63179916,2.88702929 L1.63179916,9.85355649 L1.63179916,9.85355649 C1.63179916,9.91631799 1.63179916,9.91631799 1.63179916,9.9790795 L1.63179916,33.5774059 C1.63179916,34.6443515 2.44769874,35.460251 3.51464435,35.460251 L43.3054393,35.460251 C44.3723849,35.460251 45.1882845,34.6443515 45.1882845,33.5774059 L45.1882845,9.9790795 C45.1882845,8.84937238 44.3096234,8.0334728 43.3054393,8.0334728 Z" id="Path" fill="#EDA800"></path>
                    <path d="M41.9874477,9.35146444 L20.209205,9.35146444 C19.4560669,9.35146444 18.7656904,8.91213389 18.4518828,8.28451883 L15.7531381,2.82426778 C15.4393305,2.19665272 14.748954,1.75732218 14.0585774,1.75732218 L2.25941423,1.75732218 C1.19246862,1.75732218 0.376569038,2.57322176 0.376569038,3.64016736 L0.376569038,11.1087866 L0.376569038,11.1087866 C0.376569038,11.1715481 0.376569038,11.1715481 0.376569038,11.2343096 L0.376569038,34.832636 C0.376569038,35.8995816 1.19246862,36.7154812 2.25941423,36.7154812 L41.9246862,36.7154812 C42.9916318,36.7154812 43.8075314,35.8995816 43.8075314,34.832636 L43.8075314,11.2343096 C43.8702929,10.167364 43.0543933,9.35146444 41.9874477,9.35146444 Z" id="Path" fill="#F9B502"></path>
                    <path d="M40.167364,32.7615063 L4.26778243,32.7615063 C3.51464435,32.7615063 2.88702929,32.1338912 2.88702929,31.3807531 L2.88702929,12.4895397 C2.88702929,11.7364017 3.51464435,11.1087866 4.26778243,11.1087866 L40.167364,11.1087866 C40.9205021,11.1087866 41.5481172,11.7364017 41.5481172,12.4895397 L41.5481172,31.3807531 C41.5481172,32.1338912 40.9205021,32.7615063 40.167364,32.7615063 Z" id="Path" fill="#FFFFFF"></path>
                    <path d="M45.1882845,12.1757322 C45.1882845,11.1087866 44.3723849,10.292887 43.3054393,10.292887 L31.5062762,10.292887 C31.0041841,10.292887 30.5648536,10.4811715 30.1882845,10.8577406 L30.1882845,10.8577406 L29.0585774,12.1129707 L29.4351464,12.2384937 L27.1757322,16.8828452 C26.8619247,17.5732218 26.1715481,17.9497908 25.41841,17.9497908 L3.64016736,17.9497908 C3.07531381,17.9497908 2.57322176,18.2008368 2.25941423,18.5774059 L1.0041841,19.8953975 L1.82008368,19.958159 L1.82008368,43.4937238 C1.82008368,44.5606695 2.63598326,45.376569 3.70292887,45.376569 L43.2426778,45.376569 L43.6820084,45.8786611 L44.8117155,44.6861925 C45.125523,44.3723849 45.251046,43.9330544 45.251046,43.4309623 L45.251046,19.832636 C45.251046,19.7698745 45.251046,19.7698745 45.251046,19.707113 L45.251046,19.707113 L45.251046,12.1757322 L45.1882845,12.1757322 Z" id="Path" fill="#EDA800"></path>
                    <path d="M43.8702929,13.4937238 C43.8702929,12.4267782 43.0543933,11.6108787 41.9874477,11.6108787 L30.1882845,11.6108787 C29.4979079,11.6108787 28.8075314,12.0502092 28.4937238,12.6778243 L25.7949791,18.1380753 C25.4811715,18.8284519 24.790795,19.2050209 24.0376569,19.2050209 L2.25941423,19.2050209 C1.19246862,19.2050209 0.376569038,20.0209205 0.376569038,21.0878661 L0.376569038,44.6861925 C0.376569038,45.7531381 1.19246862,46.5690377 2.25941423,46.5690377 L41.9246862,46.5690377 C42.9916318,46.5690377 43.8075314,45.7531381 43.8075314,44.6861925 L43.8075314,21.0878661 C43.8075314,21.0251046 43.8075314,21.0251046 43.8075314,20.9623431 L43.8075314,20.9623431 L43.8075314,13.4937238 L43.8702929,13.4937238 Z" id="Path" fill="#F9CE52"></path>
                    <g transform="translate(5.020921, 12.552301)" fill="#B8D0D7" id="Path">
                        <path d="M7.34309623,1.25523013 L0.627615063,1.25523013 C0.313807531,1.25523013 0.0627615063,1.0041841 0.0627615063,0.690376569 L0.0627615063,0.690376569 C0.0627615063,0.376569038 0.313807531,0.125523013 0.627615063,0.125523013 L7.28033473,0.125523013 C7.59414226,0.125523013 7.84518828,0.376569038 7.84518828,0.690376569 L7.84518828,0.690376569 C7.90794979,0.941422594 7.65690377,1.25523013 7.34309623,1.25523013 Z"></path>
                        <path d="M12.6778243,3.13807531 L9.72803347,3.13807531 C9.41422594,3.13807531 9.16317992,2.88702929 9.16317992,2.57322176 L9.16317992,2.57322176 C9.16317992,2.25941423 9.41422594,2.0083682 9.72803347,2.0083682 L12.6778243,2.0083682 C12.9916318,2.0083682 13.2426778,2.25941423 13.2426778,2.57322176 L13.2426778,2.57322176 C13.2426778,2.88702929 12.9916318,3.13807531 12.6778243,3.13807531 Z"></path>
                        <path d="M13.4937238,1.25523013 L9.41422594,1.25523013 C9.10041841,1.25523013 8.84937238,1.0041841 8.84937238,0.690376569 L8.84937238,0.690376569 C8.84937238,0.376569038 9.10041841,0.125523013 9.41422594,0.125523013 L13.4937238,0.125523013 C13.8075314,0.125523013 14.0585774,0.376569038 14.0585774,0.690376569 L14.0585774,0.690376569 C14.0585774,0.941422594 13.8075314,1.25523013 13.4937238,1.25523013 Z"></path>
                        <path d="M4.76987448,3.13807531 L0.627615063,3.13807531 C0.313807531,3.13807531 0.0627615063,2.88702929 0.0627615063,2.57322176 L0.0627615063,2.57322176 C0.0627615063,2.25941423 0.313807531,2.0083682 0.627615063,2.0083682 L4.70711297,2.0083682 C5.0209205,2.0083682 5.27196653,2.25941423 5.27196653,2.57322176 L5.27196653,2.57322176 C5.33472803,2.88702929 5.08368201,3.13807531 4.76987448,3.13807531 Z"></path>
                        <path d="M16.5690377,1.25523013 L15.5020921,1.25523013 C15.1882845,1.25523013 14.9372385,1.0041841 14.9372385,0.690376569 L14.9372385,0.690376569 C14.9372385,0.376569038 15.1882845,0.125523013 15.5020921,0.125523013 L16.5690377,0.125523013 C16.8828452,0.125523013 17.1338912,0.376569038 17.1338912,0.690376569 L17.1338912,0.690376569 C17.1966527,0.941422594 16.9456067,1.25523013 16.5690377,1.25523013 Z"></path>
                        <path d="M7.78242678,3.13807531 L6.71548117,3.13807531 C6.40167364,3.13807531 6.15062762,2.88702929 6.15062762,2.57322176 L6.15062762,2.57322176 C6.15062762,2.25941423 6.40167364,2.0083682 6.71548117,2.0083682 L7.78242678,2.0083682 C8.09623431,2.0083682 8.34728033,2.25941423 8.34728033,2.57322176 L8.34728033,2.57322176 C8.34728033,2.88702929 8.09623431,3.13807531 7.78242678,3.13807531 Z"></path>
                    </g>
                </g>
                <g id="Group" transform="translate(32.635983, 133.054393)">
                    <path d="M24.2259414,1.75732218 L30.3138075,15.6276151 C30.7531381,16.6317992 30.3138075,17.7615063 29.3096234,18.2008368 L9.16317992,27.1129707 C8.15899582,27.5523013 7.0292887,27.1129707 6.58995816,26.1087866 L0.50209205,12.2384937 C0.0627615063,11.2343096 0.50209205,10.1046025 1.50627615,9.66527197 L21.6527197,0.753138075 C22.5941423,0.313807531 23.7866109,0.753138075 24.2259414,1.75732218 Z" id="Path" fill="#B8D0D7"></path>
                    <path d="M27.6778243,9.60251046 L30.8158996,16.7573222 C31.0041841,17.1338912 30.8158996,17.5104603 30.4393305,17.6987448 L8.0334728,27.6150628 C7.65690377,27.8033473 7.28033473,27.6150628 7.09205021,27.2384937 L6.52719665,25.9205021 L9.16317992,17.8242678 C9.28870293,17.4476987 9.72803347,17.2594142 10.1046025,17.3849372 L15.7531381,19.707113 C16.1297071,19.832636 16.5690377,19.6443515 16.6945607,19.2677824 L20.8368201,7.0292887 C20.9623431,6.58995816 21.4644351,6.40167364 21.8410042,6.65271967 L27.6778243,9.60251046 Z" id="Path" fill="#E8F3F5"></path>
                    <circle id="Oval" fill="#E8F3F5" cx="7.0292887" cy="12.4895397" r="2.57322176"></circle>
                </g>
                <g id="Group" transform="translate(0.000000, 97.280335)">
                    <g transform="translate(0.627615, 4.393305)" id="Path">
                        <path d="M43.4309623,35.9623431 C43.4309623,36.0251046 43.5564854,36.7782427 43.0543933,36.7782427 C43.0543933,36.7782427 43.0543933,36.8410042 42.6778243,36.7154812 C42.6778243,36.7154812 42.3012552,37.2175732 41.7364017,36.9037657 C41.7364017,36.9037657 39.6025105,36.2133891 39.6025105,36.2133891 C39.0376569,35.8995816 37.6569038,35.334728 37.1548117,33.7656904 C37.1548117,33.7656904 27.4267782,28.7447699 26.5481172,27.3640167 C25.7322176,25.9832636 25.41841,19.3305439 25.41841,19.3305439 L29.623431,18.2635983 C29.623431,18.2635983 29.3096234,24.1631799 30.5020921,25.41841 C31.6317992,26.6736402 38.0962343,32.0083682 38.0962343,32.0083682 C38.0962343,32.0083682 39.790795,31.3807531 40.3556485,31.5062762 C40.6066946,31.5690377 42.6778243,32.3849372 42.5523013,32.8870293 C42.4895397,33.2008368 41.9246862,33.1380753 41.6108787,33.0753138 C41.2343096,32.9497908 40.2301255,32.5732218 40.167364,32.5732218 C40.1046025,32.5732218 40.167364,32.6359833 40.2301255,32.7615063 C40.5439331,33.0753138 41.6736402,33.8284519 42.3012552,34.3305439 C43.1171548,34.958159 43.6820084,35.5857741 43.7447699,35.7740586 C43.8702929,35.9623431 43.5564854,36.0251046 43.4309623,35.9623431 Z" fill="#F0C6BB"></path>
                        <path d="M15,87.6778243 C15,87.6778243 15.0627615,88.2426778 14.874477,88.6820084 C14.748954,88.9958159 10.5439331,89.8117155 6.58995816,89.0585774 C6.27615063,88.9958159 6.0251046,88.6820084 6.0251046,88.3054393 L6.08786611,87.8661088 L15,87.6778243 Z" fill="#F33F54"></path>
                        <path d="M15,87.6150628 C14.748954,86.8619247 10.7322176,86.2970711 9.35146444,86.2343096 C7.78242678,86.1715481 9.22594142,85.167364 7.9707113,85.292887 C6.71548117,85.41841 6.71548117,85.41841 6.71548117,85.41841 C6.71548117,85.41841 6.21338912,86.2970711 6.15062762,87.6150628 C6.15062762,87.6778243 6.15062762,87.8033473 6.15062762,87.8661088 C6.15062762,88.8075314 8.84937238,88.6820084 11.2970711,88.6820084 C12.9288703,88.6820084 14.2468619,88.6192469 15,87.8661088 C15,87.8033473 15,87.7405858 15,87.6150628 Z" fill="#F33F54"></path>
                        <path d="M6.33891213,81.9665272 L6.33891213,86.1715481 C6.33891213,86.1715481 10.3556485,86.9874477 9.47698745,86.1715481 L9.79079498,82.2803347 L6.33891213,81.9665272 Z" fill="#F2BEAC"></path>
                        <path d="M28.4937238,87.7405858 C28.4937238,87.7405858 28.6192469,88.3054393 28.4937238,88.7447699 C28.3682008,89.0585774 24.2887029,90.251046 20.2719665,89.874477 C19.8953975,89.874477 19.6443515,89.5606695 19.6443515,89.1841004 L19.6443515,88.7447699 L28.4937238,87.7405858 Z" fill="#F33F54"></path>
                        <path d="M28.4937238,87.6778243 C28.1799163,86.9246862 24.1631799,86.7364017 22.7196653,86.7991632 C21.1506276,86.8619247 22.5313808,85.7322176 21.2133891,86.0460251 C19.958159,86.2970711 19.958159,86.2970711 19.958159,86.2970711 C19.958159,86.2970711 19.5188285,87.1757322 19.58159,88.5564854 C19.58159,88.6192469 19.58159,88.7447699 19.58159,88.8075314 C19.6443515,89.6861925 22.3430962,89.3723849 24.790795,89.1213389 C26.4225941,88.9330544 27.7405858,88.7447699 28.3682008,87.9916318 C28.4937238,87.8661088 28.5564854,87.7405858 28.4937238,87.6778243 Z" fill="#F33F54"></path>
                        <path d="M19.3305439,82.8451883 L19.707113,87.0502092 C19.707113,87.0502092 23.7866109,87.4895397 22.8451883,86.7991632 L22.7824268,82.9079498 L19.3305439,82.8451883 Z" fill="#F2BEAC"></path>
                        <path d="M21.8410042,35.334728 C21.8410042,35.334728 8.09623431,26.7364017 1.88284519,32.5732218 C-3.26359833,42.3012552 5.14644351,59.623431 5.20920502,66.3389121 C5.27196653,71.7991632 5.33472803,77.0083682 5.64853556,84.2887029 L10.041841,84.1631799 C10.041841,84.1631799 11.4853556,76.9456067 12.2384937,66.7782427 C12.5523013,62.2594142 11.7991632,55.7949791 11.1715481,48.5146444 L12.3640167,48.5774059 C12.3640167,48.5774059 16.1297071,59.748954 16.9456067,65.6485356 C17.6987448,71.2970711 18.3263598,77.8870293 18.7029289,84.2259414 L23.6610879,84.0376569 C23.6610879,84.0376569 24.539749,71.6736402 24.4769874,65.334728 C24.4142259,56.9874477 24.4769874,42.1129707 21.8410042,35.334728 Z" fill="#291A6D"></path>
                        <path d="M41.3598326,4.51882845 C41.3598326,4.51882845 40.6694561,6.33891213 40.2301255,7.09205021 C39.790795,7.84518828 40.41841,8.53556485 40.292887,8.78661088 C40.2301255,9.0376569 39.4142259,9.16317992 39.4142259,9.16317992 C39.4142259,9.16317992 38.7238494,11.7991632 37.7196653,11.9246862 C36.6527197,12.1129707 34.832636,10.6066946 34.832636,10.6066946 L32.9497908,12.9288703 C32.9497908,12.9288703 29.5606695,12.3012552 28.4309623,8.78661088 L30.1882845,6.58995816 C30.1882845,6.58995816 31.5690377,1.38075314 34.958159,0.376569038 C38.3472803,-0.627615063 41.3598326,4.51882845 41.3598326,4.51882845 Z" fill="#F3CCBE"></path>
                    </g>
                    <path d="M54.539749,45 C54.539749,45.0627615 54.8535565,45.7531381 54.4142259,45.8786611 C54.4142259,45.8786611 54.4142259,45.9414226 54.0376569,45.8786611 C54.0376569,45.8786611 53.7866109,46.4435146 53.1589958,46.3179916 C53.1589958,46.3179916 50.8995816,46.2552301 50.8995816,46.2552301 C50.2719665,46.1297071 48.7656904,45.9414226 47.8870293,44.5606695 C47.8870293,44.5606695 37.1548117,42.4267782 35.9623431,41.2970711 C34.7698745,40.167364 32.6987448,33.8912134 32.6987448,33.8912134 L36.4016736,31.6945607 C36.4016736,31.6945607 37.7196653,37.4686192 39.1631799,38.3472803 C40.6066946,39.2259414 48.2635983,42.5523013 48.2635983,42.5523013 C48.2635983,42.5523013 49.7698745,41.4853556 50.334728,41.4853556 C50.5857741,41.4853556 52.8451883,41.6736402 52.9079498,42.1129707 C52.9079498,42.4267782 52.5941423,42.4895397 52.2803347,42.5523013 C51.7154812,42.6778243 50.5857741,42.4895397 50.5230126,42.5523013 C50.460251,42.6150628 50.5230126,42.6150628 50.6485356,42.6778243 C51.0251046,42.9288703 52.2803347,43.3054393 53.0334728,43.6192469 C53.9748954,43.9958159 54.7280335,44.4979079 54.790795,44.623431 C54.916318,44.874477 54.665272,45 54.539749,45 Z" id="Path" fill="#F3CCBE"></path>
                    <path d="M32.3849372,36.8410042 C34.0794979,34.4560669 38.4728033,32.6987448 38.4728033,32.6987448 C36.7782427,29.874477 38.5355649,20.334728 32.1338912,15.1882845 C31.2552301,14.4351464 28.3682008,12.0502092 25.5439331,12.9916318 C10.167364,18.2008368 0.50209205,38.2845188 0.50209205,38.2845188 C8.41004184,43.3682008 24.665272,45.251046 24.665272,45.251046 C25.041841,43.8075314 22.7824268,39.665272 24.2259414,36.6527197 C25.4811715,34.1422594 30.125523,33.2008368 31.1924686,29.623431 C31.1297071,32.8242678 32.3849372,36.8410042 32.3849372,36.8410042 Z" id="Path" fill="#F33F54"></path>
                    <path d="M28.3682008,1.50627615 C31.3807531,1.75732218 33.2635983,2.0083682 34.707113,0.878661088 C37.0920502,-0.878661088 39.8535565,0.690376569 41.6736402,2.13389121 C43.0543933,3.26359833 43.8075314,4.89539749 45,5.89958159 C46.1924686,6.90376569 47.3849372,5.39748954 47.5104603,6.0251046 C47.6359833,6.65271967 47.0083682,8.09623431 44.748954,8.78661088 C43.4309623,9.16317992 42.5523013,8.84937238 41.9874477,8.53556485 C41.2970711,8.91213389 40.4811715,9.28870293 39.539749,9.28870293 C37.2803347,9.28870293 36.1506276,10.6066946 36.4016736,12.0502092 C36.6527197,13.4937238 35.5230126,14.0585774 34.3933054,14.4979079 C33.2008368,14.9372385 33.5146444,19.958159 31.0041841,20.5857741 C28.4937238,21.2133891 25.9205021,20.460251 24.539749,22.4058577 C23.1589958,24.3514644 16.8828452,25.5439331 14.748954,22.0920502 C12.6150628,18.6401674 10.9832636,11.2970711 15.6276151,9.72803347 C20.209205,8.22175732 22.2175732,6.84100418 23.0334728,5.27196653 C23.7238494,3.76569038 25.41841,1.31799163 28.3682008,1.50627615 Z" id="Path" fill="#291A6D"></path>
                </g>
                <g id="Group" transform="translate(59.623431, 23.221757)" fill="#FFFFFF">
                    <path d="M31.2552301,0.439330544 C33.5146444,0.439330544 35.3974895,2.32217573 35.3974895,4.58158996 L35.3974895,4.58158996 L35.3974895,18.7029289 C35.3974895,20.9623431 33.5774059,22.8451883 31.2552301,22.8451883 L31.2552301,22.8451883 L27.1757322,22.8451883 L27.3640167,28.3682008 C27.3640167,28.9330544 26.7364017,29.1841004 26.3598326,28.8075314 L26.3598326,28.8075314 L21.2133891,22.8451883 L4.14225941,22.8451883 C1.88284519,22.8451883 2.16360263e-12,21.0251046 2.16360263e-12,18.7029289 L2.16360263e-12,18.7029289 L2.16360263e-12,4.58158996 C2.16360263e-12,2.32217573 1.82008368,0.439330544 4.14225941,0.439330544 L4.14225941,0.439330544 Z M7.71966527,8.78661088 C6.12520302,8.78661088 4.83263598,10.0791779 4.83263598,11.6736402 C4.83263598,13.2681024 6.12520302,14.5606695 7.71966527,14.5606695 C9.31412752,14.5606695 10.6066946,13.2681024 10.6066946,11.6736402 C10.6066946,10.0791779 9.31412752,8.78661088 7.71966527,8.78661088 Z M17.6987448,8.78661088 C16.1042825,8.78661088 14.8117155,10.0791779 14.8117155,11.6736402 C14.8117155,13.2681024 16.1042825,14.5606695 17.6987448,14.5606695 C19.293207,14.5606695 20.5857741,13.2681024 20.5857741,11.6736402 C20.5857741,10.0791779 19.293207,8.78661088 17.6987448,8.78661088 Z M27.6150628,8.78661088 C26.0206005,8.78661088 24.7280335,10.0791779 24.7280335,11.6736402 C24.7280335,13.2681024 26.0206005,14.5606695 27.6150628,14.5606695 C29.209525,14.5606695 30.5020921,13.2681024 30.5020921,11.6736402 C30.5020921,10.0791779 29.209525,8.78661088 27.6150628,8.78661088 Z" id="Combined-Shape"></path>
                </g>
                <path d="M132.740586,0.125523013 L108.640167,0.125523013 C106.569038,0.125523013 104.937238,1.75732218 104.937238,3.82845188 L104.937238,16.3807531 C104.937238,18.4518828 106.569038,20.083682 108.640167,20.083682 L122.384937,20.083682 L127.217573,25.9832636 C127.594142,26.3598326 128.221757,26.1087866 128.221757,25.5439331 L128.033473,20.083682 L132.677824,20.083682 C134.748954,20.083682 136.380753,18.4518828 136.380753,16.3807531 L136.380753,3.82845188 C136.443515,1.75732218 134.811715,0.125523013 132.740586,0.125523013 Z" id="Path" fill="#FFFFFF"></path>
                <g id="Group" transform="translate(215.899582, 134.937238)">
                    <g id="Path">
                        <path d="M22.5313808,36.4016736 C22.5313808,36.4016736 21.1506276,32.7615063 23.1589958,31.9456067 C25.4811715,31.0041841 25.41841,29.623431 25.4811715,28.3054393 C25.5439331,26.3598326 27.3640167,25.2301255 28.8702929,25.3556485 C30.125523,25.4811715 29.8117155,23.1589958 30.376569,22.1548117 C31.1924686,20.5857741 34.2050209,20.209205 34.0167364,23.2217573 C33.9539749,24.916318 31.1297071,25.041841 31.4435146,26.9246862 C31.7573222,28.8075314 30.6276151,30.9414226 29.3723849,31.1297071 C26.6736402,31.5062762 28.6192469,34.58159 27.3012552,35.9623431 C25.9832636,37.4686192 24.0376569,37.3430962 22.5313808,36.4016736 Z" fill="#41C077"></path>
                        <g>
                            <path d="M14.4979079,37.7824268 C14.4979079,37.7824268 4.89539749,35.1464435 5.58577406,30.4393305 C6.27615063,25.7322176 7.21757322,24.0376569 3.89121339,22.5941423 C0.564853556,21.1506276 -0.376569038,16.6945607 1.63179916,13.9330544 C3.20083682,11.7364017 2.0083682,8.47280335 1.44351464,6.15062762 C0.753138075,3.70292887 3.07531381,-2.76150628 9.66527197,1.75732218 C13.4309623,4.33054393 9.66527197,8.91213389 14.9372385,11.0460251 C20.209205,13.1799163 19.3305439,19.2050209 17.6359833,21.7154812 C16.2552301,23.7866109 22.5313808,25.292887 22.7824268,29.4979079 C23.0962343,33.6401674 20.1464435,36.5899582 14.4979079,37.7824268 Z" fill="#41C077"></path>
                            <g transform="translate(5.020921, 6.903766)" fill="#FFFFFF">
                                <path d="M10.9832636,29.3096234 C10.8577406,29.3096234 10.6694561,29.1841004 10.6694561,29.0585774 C9.22594142,21.2133891 1.63179916,1.06694561 1.56903766,0.815899582 C1.50627615,0.627615063 1.56903766,0.50209205 1.75732218,0.439330544 C1.94560669,0.376569038 2.07112971,0.439330544 2.13389121,0.627615063 C2.19665272,0.815899582 9.79079498,21.0251046 11.2970711,28.9330544 C11.2970711,29.0585774 11.1715481,29.2468619 10.9832636,29.3096234 C10.9832636,29.3096234 10.9832636,29.3096234 10.9832636,29.3096234 Z"></path>
                                <path d="M6.08786611,12.8661088 C6.0251046,12.8661088 5.89958159,12.8661088 5.83682008,12.7405858 C4.20502092,10.8577406 0.439330544,10.6066946 0.439330544,10.6066946 C0.251046025,10.6066946 0.125523013,10.41841 0.125523013,10.292887 C0.125523013,10.1046025 0.313807531,9.9790795 0.439330544,9.9790795 C0.627615063,9.9790795 4.51882845,10.292887 6.27615063,12.3012552 C6.40167364,12.4267782 6.40167364,12.6150628 6.27615063,12.7405858 C6.21338912,12.8661088 6.15062762,12.8661088 6.08786611,12.8661088 Z"></path>
                                <path d="M7.59414226,17.3221757 C7.59414226,17.3221757 7.59414226,17.3221757 7.59414226,17.3221757 C7.40585774,17.3221757 7.28033473,17.1966527 7.28033473,17.0083682 C7.15481172,14.1213389 9.22594142,8.72384937 9.28870293,8.53556485 C9.35146444,8.34728033 9.53974895,8.28451883 9.66527197,8.34728033 C9.85355649,8.41004184 9.91631799,8.59832636 9.85355649,8.72384937 C9.85355649,8.78661088 7.71966527,14.1841004 7.84518828,16.9456067 C7.90794979,17.1966527 7.78242678,17.3221757 7.59414226,17.3221757 Z"></path>
                                <path d="M9.47698745,23.2845188 C9.35146444,23.2845188 9.28870293,23.2217573 9.22594142,23.1589958 C7.9707113,21.2761506 3.20083682,20.7112971 3.13807531,20.7112971 C2.94979079,20.7112971 2.82426778,20.5230126 2.88702929,20.3974895 C2.88702929,20.209205 3.07531381,20.083682 3.20083682,20.1464435 C3.38912134,20.1464435 8.34728033,20.7740586 9.72803347,22.9079498 C9.85355649,23.0334728 9.79079498,23.2217573 9.66527197,23.3472803 C9.53974895,23.2845188 9.47698745,23.2845188 9.47698745,23.2845188 Z"></path>
                            </g>
                        </g>
                        <g transform="translate(15.690377, 7.531381)">
                            <path d="M3.45188285,30.4393305 C3.45188285,30.4393305 -1.06694561,26.3598326 0.564853556,22.9707113 C2.19665272,19.58159 2.25941423,17.6359833 1.19246862,15.5648536 C-0.376569038,12.4267782 -0.313807531,9.35146444 1.82008368,7.46861925 C3.57740586,5.9623431 2.69874477,5.33472803 2.69874477,3.38912134 C2.69874477,0.313807531 9.10041841,-1.94560669 11.4853556,2.94979079 C12.8033473,5.71129707 10.292887,7.15481172 11.4853556,9.35146444 C13.1799163,12.5523013 11.6108787,15.4393305 10.292887,17.1966527 C8.66108787,19.2677824 12.0502092,23.2217573 11.1087866,26.4225941 C10.1046025,29.5606695 6.84100418,30.7531381 3.45188285,30.4393305 Z" fill="#44CC7C"></path>
                            <path d="M5.33472803,28.9958159 C5.27196653,28.9958159 5.27196653,28.9958159 5.33472803,28.9958159 C5.14644351,28.9958159 5.0209205,28.9330544 5.0209205,28.7447699 C4.07949791,17.1338912 6.65271967,8.9748954 6.65271967,8.84937238 C6.71548117,8.72384937 6.84100418,8.66108787 6.9665272,8.66108787 C7.09205021,8.72384937 7.15481172,8.84937238 7.15481172,8.9748954 C7.15481172,9.0376569 4.58158996,17.1338912 5.52301255,28.6820084 C5.52301255,28.8702929 5.46025105,28.9958159 5.33472803,28.9958159 Z" fill="#FFFFFF"></path>
                            <path d="M5.77405858,14.8117155 C5.77405858,14.8117155 5.77405858,14.8117155 5.77405858,14.8117155 C5.64853556,14.8117155 5.52301255,14.748954 5.46025105,14.623431 C5.20920502,12.9288703 2.76150628,10.9205021 2.76150628,10.9205021 C2.63598326,10.8577406 2.63598326,10.6694561 2.76150628,10.5439331 C2.82426778,10.41841 3.0125523,10.41841 3.13807531,10.5439331 C3.26359833,10.6066946 5.71129707,12.6778243 6.0251046,14.5606695 C5.9623431,14.6861925 5.89958159,14.8117155 5.77405858,14.8117155 Z" fill="#FFFFFF"></path>
                            <path d="M5.33472803,18.5774059 C5.27196653,18.5774059 5.27196653,18.5774059 5.20920502,18.5774059 C5.08368201,18.5146444 5.0209205,18.3891213 5.08368201,18.2635983 C5.64853556,16.6945607 9.28870293,13.1799163 9.41422594,13.0543933 C9.53974895,12.9288703 9.66527197,12.9916318 9.79079498,13.0543933 C9.91631799,13.1799163 9.85355649,13.3054393 9.79079498,13.4309623 C9.72803347,13.4937238 6.15062762,17.0083682 5.58577406,18.4518828 C5.46025105,18.5146444 5.39748954,18.5774059 5.33472803,18.5774059 Z" fill="#FFFFFF"></path>
                            <path d="M5.14644351,26.5481172 C5.0209205,26.5481172 4.89539749,26.4853556 4.83263598,26.3598326 C4.58158996,25.41841 2.82426778,24.665272 2.19665272,24.4142259 C2.07112971,24.3514644 2.0083682,24.2259414 2.0083682,24.1004184 C2.07112971,23.9748954 2.19665272,23.9121339 2.32217573,23.9121339 C2.44769874,23.9748954 4.958159,24.790795 5.33472803,26.1715481 C5.39748954,26.4225941 5.33472803,26.5481172 5.14644351,26.5481172 C5.14644351,26.5481172 5.14644351,26.5481172 5.14644351,26.5481172 Z" fill="#FFFFFF"></path>
                            <path d="M5.20920502,24.7280335 C5.14644351,24.7280335 5.08368201,24.7280335 5.0209205,24.7280335 C4.89539749,24.665272 4.83263598,24.539749 4.89539749,24.4142259 C5.33472803,23.5983264 7.78242678,22.1548117 8.0334728,21.9665272 C8.15899582,21.9037657 8.28451883,21.9037657 8.34728033,22.0292887 C8.41004184,22.1548117 8.41004184,22.2803347 8.28451883,22.3430962 C7.59414226,22.7824268 5.64853556,24.0376569 5.33472803,24.6025105 C5.33472803,24.7280335 5.27196653,24.7280335 5.20920502,24.7280335 Z" fill="#FFFFFF"></path>
                        </g>
                    </g>
                    <path d="M11.2343096,55.7949791 L26.3598326,55.7949791 C29.5606695,52.8451883 30.9414226,48.0125523 29.3723849,43.4937238 L27.2384937,37.5313808 L10.41841,37.5313808 L8.28451883,43.4937238 C6.65271967,48.0125523 8.0334728,52.7824268 11.2343096,55.7949791 Z" id="Path" fill="#B8D0D7"></path>
                    <path d="M27.5523013,38.2845188 L9.9790795,38.2845188 C9.53974895,38.2845188 9.22594142,37.9079498 9.22594142,37.5313808 L9.22594142,37.5313808 C9.22594142,37.0920502 9.60251046,36.7782427 9.9790795,36.7782427 L27.5523013,36.7782427 C27.9916318,36.7782427 28.3054393,37.1548117 28.3054393,37.5313808 L28.3054393,37.5313808 C28.3682008,37.9079498 27.9916318,38.2845188 27.5523013,38.2845188 Z" id="Path" fill="#7893A5"></path>
                </g>
            </g>
        </g>
    </g>
</svg>