<?xml version="1.0" encoding="UTF-8"?>
<svg width="300px" height="223px" viewBox="0 0 300 223" version="1.1" xmlns="http://www.w3.org/2000/svg" xmlns:xlink="http://www.w3.org/1999/xlink">
    <!-- Generator: Sketch 61.2 (89653) - https://sketch.com -->
    <title>img-new-services-ui-ux</title>
    <desc>Created with Sketch.</desc>
    <defs>
        <polygon id="path-1" points="0 222.740093 299.944579 222.740093 299.944579 0.193890443 0 0.193890443"></polygon>
        <polygon id="path-3" points="0.215437988 114.189775 4.84215091 114.210568 5.36149176 0.105002331 0.735039029 0.0839498834"></polygon>
        <polygon id="path-5" points="0.0140503036 114.133115 4.64076323 114.154168 5.16010408 0.0486025641 0.533391154 0.0275501166"></polygon>
        <path d="M6.01483088,0.0722540793 C2.73538595,0.0722540793 0.0770164788,2.72772145 0.0770164788,6.00358625 L0.0770164788,6.00358625 L0.0770164788,148.495648 C0.0770164788,151.771253 2.73538595,154.42672 6.01483088,154.42672 L6.01483088,154.42672 L112.522376,154.42672 C115.801821,154.42672 118.459931,151.771253 118.459931,148.495648 L118.459931,148.495648 L118.459931,31.2943333 L87.2039896,0.0722540793 L6.01483088,0.0722540793 Z" id="path-7"></path>
        <polygon id="path-9" points="0 222.740093 299.944579 222.740093 299.944579 0.193890443 0 0.193890443"></polygon>
    </defs>
    <g id="Page-1" stroke="none" stroke-width="1" fill="none" fill-rule="evenodd">
        <g id="Home-page-5-Copy-2" transform="translate(-1280.000000, -142.000000)">
            <g id="img-new-services-ui-ux" transform="translate(1280.000000, 142.000000)">
                <g id="Graphic-Designer">
                    <g id="Group-23" transform="translate(0.000000, 0.066016)">
                        <path d="M282.532663,54.727033 C282.532663,52.4398535 284.388864,50.5856787 286.678543,50.5856787 C288.968222,50.5856787 290.824423,52.4398535 290.824423,54.727033 C290.824423,57.0142125 288.968222,58.8683873 286.678543,58.8683873 C284.388864,58.8683873 282.532663,57.0142125 282.532663,54.727033 L282.532663,54.727033 Z M274.212541,205.269967 L299.144805,205.269967 L299.144805,42.7765202 L274.212541,42.7765202 L274.212541,205.269967 Z" id="Fill-1" fill="#FFB8C8"></path>
                        <mask id="mask-2" fill="white">
                            <use xlink:href="#path-1"></use>
                        </mask>
                        <g id="Clip-4"></g>
                        <polygon id="Fill-3" fill="#FFE3E9" mask="url(#mask-2)" points="294.120208 205.269941 299.144753 205.269941 299.144753 42.7764942 294.120208 42.7764942"></polygon>
                        <path d="M289.805542,69.043477 L289.805542,69.043477 C289.805542,68.4955936 290.250208,68.0514129 290.79869,68.0514129 L299.144831,68.0514129 L299.144831,70.0355411 L290.79869,70.0355411 C290.250208,70.0355411 289.805542,69.5913605 289.805542,69.043477" id="Fill-5" fill="#FFA0A0" mask="url(#mask-2)"></path>
                        <path d="M289.805542,102.982362 L289.805542,102.909068 C289.805542,102.381197 290.233816,101.953651 290.762264,101.953651 L299.144831,101.953651 L299.144831,103.937779 L290.762264,103.937779 C290.233816,103.937779 289.805542,103.509972 289.805542,102.982362" id="Fill-6" fill="#FFA0A0" mask="url(#mask-2)"></path>
                        <path d="M292.932671,77.5190105 L292.932671,77.5190105 C292.932671,76.971127 293.377337,76.5269464 293.925559,76.5269464 L299.144727,76.5269464 L299.144727,78.5110746 L293.925559,78.5110746 C293.377337,78.5110746 292.932671,78.0668939 292.932671,77.5190105" id="Fill-7" fill="#FFA0A0" mask="url(#mask-2)"></path>
                        <path d="M292.932671,85.9946479 L292.932671,85.9946479 C292.932671,85.4467645 293.377337,85.0025838 293.925559,85.0025838 L299.144727,85.0025838 L299.144727,86.986712 L293.925559,86.986712 C293.377337,86.986712 292.932671,86.5425314 292.932671,85.9946479" id="Fill-8" fill="#FFA0A0" mask="url(#mask-2)"></path>
                        <path d="M292.932671,94.4701554 L292.932671,94.4701554 C292.932671,93.9222719 293.377337,93.4780913 293.925559,93.4780913 L299.144727,93.4780913 L299.144727,95.4622195 L293.925559,95.4622195 C293.377337,95.4622195 292.932671,95.0180388 292.932671,94.4701554" id="Fill-9" fill="#FFA0A0" mask="url(#mask-2)"></path>
                        <path d="M289.805542,136.84816 L289.805542,136.84816 C289.805542,136.300277 290.250208,135.856096 290.79869,135.856096 L299.144831,135.856096 L299.144831,137.839965 L290.79869,137.839965 C290.250208,137.839965 289.805542,137.395784 289.805542,136.84816" id="Fill-10" fill="#FFA0A0" mask="url(#mask-2)"></path>
                        <path d="M292.932671,111.421222 L292.932671,111.421222 C292.932671,110.873599 293.377337,110.429418 293.925559,110.429418 L299.144727,110.429418 L299.144727,112.413286 L293.925559,112.413286 C293.377337,112.413286 292.932671,111.969106 292.932671,111.421222" id="Fill-11" fill="#FFA0A0" mask="url(#mask-2)"></path>
                        <path d="M292.932671,119.89686 L292.932671,119.89686 C292.932671,119.348976 293.377337,118.904796 293.925559,118.904796 L299.144727,118.904796 L299.144727,120.888924 L293.925559,120.888924 C293.377337,120.888924 292.932671,120.444743 292.932671,119.89686" id="Fill-12" fill="#FFA0A0" mask="url(#mask-2)"></path>
                        <path d="M292.932671,128.372523 L292.932671,128.372523 C292.932671,127.82464 293.377337,127.380459 293.925559,127.380459 L299.144727,127.380459 L299.144727,129.364327 L293.925559,129.364327 C293.377337,129.364327 292.932671,128.920407 292.932671,128.372523" id="Fill-13" fill="#FFA0A0" mask="url(#mask-2)"></path>
                        <path d="M289.805542,170.750268 L289.805542,170.750268 C289.805542,170.202645 290.250208,169.758464 290.79869,169.758464 L299.144831,169.758464 L299.144831,171.742332 L290.79869,171.742332 C290.250208,171.742332 289.805542,171.298152 289.805542,170.750268" id="Fill-14" fill="#FFA0A0" mask="url(#mask-2)"></path>
                        <path d="M292.932671,145.323564 L292.932671,145.323564 C292.932671,144.775681 293.377337,144.3315 293.925559,144.3315 L299.144727,144.3315 L299.144727,146.315628 L293.925559,146.315628 C293.377337,146.315628 292.932671,145.871447 292.932671,145.323564" id="Fill-15" fill="#FFA0A0" mask="url(#mask-2)"></path>
                        <path d="M292.932671,153.799227 L292.932671,153.799227 C292.932671,153.251344 293.377337,152.807163 293.925559,152.807163 L299.144727,152.807163 L299.144727,154.791291 L293.925559,154.791291 C293.377337,154.791291 292.932671,154.347111 292.932671,153.799227" id="Fill-16" fill="#FFA0A0" mask="url(#mask-2)"></path>
                        <path d="M292.932671,162.311408 L292.932671,162.238114 C292.932671,161.710243 293.360945,161.282697 293.889133,161.282697 L299.144727,161.282697 L299.144727,163.266825 L293.889133,163.266825 C293.360945,163.266825 292.932671,162.839018 292.932671,162.311408" id="Fill-17" fill="#FFA0A0" mask="url(#mask-2)"></path>
                        <path d="M292.932671,179.225906 L292.932671,179.225906 C292.932671,178.678022 293.377337,178.233842 293.925559,178.233842 L299.144727,178.233842 L299.144727,180.21797 L293.925559,180.21797 C293.377337,180.21797 292.932671,179.773789 292.932671,179.225906" id="Fill-18" fill="#FFA0A0" mask="url(#mask-2)"></path>
                        <path d="M292.932671,187.701569 L292.932671,187.701569 C292.932671,187.153686 293.377337,186.709505 293.925559,186.709505 L299.144727,186.709505 L299.144727,188.693373 L293.925559,188.693373 C293.377337,188.693373 292.932671,188.249193 292.932671,187.701569" id="Fill-19" fill="#FFA0A0" mask="url(#mask-2)"></path>
                        <path d="M292.932671,196.176973 L292.932671,196.176973 C292.932671,195.629349 293.377337,195.185168 293.925559,195.185168 L299.144727,195.185168 L299.144727,197.169037 L293.925559,197.169037 C293.377337,197.169037 292.932671,196.724856 292.932671,196.176973" id="Fill-20" fill="#FFA0A0" mask="url(#mask-2)"></path>
                        <path d="M262.170703,67.3818671 L254.092298,38.2652925 C254.003053,37.9445676 253.54876,37.9424883 253.456912,38.2624336 L245.113634,67.3044149 L262.170703,67.3818671 Z" id="Fill-21" fill="#FFB8C8" mask="url(#mask-2)"></path>
                        <polygon id="Fill-22" fill="#FFD9E2" mask="url(#mask-2)" points="245.112723 67.3434269 262.169792 67.4208791 261.650711 181.526444 244.593382 181.448992"></polygon>
                    </g>
                    <g id="Group-26" transform="translate(256.808326, 67.381867)">
                        <mask id="mask-4" fill="white">
                            <use xlink:href="#path-3"></use>
                        </mask>
                        <g id="Clip-25"></g>
                        <polygon id="Fill-24" fill="#FFB8C8" mask="url(#mask-4)" points="0.215437988 114.189775 4.84215091 114.210568 5.36149176 0.105002331 0.735039029 0.0839498834"></polygon>
                    </g>
                    <g id="Group-29" transform="translate(244.579358, 67.381867)">
                        <mask id="mask-6" fill="white">
                            <use xlink:href="#path-5"></use>
                        </mask>
                        <g id="Clip-28"></g>
                        <polygon id="Fill-27" fill="#FFB8C8" mask="url(#mask-6)" points="0.0140503036 114.133115 4.64076323 114.154168 5.16010408 0.0486025641 0.533391154 0.0275501166"></polygon>
                    </g>
                    <g id="Group-36" transform="translate(244.319167, 38.012403)">
                        <path d="M7.05210755,160.223291 L10.4015438,160.238697 C14.1867997,160.255779 17.2692801,157.204734 17.2864527,153.42361 L17.3314657,143.580161 L0.274137034,143.502709 L0.229312163,153.346158 C0.212211622,157.127022 3.26685169,160.206397 7.05210755,160.223291" id="Fill-30" fill="#F17786"></path>
                        <polygon id="Fill-32" fill="#FAD2D7" points="0.314076323 134.759784 17.3711448 134.837236 17.3313356 143.580239 0.274267129 143.502787"></polygon>
                        <path d="M9.13769297,0.316020629 L5.77602775,12.0172829 C8.04593235,12.0019484 10.733183,11.9910323 13.014536,12.0022083 L9.77307892,0.318879604 C9.68409367,-0.001845338 9.22980052,-0.00366468531 9.13769297,0.316020629" id="Fill-34" fill="#D95656"></path>
                    </g>
                    <g id="Group-39" transform="translate(119.167389, 33.334082)">
                        <mask id="mask-8" fill="white">
                            <use xlink:href="#path-7"></use>
                        </mask>
                        <g id="Clip-38"></g>
                        <path d="M6.01483088,0.0722540793 C2.73538595,0.0722540793 0.0770164788,2.72772145 0.0770164788,6.00358625 L0.0770164788,6.00358625 L0.0770164788,148.495648 C0.0770164788,151.771253 2.73538595,154.42672 6.01483088,154.42672 L6.01483088,154.42672 L112.522376,154.42672 C115.801821,154.42672 118.459931,151.771253 118.459931,148.495648 L118.459931,148.495648 L118.459931,31.2943333 L87.2039896,0.0722540793 L6.01483088,0.0722540793 Z" id="Fill-37" fill="#FFEDF1" mask="url(#mask-8)"></path>
                    </g>
                    <g id="Group-120" transform="translate(0.000000, 0.066016)">
                        <path d="M217.838925,104.327067 L215.520885,104.327067 C215.520885,83.9158097 198.891049,67.3101069 178.450199,67.3101069 C158.00987,67.3101069 141.380295,83.9158097 141.380295,104.327067 L139.061995,104.327067 C139.061995,82.6394076 156.731552,64.9951174 178.450199,64.9951174 C200.169367,64.9951174 217.838925,82.6394076 217.838925,104.327067" id="Fill-40" fill="#D95656"></path>
                        <mask id="mask-10" fill="white">
                            <use xlink:href="#path-9"></use>
                        </mask>
                        <g id="Clip-43"></g>
                        <polygon id="Fill-42" fill="#D95656" mask="url(#mask-10)" points="174.498265 70.0989324 182.402342 70.0989324 182.402342 62.2063438 174.498265 62.2063438"></polygon>
                        <polygon id="Fill-44" fill="#D95656" mask="url(#mask-10)" points="215.520989 104.327093 217.839029 104.327093 217.839029 80.7275594 215.520989 80.7275594"></polygon>
                        <polygon id="Fill-45" fill="#D95656" mask="url(#mask-10)" points="156.509714 67.309873 200.391154 67.309873 200.391154 64.9951434 156.509714 64.9951434"></polygon>
                        <path d="M219.342125,80.7274815 C219.342125,82.1956948 218.150191,83.3860677 216.679853,83.3860677 C215.209514,83.3860677 214.01758,82.1956948 214.01758,80.7274815 C214.01758,79.2592682 215.209514,78.0688952 216.679853,78.0688952 C218.150191,78.0688952 219.342125,79.2592682 219.342125,80.7274815" id="Fill-46" fill="#D95656" mask="url(#mask-10)"></path>
                        <polygon id="Fill-47" fill="#D95656" mask="url(#mask-10)" points="139.062099 104.327093 141.380139 104.327093 141.380139 80.7275594 139.062099 80.7275594"></polygon>
                        <path d="M142.883391,80.7274815 C142.883391,82.1956948 141.691457,83.3860677 140.221119,83.3860677 C138.75052,83.3860677 137.558586,82.1956948 137.558586,80.7274815 C137.558586,79.2592682 138.75052,78.0688952 140.221119,78.0688952 C141.691457,78.0688952 142.883391,79.2592682 142.883391,80.7274815" id="Fill-48" fill="#D95656" mask="url(#mask-10)"></path>
                        <path d="M203.05353,66.1526381 C203.05353,67.6208514 201.861596,68.8112244 200.391258,68.8112244 C198.920659,68.8112244 197.728725,67.6208514 197.728725,66.1526381 C197.728725,64.6844248 198.920659,63.4940519 200.391258,63.4940519 C201.861596,63.4940519 203.05353,64.6844248 203.05353,66.1526381" id="Fill-49" fill="#D95656" mask="url(#mask-10)"></path>
                        <path d="M159.171986,66.1526381 C159.171986,67.6208514 157.980052,68.8112244 156.509714,68.8112244 C155.039376,68.8112244 153.847441,67.6208514 153.847441,66.1526381 C153.847441,64.6844248 155.039376,63.4940519 156.509714,63.4940519 C157.980052,63.4940519 159.171986,64.6844248 159.171986,66.1526381" id="Fill-50" fill="#D95656" mask="url(#mask-10)"></path>
                        <polygon id="Fill-51" fill="#D95656" mask="url(#mask-10)" points="136.269211 108.273517 144.173027 108.273517 144.173027 100.380929 136.269211 100.380929"></polygon>
                        <polygon id="Fill-52" fill="#D95656" mask="url(#mask-10)" points="212.72784 108.273517 220.631917 108.273517 220.631917 100.380929 212.72784 100.380929"></polygon>
                        <path d="M212.308855,64.5625026 L237.627502,64.5625026 L206.371301,33.3404233 L206.371301,58.6314303 C206.371301,61.9070352 209.02941,64.5625026 212.308855,64.5625026" id="Fill-53" fill="#FFB8C8" mask="url(#mask-10)"></path>
                        <path d="M177.03039,83.2502664 C177.654848,82.1693142 179.216774,82.1693142 179.841752,83.2502664 L190.893356,102.371607 C191.56621,103.535729 191.60732,104.959758 191.003417,106.160528 L184.541058,119.006939 L172.330824,119.006939 L165.868465,106.160528 C165.264302,104.959758 165.305412,103.535729 165.978265,102.371607 L177.03039,83.2502664 Z" id="Fill-54" fill="#FFA0A0" mask="url(#mask-10)"></path>
                        <path d="M171.664449,125.454914 L185.207381,125.454914 C186.923859,125.454914 188.31562,124.064672 188.31562,122.350068 L188.31562,122.111993 C188.31562,120.397128 186.923859,119.006887 185.207381,119.006887 L171.664449,119.006887 C169.94771,119.006887 168.55621,120.397128 168.55621,122.111993 L168.55621,122.350068 C168.55621,124.064672 169.94771,125.454914 171.664449,125.454914" id="Fill-55" fill="#D95656" mask="url(#mask-10)"></path>
                        <path d="M171.754657,125.454394 L185.117016,125.454394 L187.54954,189.165078 C187.746765,194.328906 183.609471,198.622565 178.436097,198.622565 L178.435837,198.622565 C173.262463,198.622565 169.125169,194.328906 169.322134,189.165078 L171.754657,125.454394 Z" id="Fill-56" fill="#FFA0A0" mask="url(#mask-10)"></path>
                        <path d="M174.111622,104.04104 C174.111622,106.426724 176.047441,108.36069 178.435993,108.36069 C180.824284,108.36069 182.760104,106.426724 182.760104,104.04104 C182.760104,101.655356 180.824284,99.7213895 178.435993,99.7213895 C176.047441,99.7213895 174.111622,101.655356 174.111622,104.04104" id="Fill-57" fill="#D95656" mask="url(#mask-10)"></path>
                        <path d="M177.03039,83.2502664 L177.03039,83.2502664 C177.654848,82.1693142 179.216774,82.1693142 179.841492,83.2502664 L179.841752,83.2502664 L179.841752,101.210343 L177.03039,101.210343 L177.03039,83.2502664 Z" id="Fill-58" fill="#D95656" mask="url(#mask-10)"></path>
                        <path d="M147.863859,203.494466 L12.9903122,203.494466 L12.9903122,119.210082 C12.9903122,116.023885 15.5760885,113.441192 18.7657676,113.441192 L142.088664,113.441192 C145.278083,113.441192 147.863859,116.023885 147.863859,119.210082 L147.863859,203.494466 Z" id="Fill-59" fill="#D95656" mask="url(#mask-10)"></path>
                        <polygon id="Fill-60" fill="#FFE3E9" mask="url(#mask-10)" points="20.344059 196.148513 140.510061 196.148513 140.510061 120.786728 20.344059 120.786728"></polygon>
                        <path d="M160.291535,203.494466 L0.562740676,203.494466 C0.252072853,203.494466 -5.20381618e-05,203.746055 -5.20381618e-05,204.056384 L-5.20381618e-05,208.223989 C-5.20381618e-05,210.660095 1.9771379,212.635126 4.41590633,212.635126 L156.438109,212.635126 C158.877138,212.635126 160.854328,210.660095 160.854328,208.223989 L160.854328,204.056384 C160.854328,203.746055 160.602203,203.494466 160.291535,203.494466" id="Fill-61" fill="#FFA0A0" mask="url(#mask-10)"></path>
                        <path d="M115.994805,203.494466 L44.8594189,203.494466 L44.8594189,205.859357 C44.8594189,207.07728 45.8478838,208.064666 47.0673981,208.064666 L113.787086,208.064666 C115.00634,208.064666 115.994805,207.07728 115.994805,205.859357 L115.994805,203.494466 Z" id="Fill-62" fill="#F77979" mask="url(#mask-10)"></path>
                        <polygon id="Fill-63" fill="#FFA0A0" mask="url(#mask-10)" points="26.7296618 189.232914 37.2257589 189.232914 37.2257589 136.407385 26.7296618 136.407385"></polygon>
                        <polygon id="Fill-64" fill="#FFA0A0" mask="url(#mask-10)" points="20.344059 130.968836 140.510061 130.968836 140.510061 120.484197 20.344059 120.484197"></polygon>
                        <polygon id="Fill-65" fill="#FFFFFF" mask="url(#mask-10)" points="44.859497 196.148513 122.109367 196.148513 122.109367 136.407385 44.859497 136.407385"></polygon>
                        <path d="M99.4739636,164.199812 C99.4739636,173.763081 91.7129922,181.51558 82.1392715,181.51558 C72.5652905,181.51558 64.8043192,173.763081 64.8043192,164.199812 C64.8043192,154.636283 72.5652905,146.883784 82.1392715,146.883784 C91.7129922,146.883784 99.4739636,154.636283 99.4739636,164.199812" id="Fill-66" fill="#FFD2D2" mask="url(#mask-10)"></path>
                        <path d="M100.295178,178.617256 C100.295178,184.813693 95.2667303,189.836911 89.0635212,189.836911 C82.860052,189.836911 77.8316045,184.813693 77.8316045,178.617256 C77.8316045,172.420819 82.860052,167.397601 89.0635212,167.397601 C95.2667303,167.397601 100.295178,172.420819 100.295178,178.617256" id="Fill-67" fill="#FFA0A0" mask="url(#mask-10)"></path>
                        <path d="M97.819046,171.590391 C95.7604163,169.034208 92.6035212,167.397575 89.0636253,167.397575 C82.8604163,167.397575 77.8317086,172.420793 77.8317086,178.61723 C77.8317086,179.449452 77.9230356,180.260101 78.0950217,181.040601 C79.3928534,181.350669 80.7466262,181.51571 82.1391674,181.51571 C89.065967,181.51571 95.0430703,177.456746 97.819046,171.590391" id="Fill-68" fill="#D95656" mask="url(#mask-10)"></path>
                        <path d="M101.142827,135.198376 C101.142827,135.198376 102.518716,138.245003 102.518716,139.849668 C102.518716,141.454592 102.609523,141.817682 100.794172,142.542822 C98.9788205,143.267961 89.4287771,145.718882 89.4287771,145.718882 L94.9848916,139.849668 L96.575438,136.739623 L101.142827,135.198376 Z" id="Fill-69" fill="#934848" mask="url(#mask-10)"></path>
                        <path d="M93.7617086,142.528293 C93.7617086,142.528293 101.861969,140.492183 102.330312,138.554578 C101.953296,136.994098 101.142801,135.198402 101.142801,135.198402 L96.575412,136.739649 L94.9848656,139.849694 L93.2002168,141.734797 L93.7617086,142.528293 Z" id="Fill-70" fill="#FFADC8" mask="url(#mask-10)"></path>
                        <path d="M110.762784,107.178452 C110.762784,107.178452 91.6044146,107.781956 89.7336427,111.188294 C87.8626106,114.594372 95.221327,137.892154 95.221327,137.892154 C95.221327,137.892154 98.9628708,138.468107 102.33052,135.8129 L99.3370252,117.924297 L112.8568,115.96486 L110.762784,107.178452 Z" id="Fill-71" fill="#934848" mask="url(#mask-10)"></path>
                        <path d="M90.3604163,140.138892 C90.3604163,140.138892 90.6211275,143.307935 84.3648395,145.043852 C78.1085516,146.780029 78.890425,147.995094 79.1511362,149.03654 C79.4118474,150.078246 88.5356982,149.210158 92.2722984,149.03654 C96.0086383,148.862922 96.7907719,148.843169 96.5300607,146.379513 C96.2693495,143.915597 95.9227754,142.239718 96.0086383,140.138892 L90.3604163,140.138892 Z" id="Fill-72" fill="#934848" mask="url(#mask-10)"></path>
                        <path d="M90.3604163,140.138892 C90.3604163,140.138892 90.6211275,143.307935 84.3648395,145.043852 C83.2762012,145.345864 82.4053426,145.632021 81.7030876,145.904144 C82.2466262,146.254498 83.8514831,146.959885 87.7751605,146.730387 C92.2012663,146.47178 95.5108933,145.265033 96.3601561,144.928194 C96.1434172,143.197995 95.9404683,141.800736 96.0086383,140.138892 L90.3604163,140.138892 Z" id="Fill-73" fill="#FFADC8" mask="url(#mask-10)"></path>
                        <path d="M119.318326,67.3081316 C114.232376,67.0521234 112.112862,70.4410477 111.839922,73.3015815 C111.567242,76.1618554 111.526392,78.7500069 110.762732,79.8397959 C109.999072,80.9293251 111.226132,82.8578332 112.385282,84.3112318 C113.544692,85.7648903 110.644866,89.1766864 111.362732,90.6685512 C112.080859,92.160416 114.922142,93.8017272 114.922142,93.8017272 C114.922142,93.8017272 131.476262,91.6902446 131.203322,88.489233 C130.930642,85.2882213 130.248942,83.3812854 127.794302,80.9293251 C125.339922,78.4776246 127.393348,77.31974 127.21876,75.5489952 C127.044172,73.7782505 124.998812,73.5739638 124.317112,71.2581945 C123.635412,68.9426852 122.02405,67.4443227 119.318326,67.3081316" id="Fill-74" fill="#934848" mask="url(#mask-10)"></path>
                        <path d="M126.101318,110.566363 C126.101318,110.566363 125.770095,119.830999 116.855178,119.202805 C110.264024,118.737831 98.91268,119.173955 98.91268,119.173955 L96.4955074,142.113845 C96.4955074,142.113845 91.0015785,143.650414 88.8037467,140.906319 C88.8037467,140.906319 90.2324545,118.913788 90.561856,116.409587 C90.8915178,113.905645 91.4407806,111.27149 95.0670598,110.393265 C98.6928187,109.5153 110.23046,107.978471 111.878508,107.649169 C113.526817,107.320128 115.493599,105.454777 115.493599,105.454777 L126.101318,110.566363 Z" id="Fill-75" fill="#C05D5D" mask="url(#mask-10)"></path>
                        <path d="M120.977042,81.6165965 C124.405577,81.2316746 128.875915,84.0802527 129.87817,87.2370802 C130.880165,90.3939077 128.644866,95.6294695 127.488578,100.017995 C126.33255,104.406781 126.10124,110.566311 126.10124,110.566311 C126.10124,110.566311 114.847728,113.337957 110.762732,107.178426 C110.762732,107.178426 113.075048,102.019797 112.612689,98.4780476 C112.150069,94.936558 111.379384,93.1655534 112.612689,90.6249648 C113.845993,88.0841163 115.156314,83.6955907 116.774961,83.1565441 C118.393348,82.6174974 120.977042,81.6165965 120.977042,81.6165965" id="Fill-76" fill="#FFD4D4" mask="url(#mask-10)"></path>
                        <path d="M115.233278,70.7604211 C113.109081,71.7506659 112.458343,73.7631239 113.537355,77.0740761 C114.616626,80.3847684 116.235273,83.3874712 119.164241,81.4626017 C122.093209,79.5377323 122.401535,76.3039724 122.324519,74.6870924 C122.247242,73.0702125 119.85791,68.6047544 115.233278,70.7604211" id="Fill-77" fill="#FFADC8" mask="url(#mask-10)"></path>
                        <path d="M118.316435,80.3846904 L119.54948,84.3113618 C119.54948,84.3113618 123.557719,83.9799807 123.634735,82.066807 C123.711752,80.1536333 122.278101,76.1250786 122.278101,76.1250786 L118.316435,80.3846904 Z" id="Fill-78" fill="#FFADC8" mask="url(#mask-10)"></path>
                        <path d="M125.715872,88.8540121 C126.255247,91.7028501 129.800867,101.712119 129.800867,102.405031 C129.800867,102.405031 123.011188,104.861669 119.3183,105.099744 L119.3183,108.102707 C119.3183,108.102707 125.253513,108.025514 129.107199,107.409795 C132.961405,106.793556 135.119428,105.792655 135.119428,105.253869 C135.119428,104.714562 133.96314,95.7833862 132.652819,91.0868711 C131.342498,86.3903559 129.723851,83.7723152 127.218734,84.3113618 C124.713877,84.8504084 125.715872,88.8540121 125.715872,88.8540121" id="Fill-79" fill="#FFADC8" mask="url(#mask-10)"></path>
                        <path d="M119.318326,105.099692 C119.318326,105.099692 115.266114,104.868635 114.093435,104.483713 C112.920755,104.098791 109.738621,104.791703 109.132897,105.946728 C108.527433,107.101494 111.45588,108.401807 112.493781,108.102655 C113.531683,107.802982 113.531683,107.232747 114.569584,107.284728 C115.607225,107.33645 115.660564,109.801665 119.318326,108.102655 L119.318326,105.099692 Z" id="Fill-80" fill="#FFADC8" mask="url(#mask-10)"></path>
                        <path d="M113.61268,70.8496211 C113.61268,70.8496211 113.40817,72.3479836 115.5217,73.1653903 C117.63549,73.9825372 119.54451,74.2549195 119.81719,76.7068798 C120.09013,79.1585803 121.033842,79.0291467 122.334536,80.5480418 C123.63497,82.066677 126.02144,83.3402202 126.02144,82.066677 C126.02144,80.7931339 122.68085,71.6670279 122.68085,71.6670279 C122.68085,71.6670279 120.15804,68.8064941 117.97634,68.9426852 C115.79464,69.0788763 113.61268,70.8496211 113.61268,70.8496211" id="Fill-81" fill="#934848" mask="url(#mask-10)"></path>
                        <path d="M112.47052,110.027264 L96.5994016,110.027264 C95.8919428,110.027264 95.3184822,109.45469 95.3184822,108.748003 L95.3184822,108.650018 C95.3184822,107.943332 95.8919428,107.370497 96.5994016,107.370497 L112.47052,107.370497 C113.177979,107.370497 113.75144,107.943332 113.75144,108.650018 L113.75144,108.748003 C113.75144,109.45469 113.177979,110.027264 112.47052,110.027264" id="Fill-82" fill="#D95656" mask="url(#mask-10)"></path>
                        <path d="M99.0867216,92.2114617 L106.864866,110.02729 L95.4211535,110.02729 L87.9901041,93.0062565 C87.7033738,92.3494721 88.1852472,91.6147157 88.9020729,91.6147157 L98.1744926,91.6147157 C98.5702428,91.6147157 98.9285256,91.8488917 99.0867216,92.2114617" id="Fill-83" fill="#D95656" mask="url(#mask-10)"></path>
                        <path d="M110.01752,44.3065133 C110.01752,31.7483385 99.8258456,21.5680506 87.2542064,21.5680506 C74.682307,21.5680506 64.4906331,31.7483385 64.4906331,44.3065133 C64.4906331,48.2648932 65.6117953,52.1733711 67.6134432,55.5823082 C68.626366,57.3070494 69.8625325,58.8449177 71.2329575,60.2959772 C72.5417173,61.6812802 74.2920208,62.5813373 75.5357329,64.0129037 C76.6095403,65.2492802 76.7380746,66.7416648 77.2568951,68.2210541 C77.8917606,70.0320844 79.6030356,71.2448093 81.5242845,71.2448093 L93.0002602,71.2448093 C94.913183,71.2448093 96.6189939,70.0422207 97.2603643,68.2421065 C97.7016479,67.0028711 98.00451,65.4228979 98.6919341,64.3115366 C99.548222,62.9272732 101.462706,62.2172079 102.639289,61.0949305 C104.148395,59.655307 105.486557,58.0987254 106.582741,56.318624 C108.793322,52.728272 110.01752,48.5253198 110.01752,44.3065133" id="Fill-84" fill="#FFB8C8" mask="url(#mask-10)"></path>
                        <path d="M94.1075282,30.1126672 C93.8720555,30.1126672 93.63268,30.065884 93.4024111,29.9671195 C92.8812489,29.7430798 92.3423938,29.5460705 91.8011969,29.3810297 C90.8572246,29.0935728 90.3253946,28.0963106 90.6129055,27.1533689 C90.9009367,26.2104272 91.9005898,25.6796976 92.8432611,25.9666346 C93.5096097,26.1696218 94.1728361,26.4123747 94.8144666,26.6878759 C95.7207112,27.0774761 96.1396184,28.1269796 95.7498526,29.0324948 C95.4589592,29.7082523 94.7998959,30.1126672 94.1075282,30.1126672" id="Fill-85" fill="#FFFFFF" mask="url(#mask-10)"></path>
                        <path d="M104.657433,46.091345 C103.670789,46.091345 102.870703,45.2923916 102.870703,44.3065653 C102.870703,39.9843159 101.134189,35.9619988 97.9811969,32.9806084 C97.2643712,32.3030315 97.2334085,31.1734767 97.9114657,30.4574336 C98.5903036,29.7416503 99.7208326,29.7104615 100.437398,30.3882984 C104.254657,33.9976235 106.444163,39.0707436 106.444163,44.3065653 C106.444163,45.2923916 105.644076,46.091345 104.657433,46.091345" id="Fill-86" fill="#FFFFFF" mask="url(#mask-10)"></path>
                        <path d="M82.1346661,51.6667868 C81.3356201,51.6667868 80.5360538,51.4383288 79.8481093,50.9790735 L77.8069124,49.6182017 C77.3638075,49.3226878 77.2443799,48.7243824 77.540477,48.2817612 C77.8360538,47.8388801 78.435013,47.7195829 78.878118,48.0153568 L80.9193148,49.3762286 C81.6678838,49.8755094 82.664935,49.8622542 83.4002342,49.3432204 L84.9124631,48.2752635 C86.3513183,47.259288 88.2772507,47.2694244 89.705438,48.3009943 L91.115412,49.3195689 C91.8512316,49.8510782 92.8534866,49.871091 93.6101214,49.3702507 L95.822784,47.9041167 C96.2666696,47.610422 96.8656288,47.7310188 97.1601648,48.1746796 C97.4547008,48.6183404 97.3334519,49.216126 96.8893062,49.5103404 L94.6766435,50.9764745 C93.25366,51.9186365 91.3680572,51.8806901 89.9848829,50.8816085 L88.5746487,49.862774 C87.8151518,49.3143707 86.7910408,49.3089127 86.02634,49.8492589 L84.514111,50.9169558 C83.8071726,51.4162367 82.9709193,51.6667868 82.1346661,51.6667868" id="Fill-87" fill="#FFFFFF" mask="url(#mask-10)"></path>
                        <path d="M82.2358023,72.9858727 C81.773183,72.9858727 81.3644232,72.6524124 81.2855854,72.1814613 L77.2031917,47.8565277 C77.114987,47.331776 77.4698873,46.8348343 77.9952125,46.7467259 C78.5205377,46.6588774 79.0180225,47.0131303 79.1062272,47.5378821 L83.1883608,71.8628156 C83.2765655,72.3875674 82.9221856,72.8845091 82.39634,72.9723576 C82.3424805,72.9814543 82.2888812,72.9858727 82.2358023,72.9858727" id="Fill-88" fill="#FFFFFF" mask="url(#mask-10)"></path>
                        <path d="M92.3227754,72.9858727 C92.2681353,72.9858727 92.2127147,72.9811944 92.1570338,72.9715779 C91.632229,72.8808704 91.2801908,72.3823692 91.3709974,71.8578774 L95.5694363,47.5968809 C95.6599827,47.072389 96.159549,46.7215149 96.6843539,46.8114427 C97.2091587,46.90241 97.5611969,47.4009112 97.4703903,47.925403 L93.2719514,72.1861396 C93.1910321,72.6550114 92.7833131,72.9858727 92.3227754,72.9858727" id="Fill-89" fill="#FFFFFF" mask="url(#mask-10)"></path>
                        <path d="M93.7164614,71.2446794 L80.7917433,71.2446794 C79.8253946,71.2446794 79.0422203,72.0272586 79.0422203,72.9925523 L79.0422203,79.2438297 C79.0422203,80.2091234 79.8253946,80.9917027 80.7917433,80.9917027 L82.3640763,80.9917027 C82.9479445,83.1432108 84.9155074,84.726043 87.2541023,84.726043 C89.5926973,84.726043 91.5602602,83.1432108 92.1441284,80.9917027 L93.7164614,80.9917027 C94.6828101,80.9917027 95.4662446,80.2091234 95.4662446,79.2438297 L95.4662446,72.9925523 C95.4662446,72.0272586 94.6828101,71.2446794 93.7164614,71.2446794" id="Fill-90" fill="#D95656" mask="url(#mask-10)"></path>
                        <path d="M87.3494102,17.0154198 C86.7741284,17.0154198 86.3076062,16.5496669 86.3076062,15.9750131 L86.3076062,9.06357249 C86.3076062,8.48865874 86.7741284,8.02290583 87.3494102,8.02290583 C87.9246921,8.02290583 88.390954,8.48865874 88.390954,9.06357249 L88.390954,15.9750131 C88.390954,16.5496669 87.9246921,17.0154198 87.3494102,17.0154198" id="Fill-91" fill="#FFB8C8" mask="url(#mask-10)"></path>
                        <path d="M102.50222,21.6329493 C102.241249,21.6875297 101.959462,21.6425659 101.718526,21.4853223 C101.237433,21.1708351 101.102134,20.5260064 101.416964,20.044919 L105.203001,14.2601742 C105.518092,13.7790868 106.163365,13.6441952 106.645239,13.9589423 C107.126331,14.2734295 107.261631,14.9182582 106.94706,15.3990857 L103.160763,21.1838304 C103.003348,21.4242442 102.763192,21.5783689 102.50222,21.6329493" id="Fill-92" fill="#FFB8C8" mask="url(#mask-10)"></path>
                        <path d="M117.198422,29.0699993 L111.118283,32.3679562 C110.612472,32.6424177 109.980208,32.4550249 109.705707,31.9500261 C109.430945,31.4450273 109.618283,30.8134538 110.124094,30.5389923 L116.204232,27.2410354 C116.709783,26.9668338 117.342307,27.1539667 117.616808,27.6589655 C117.89131,28.1639643 117.703972,28.7957977 117.198422,29.0699993" id="Fill-93" fill="#FFB8C8" mask="url(#mask-10)"></path>
                        <path d="M72.5589419,21.6329493 C72.8199133,21.6875297 73.1016999,21.6425659 73.3426366,21.4853223 C73.8237294,21.1708351 73.9590286,20.5260064 73.6441977,20.044919 L69.8581613,14.2601742 C69.5430703,13.7790868 68.8977971,13.6441952 68.4159237,13.9589423 C67.9348309,14.2734295 67.7995317,14.9182582 68.1141023,15.3990857 L71.900399,21.1838304 C72.0578144,21.4242442 72.2979705,21.5783689 72.5589419,21.6329493" id="Fill-94" fill="#FFB8C8" mask="url(#mask-10)"></path>
                        <path d="M57.8626106,29.0699993 L63.9430095,32.3679562 C64.4485603,32.6424177 65.0808239,32.4550249 65.3555854,31.9500261 C65.6300867,31.4450273 65.4427493,30.8134538 64.9371986,30.5389923 L58.8567997,27.2410354 C58.3512489,26.9668338 57.7189853,27.1539667 57.444484,27.6589655 C57.1697225,28.1639643 57.3570598,28.7957977 57.8626106,29.0699993" id="Fill-95" fill="#FFB8C8" mask="url(#mask-10)"></path>
                        <path d="M262.232706,155.17008 L216.890295,155.17008 C214.317528,155.17008 212.231578,157.253752 212.231578,159.82371 L212.231578,208.756616 C212.231578,211.326574 214.317528,213.409986 216.890295,213.409986 L262.232706,213.409986 C264.805733,213.409986 266.891162,211.326574 266.891162,208.756616 L266.891162,159.82371 C266.891162,157.253752 264.805733,155.17008 262.232706,155.17008" id="Fill-96" fill="#FFA0A0" mask="url(#mask-10)"></path>
                        <path d="M267.39536,162.615499 L266.89137,162.615499 L266.89137,171.991375 L267.39536,171.991375 C272.842975,171.991375 277.274805,176.418367 277.274805,181.859775 L277.274805,187.933536 C277.274805,193.375204 272.842975,197.802196 267.39536,197.802196 L266.89137,197.802196 L266.89137,207.178072 L267.39536,207.178072 C278.01817,207.178072 286.660668,198.545009 286.660668,187.933536 L286.660668,181.859775 C286.660668,171.248562 278.01817,162.615499 267.39536,162.615499" id="Fill-97" fill="#D95656" mask="url(#mask-10)"></path>
                        <path d="M216.788768,220.268354 C216.788768,220.268354 221.119124,220.886412 225.449219,221.504211 C229.779575,222.122269 230.398049,222.740067 232.25399,222.740067 C234.10967,222.740067 233.490937,219.032497 232.25399,216.869813 C231.016782,214.707129 228.542368,215.015898 226.995794,214.707129 C225.449219,214.3981 219.263183,215.015898 219.263183,215.015898 L216.788768,220.268354 Z" id="Fill-98" fill-opacity="0.403163243" fill="#000000" mask="url(#mask-10)"></path>
                        <path d="M210.304059,218.68022 C210.304059,218.68022 199.467892,219.032393 197.302585,219.341422 C195.137537,219.650452 191.116548,220.26825 192.353755,215.633853 C193.590963,210.999455 203.488881,211.617253 203.488881,211.617253 L209.347858,213.10444 L210.304059,218.68022 Z" id="Fill-99" fill-opacity="0.403163243" fill="#000000" mask="url(#mask-10)"></path>
                        <path d="M187.404978,203.893188 C184.618855,207.688347 188.332559,211.308328 199.158578,215.015898 C209.984076,218.723728 216.47948,221.504211 216.47948,221.504211 C216.47948,221.504211 217.464042,221.390891 218.953894,218.414439 C220.443747,215.438247 220.191101,214.089071 220.191101,214.089071 C220.191101,214.089071 203.600295,208.252345 201.53412,206.381796 C199.467684,204.511247 190.807233,199.258791 187.404978,203.893188" id="Fill-100" fill="#C05D5D" mask="url(#mask-10)"></path>
                        <path d="M207.780416,209.412932 C207.780416,209.412932 227.305134,202.966205 231.016756,202.039378 C234.728118,201.11229 238.44,202.657436 238.749107,205.747207 C239.058474,208.836719 233.490911,212.23526 228.542342,213.471116 C223.593252,214.706973 212.458387,218.105514 212.458387,218.105514 L207.780416,209.412932 Z" id="Fill-101" fill="#C05D5D" mask="url(#mask-10)"></path>
                        <path d="M223.28412,189.062779 C223.28412,189.062779 222.665386,192.770609 222.975013,194.624004 C223.28412,196.477919 222.665386,201.421605 222.665386,201.421605 L224.21196,205.128915 C224.21196,205.128915 228.542316,195.242062 228.232949,190.607665 C227.923582,185.973007 227.614475,185.973007 227.614475,185.973007 L223.28412,189.062779 Z" id="Fill-102" fill="#FFADC8" mask="url(#mask-10)"></path>
                        <path d="M196.374718,187.208916 C196.374718,187.208916 195.446878,194.624056 195.446878,196.477971 C195.446878,198.331886 197.827624,200.121084 200.503426,201.08014 C203.179228,202.039455 206.272376,201.112368 206.272376,201.112368 L205.96327,198.949684 L200.705074,195.551143 L201.632914,187.826974 L196.374718,187.208916 Z" id="Fill-103" fill="#FFADC8" mask="url(#mask-10)"></path>
                        <path d="M211.530572,172.996538 C204.416435,174.232395 200.08634,175.777281 200.08634,175.777281 C200.08634,175.777281 203.179228,192.770505 203.179228,196.786844 L203.179228,203.893214 L222.046964,203.893214 L222.046964,192.152446 C222.046964,189.680733 224.830486,175.777281 224.830486,175.777281 L214.623721,172.996538 L211.530572,172.996538 Z" id="Fill-104" fill="#FFD4D4" mask="url(#mask-10)"></path>
                        <path d="M224.830538,175.777333 C226.995585,177.01319 228.232793,182.265645 228.54242,188.444928 C228.54242,188.444928 224.830538,191.53444 221.118916,188.753958 L224.830538,175.777333 Z" id="Fill-105" fill="#FFD4D4" mask="url(#mask-10)"></path>
                        <path d="M200.086236,175.777333 C200.086236,175.777333 196.683981,177.631248 196.065507,182.265645 C195.446774,186.900043 195.446774,188.444928 195.446774,188.444928 C195.446774,188.444928 199.311127,190.916642 202.637147,188.444928 L201.323703,178.249046 L200.086236,175.777333 Z" id="Fill-106" fill="#FFD4D4" mask="url(#mask-10)"></path>
                        <path d="M207.173391,166.45141 C207.173391,166.45141 205.970529,162.424415 207.220746,160.890445 C208.470963,159.355956 209.399063,159.363753 209.399063,159.363753 C209.399063,159.363753 210.657346,156.902696 214.973912,158.484489 C219.290997,160.066021 221.146678,160.081616 221.138897,161.008703 C221.131067,161.935531 220.200364,162.236503 220.200364,162.236503 C220.200364,162.236503 221.432368,162.864957 220.806088,163.786586 C220.179289,164.708216 218.59863,168.7113 218.59863,168.7113 L207.173391,166.45141 Z" id="Fill-107" fill="#934848" mask="url(#mask-10)"></path>
                        <path d="M212.612992,161.10149 C208.294345,160.785703 207.355056,165.735887 207.355056,169.443717 C207.355056,173.151027 209.984024,176.395183 213.076912,176.395183 C216.170061,176.395183 217.407268,172.378844 217.716635,170.2159 C218.026002,168.053216 218.953842,161.564903 212.612992,161.10149" id="Fill-108" fill="#FFADC8" mask="url(#mask-10)"></path>
                        <path d="M208.128265,168.053216 C208.128265,168.053216 207.509532,165.272473 206.891058,165.581243 C206.272324,165.890532 205.035117,168.944176 207.509532,170.816025 L208.128265,168.053216 Z" id="Fill-109" fill="#FFADC8" mask="url(#mask-10)"></path>
                        <path d="M216.969159,169.237273 C216.969159,169.237273 218.528482,166.852369 218.998647,167.359187 C219.468552,167.866005 219.549991,171.159543 216.573929,172.040627 L216.969159,169.237273 Z" id="Fill-110" fill="#FFADC8" mask="url(#mask-10)"></path>
                        <path d="M208.746739,171.451809 C208.746739,171.451809 209.056106,176.395235 210.293313,177.940121 C211.53052,179.484747 214.004935,179.484747 214.932775,177.322063 C215.860876,175.159379 215.860876,171.451809 215.860876,171.451809 L208.746739,171.451809 Z" id="Fill-111" fill="#FFADC8" mask="url(#mask-10)"></path>
                        <path d="M223.149705,210.072576 L203.313799,210.072576 C202.696886,210.072576 202.166357,209.635672 202.049011,209.030869 L199.45621,195.692974 C199.301917,194.898699 199.911023,194.160564 200.720997,194.160564 L225.742507,194.160564 C226.55248,194.160564 227.161587,194.898699 227.007034,195.692974 L224.414493,209.030869 C224.296886,209.635672 223.766618,210.072576 223.149705,210.072576" id="Fill-112" fill="#FFA0A0" mask="url(#mask-10)"></path>
                        <path d="M207.576895,166.285148 C207.576895,166.285148 208.399879,167.697741 209.340989,166.160653 C210.282099,164.623824 210.594068,164.317654 210.594068,164.317654 C210.594068,164.317654 212.444545,164.951307 214.287216,166.511787 C216.129627,168.072527 215.534831,165.286586 215.534831,165.286586 C215.534831,165.286586 217.176114,168.039519 217.888777,168.220934 C218.60144,168.402349 219.238387,166.245122 218.94229,164.697638 C218.646193,163.150153 216.507424,160.042188 213.105169,160.013338 C209.702914,159.984488 207.086696,162.094412 207.576895,166.285148" id="Fill-113" fill="#934848" mask="url(#mask-10)"></path>
                        <path d="M294.118777,11.727045 L293.105074,11.727045 C293.076453,5.35257179 287.895794,0.193682517 281.507589,0.193682517 C278.014007,0.193682517 274.883131,1.73908811 272.756592,4.18039231 C271.60915,3.62107296 270.320425,3.30658578 268.957806,3.30658578 C264.249133,3.30658578 260.419384,7.05470117 260.289549,11.727045 L259.271162,11.727045 C256.053643,11.727045 253.44523,14.3323503 253.44523,17.5463573 C253.44523,20.7606242 256.053643,23.3659296 259.271162,23.3659296 L294.118777,23.3659296 C297.336297,23.3659296 299.944709,20.7606242 299.944709,17.5463573 C299.944709,14.3323503 297.336297,11.727045 294.118777,11.727045" id="Fill-114" fill="#FFE0E7" mask="url(#mask-10)"></path>
                        <path d="M38.4510755,80.7033621 L39.0877624,80.7033621 C39.1057155,76.7000183 42.3594016,73.4602805 46.3712836,73.4602805 C48.5654727,73.4602805 50.5317346,74.4307724 51.867294,75.9639624 C52.5877624,75.6125684 53.397216,75.4150393 54.2529835,75.4150393 C57.2103122,75.4150393 59.6152559,77.7690148 59.6969558,80.7033621 L60.3365048,80.7033621 C62.3571466,80.7033621 63.9953079,82.3397351 63.9953079,84.358171 C63.9953079,86.3768668 62.3571466,88.0132397 60.3365048,88.0132397 L38.4510755,88.0132397 C36.4304337,88.0132397 34.7922723,86.3768668 34.7922723,84.358171 C34.7922723,82.3397351 36.4304337,80.7033621 38.4510755,80.7033621" id="Fill-115" fill="#FFE0E7" mask="url(#mask-10)"></path>
                        <path d="M230.030295,27.9651357 C230.057875,29.6168431 228.739748,30.9779748 227.086236,31.0055249 C225.432723,31.0328152 224.070104,29.7161275 224.042524,28.06442 C224.014944,26.4127126 225.33307,25.0515809 226.986843,25.0240308 C228.640095,24.9967406 230.002975,26.3134282 230.030295,27.9651357" id="Fill-116" fill="#FFE0E7" mask="url(#mask-10)"></path>
                        <path d="M29.2846834,96.3976499 C29.3122637,98.0493573 27.994137,99.410749 26.3406245,99.4380392 C24.6871119,99.4655893 23.3242324,98.1489016 23.2969124,96.4971942 C23.2693322,94.8454867 24.5874588,93.484355 26.2409714,93.4568049 C27.894484,93.4292548 29.2573634,94.7462023 29.2846834,96.3976499" id="Fill-117" fill="#E2E6FF" mask="url(#mask-10)"></path>
                        <path d="M273.429289,32.1840462 L271.90327,32.209517 L271.878031,30.684904 C271.867363,30.0509914 271.34438,29.5457326 270.709775,29.5561289 C270.074909,29.5667851 269.569358,30.0891977 269.579766,30.7231103 L269.605265,32.2474634 L268.079245,32.2729343 C267.44438,32.2833305 266.938829,32.8057431 266.949237,33.4396557 C266.959905,34.0738282 267.482888,34.578827 268.117233,34.5684308 L269.643252,34.5432198 L269.668751,36.067573 C269.679419,36.7014855 270.202402,37.2067443 270.836748,37.196348 C271.471613,37.1856918 271.977424,36.6632793 271.967016,36.0293667 L271.941518,34.5050135 L273.467537,34.4795427 C274.102142,34.4691464 274.607953,33.9467338 274.597546,33.3128212 C274.586878,32.6789086 274.063894,32.17339 273.429289,32.1840462" id="Fill-118" fill="#E2E6FF" mask="url(#mask-10)"></path>
                        <path d="M134.961544,6.76675047 L133.435525,6.79222133 L133.410286,5.26760828 C133.399618,4.63369569 132.876635,4.12843695 132.242029,4.13883322 C131.607424,4.14948939 131.101613,4.67190198 131.112021,5.30581457 L131.13752,6.83016772 L129.61124,6.85563858 C128.976895,6.86603485 128.471084,7.38844744 128.481492,8.02236002 C128.49216,8.65653252 129.014883,9.16153135 129.649488,9.15113508 L131.175507,9.12592413 L131.201006,10.6502773 C131.211674,11.2841899 131.734657,11.7894486 132.369263,11.7790523 C133.003868,11.7683962 133.509679,11.2459836 133.499271,10.612071 L133.473773,9.08771783 L134.999792,9.06224697 C135.634397,9.0518507 136.140208,8.52943811 136.129801,7.89552552 C136.119133,7.26161294 135.596149,6.75609429 134.961544,6.76675047" id="Fill-119" fill="#FFA3BE" mask="url(#mask-10)"></path>
                    </g>
                </g>
            </g>
        </g>
    </g>
</svg>