<?xml version="1.0" encoding="UTF-8"?>
<svg width="300px" height="248px" viewBox="0 0 300 248" version="1.1" xmlns="http://www.w3.org/2000/svg" xmlns:xlink="http://www.w3.org/1999/xlink">
    <!-- Generator: Sketch 61.2 (89653) - https://sketch.com -->
    <title>img-new-services-web-development</title>
    <desc>Created with Sketch.</desc>
    <defs>
        <polygon id="path-1" points="0.256308592 0.229503345 279.677647 0.229503345 279.677647 28.5067176 0.256308592 28.5067176"></polygon>
        <polygon id="path-3" points="0 247.058824 299.768145 247.058824 299.768145 0.0475113122 0 0.0475113122"></polygon>
        <path d="M0.774027149,0.0980090498 C0.774027149,0.0980090498 -0.450135747,4.40307692 0.370588235,5.83927602 L0.370588235,5.83927602 C1.19131222,7.27547511 8.61855204,6.61900452 12.5579186,6.61900452 L12.5579186,6.61900452 C16.4972851,6.61900452 17.5232579,5.96226244 16.0457919,4.52606335 L16.0457919,4.52606335 C14.5685973,3.08986425 9.22995475,2.80968326 6.379819,0.0980090498 L6.379819,0.0980090498 L0.774027149,0.0980090498 Z" id="path-5"></path>
        <linearGradient x1="-0.000433666919%" y1="49.9980156%" x2="99.9998742%" y2="49.9980156%" id="linearGradient-7">
            <stop stop-color="#4600A3" offset="0%"></stop>
            <stop stop-color="#6400C3" offset="100%"></stop>
        </linearGradient>
        <path d="M0.278823529,5.97122172 C1.17067873,7.93357466 6.10615385,10.6688688 7.6520362,11.739095 L7.6520362,11.739095 C9.19819005,12.8093213 12.5283258,15.2478733 13.539095,14.1773756 L13.539095,14.1773756 C14.5498643,13.1071493 13.539095,10.9066968 11.9932127,9.36081448 L11.9932127,9.36081448 C10.4467873,7.81493213 7.41420814,3.35511312 7.41420814,3.35511312 L7.41420814,3.35511312 C7.41420814,3.35511312 7.04769231,0.578552036 3.78705882,0.14361991 L3.78705882,0.14361991 C3.77402715,0.14199095 3.76045249,0.140904977 3.74633484,0.140904977 L3.74633484,0.140904977 C2.79339367,0.140633484 -0.600271493,4.03764706 0.278823529,5.97122172" id="path-8"></path>
        <linearGradient x1="-0.000599336495%" y1="50.0006207%" x2="100.000628%" y2="50.0006207%" id="linearGradient-10">
            <stop stop-color="#4B31CC" offset="0%"></stop>
            <stop stop-color="#4D62CD" offset="100%"></stop>
        </linearGradient>
        <path d="M7.2559276,0.898099548 C6.0320362,1.22769231 4.80081448,1.55728507 3.69828054,1.54859729 L3.69828054,1.54859729 C-0.330678733,1.51656109 0.279909502,5.76135747 0.279909502,8.44751131 L0.279909502,8.44751131 C0.279909502,11.1333937 1.07348416,15.2231674 4.00343891,15.4675113 L4.00343891,15.4675113 C6.93366516,15.7115837 10.4742081,14.3687783 11.240362,9.22696833 L11.240362,9.22696833 C12.0067873,4.08570136 14.4822624,6.31791855 14.2952036,4.60180995 L14.2952036,4.60180995 C13.9219005,1.1758371 12.52181,0.247330317 10.7269683,0.247330317 L10.7269683,0.247330317 C9.66461538,0.247330317 8.4638009,0.572579186 7.2559276,0.898099548" id="path-11"></path>
        <linearGradient x1="-0.000160693581%" y1="50.0001705%" x2="100.000121%" y2="50.0001705%" id="linearGradient-13">
            <stop stop-color="#0A183D" offset="0%"></stop>
            <stop stop-color="#3B4664" offset="100%"></stop>
        </linearGradient>
    </defs>
    <g id="Page-1" stroke="none" stroke-width="1" fill="none" fill-rule="evenodd">
        <g id="Home-page-5-Copy-2" transform="translate(-480.000000, -130.000000)">
            <g id="img-new-services-web-development" transform="translate(480.000000, 130.000000)">
                <g id="Website-Development">
                    <g id="Group-90" transform="translate(0.000000, 0.223982)">
                        <g id="Group-3" transform="translate(20.090498, 218.552036)">
                            <mask id="mask-2" fill="white">
                                <use xlink:href="#path-1"></use>
                            </mask>
                            <g id="Clip-2" opacity="0.15"></g>
                            <path d="M219.374009,3.45309502 C177.711747,1.24042534 58.4474932,-3.70889593 17.2388959,6.10395475 C9.62133937,6.72458824 0.56079638,7.68866063 0.265140271,13.0775294 C-0.0736832579,19.2472127 9.4079457,19.8081176 16.416543,19.352552 C19.6122896,19.1451312 24.1055023,19.0680271 28.156181,18.4786154 C53.4911131,20.3027783 93.2808869,19.892009 121.761339,17.7692036 C133.758624,16.8751765 149.62686,16.4847692 166.670389,16.2838643 C158.724054,17.3969864 152.77048,19.5382534 151.318805,23.3068507 C149.187312,28.8398824 174.153285,29.6179819 189.254824,27.2331855 C204.356633,24.8483891 238.477357,27.7104706 239.92686,23.0304706 C241.376362,18.3504706 236.30324,19.2075747 220.722787,17.4542715 C217.006317,17.0359005 211.372018,16.4749955 204.887946,16.0235023 C242.538353,15.8228688 276.442154,15.4302896 278.944507,11.6166244 C283.440706,4.76522172 267.704959,6.02033484 219.374009,3.45309502" id="Fill-1" fill="#FFFFFF" opacity="0.0989862351" mask="url(#mask-2)"></path>
                        </g>
                        <path d="M281.111973,110.399403 C279.257946,110.399403 277.754688,108.896416 277.754688,107.042118 C277.754688,105.18809 279.257946,103.685104 281.111973,103.685104 C282.966,103.685104 284.469258,105.18809 284.469258,107.042118 C284.469258,108.896416 282.966,110.399403 281.111973,110.399403 L281.111973,110.399403 Z M271.017041,229.081575 L291.206633,229.081575 L291.206633,97.3544253 L271.017041,97.3544253 L271.017041,229.081575 Z" id="Fill-4" fill="#BFC5FF"></path>
                        <mask id="mask-4" fill="white">
                            <use xlink:href="#path-3"></use>
                        </mask>
                        <g id="Clip-7"></g>
                        <polygon id="Fill-6" fill="#8F98F8" mask="url(#mask-4)" points="271.017014 229.081629 275.085611 229.081629 275.085611 97.3544796 271.017014 97.3544796"></polygon>
                        <path d="M278.579701,118.648127 L278.579701,118.648127 C278.579701,118.203692 278.219701,117.843692 277.775538,117.843692 L271.016986,117.843692 L271.016986,119.45229 L277.775538,119.45229 C278.219701,119.45229 278.579701,119.09229 278.579701,118.648127" id="Fill-8" fill="#474BCA" mask="url(#mask-4)"></path>
                        <path d="M278.579701,146.13152 L278.579701,146.13152 C278.579701,145.687086 278.219701,145.327086 277.775538,145.327086 L271.016986,145.327086 L271.016986,146.935683 L277.775538,146.935683 C278.219701,146.935683 278.579701,146.575683 278.579701,146.13152" id="Fill-9" fill="#474BCA" mask="url(#mask-4)"></path>
                        <path d="M276.04743,125.518968 L276.04743,125.518968 C276.04743,125.074534 275.68743,124.714534 275.243267,124.714534 L271.017204,124.714534 L271.017204,126.323131 L275.243267,126.323131 C275.68743,126.323131 276.04743,125.963131 276.04743,125.518968" id="Fill-10" fill="#474BCA" mask="url(#mask-4)"></path>
                        <path d="M276.04743,132.389837 L276.04743,132.389837 C276.04743,131.945403 275.68743,131.585403 275.243267,131.585403 L271.017204,131.585403 L271.017204,133.194 L275.243267,133.194 C275.68743,133.194 276.04743,132.834 276.04743,132.389837" id="Fill-11" fill="#474BCA" mask="url(#mask-4)"></path>
                        <path d="M276.04743,139.260679 L276.04743,139.260679 C276.04743,138.816244 275.68743,138.456244 275.243267,138.456244 L271.017204,138.456244 L271.017204,140.064842 L275.243267,140.064842 C275.68743,140.064842 276.04743,139.704842 276.04743,139.260679" id="Fill-12" fill="#474BCA" mask="url(#mask-4)"></path>
                        <path d="M278.579701,173.614914 L278.579701,173.614914 C278.579701,173.17048 278.219701,172.81048 277.775538,172.81048 L271.016986,172.81048 L271.016986,174.419077 L277.775538,174.419077 C278.219701,174.419077 278.579701,174.059077 278.579701,173.614914" id="Fill-13" fill="#474BCA" mask="url(#mask-4)"></path>
                        <path d="M276.04743,153.002362 L276.04743,153.002362 C276.04743,152.557928 275.68743,152.197928 275.243267,152.197928 L271.017204,152.197928 L271.017204,153.806525 L275.243267,153.806525 C275.68743,153.806525 276.04743,153.446525 276.04743,153.002362" id="Fill-14" fill="#474BCA" mask="url(#mask-4)"></path>
                        <path d="M276.04743,159.873204 L276.04743,159.873204 C276.04743,159.428769 275.68743,159.068769 275.243267,159.068769 L271.017204,159.068769 L271.017204,160.677367 L275.243267,160.677367 C275.68743,160.677367 276.04743,160.317367 276.04743,159.873204" id="Fill-15" fill="#474BCA" mask="url(#mask-4)"></path>
                        <path d="M276.04743,166.744072 L276.04743,166.744072 C276.04743,166.299638 275.68743,165.939638 275.243267,165.939638 L271.017204,165.939638 L271.017204,167.548235 L275.243267,167.548235 C275.68743,167.548235 276.04743,167.188235 276.04743,166.744072" id="Fill-16" fill="#474BCA" mask="url(#mask-4)"></path>
                        <path d="M278.579701,201.567041 L278.579701,200.629303 C278.579701,200.443873 278.429566,200.294009 278.244407,200.294009 L271.016986,200.294009 L271.016986,201.902335 L278.244407,201.902335 C278.429566,201.902335 278.579701,201.752471 278.579701,201.567041" id="Fill-17" fill="#474BCA" mask="url(#mask-4)"></path>
                        <path d="M276.04743,180.485756 L276.04743,180.485756 C276.04743,180.041321 275.68743,179.681321 275.243267,179.681321 L271.017204,179.681321 L271.017204,181.289919 L275.243267,181.289919 C275.68743,181.289919 276.04743,180.929919 276.04743,180.485756" id="Fill-18" fill="#474BCA" mask="url(#mask-4)"></path>
                        <path d="M276.04743,187.356597 L276.04743,187.356597 C276.04743,186.912163 275.68743,186.552163 275.243267,186.552163 L271.017204,186.552163 L271.017204,188.16076 L275.243267,188.16076 C275.68743,188.16076 276.04743,187.80076 276.04743,187.356597" id="Fill-19" fill="#474BCA" mask="url(#mask-4)"></path>
                        <path d="M276.04743,194.227439 L276.04743,194.227439 C276.04743,193.783005 275.68743,193.423005 275.243267,193.423005 L271.017204,193.423005 L271.017204,195.031602 L275.243267,195.031602 C275.68743,195.031602 276.04743,194.671602 276.04743,194.227439" id="Fill-20" fill="#474BCA" mask="url(#mask-4)"></path>
                        <path d="M276.04743,207.968878 L276.04743,207.968878 C276.04743,207.524715 275.68743,207.164715 275.243267,207.164715 L271.017204,207.164715 L271.017204,208.773312 L275.243267,208.773312 C275.68743,208.773312 276.04743,208.413312 276.04743,207.968878" id="Fill-21" fill="#474BCA" mask="url(#mask-4)"></path>
                        <path d="M276.04743,214.839719 L276.04743,214.839719 C276.04743,214.395557 275.68743,214.035557 275.243267,214.035557 L271.017204,214.035557 L271.017204,215.644154 L275.243267,215.644154 C275.68743,215.644154 276.04743,215.284154 276.04743,214.839719" id="Fill-22" fill="#474BCA" mask="url(#mask-4)"></path>
                        <path d="M276.04743,221.710561 L276.04743,221.710561 C276.04743,221.266398 275.68743,220.906398 275.243267,220.906398 L271.017204,220.906398 L271.017204,222.514995 L275.243267,222.514995 C275.68743,222.514995 276.04743,222.154995 276.04743,221.710561" id="Fill-23" fill="#474BCA" mask="url(#mask-4)"></path>
                        <path d="M262.663928,176.050398 L52.3207602,176.050398 L52.3207602,55.9065068 C52.3207602,54.0136561 53.8555113,52.4791765 55.7480905,52.4791765 L259.236869,52.4791765 C261.129719,52.4791765 262.663928,54.0136561 262.663928,55.9065068 L262.663928,176.050398 Z" id="Fill-24" fill="#474BCA" mask="url(#mask-4)"></path>
                        <polygon id="Fill-25" fill="#FFFFFF" mask="url(#mask-4)" points="62.400543 165.970317 252.584253 165.970317 252.584253 62.5588235 62.400543 62.5588235"></polygon>
                        <path d="M262.663928,176.050398 L52.3207602,176.050398 L52.3207602,197.709041 C52.3207602,199.601891 53.8555113,201.1361 55.7480905,201.1361 L259.236869,201.1361 C261.129719,201.1361 262.663928,199.601891 262.663928,197.709041 L262.663928,176.050398 Z" id="Fill-26" fill="#8F98F8" mask="url(#mask-4)"></path>
                        <path d="M191.846362,222.157846 L123.138489,222.157846 C121.226633,222.157846 119.676679,223.707801 119.676679,225.619928 C119.676679,227.531783 121.226633,229.081738 123.138489,229.081738 L191.846362,229.081738 C193.758489,229.081738 195.308443,227.531783 195.308443,225.619928 C195.308443,223.707801 193.758489,222.157846 191.846362,222.157846" id="Fill-27" fill="#8F98F8" mask="url(#mask-4)"></path>
                        <polygon id="Fill-28" fill="#6974E0" mask="url(#mask-4)" points="178.495738 201.136208 136.48895 201.136208 132.796914 222.157928 182.188317 222.157928"></polygon>
                        <path d="M163.075249,189.020552 C163.075249,192.1039 160.575882,194.603267 157.492534,194.603267 C154.409186,194.603267 151.909548,192.1039 151.909548,189.020552 C151.909548,185.937475 154.409186,183.437837 157.492534,183.437837 C160.575882,183.437837 163.075249,185.937475 163.075249,189.020552" id="Fill-29" fill="#6974E0" mask="url(#mask-4)"></path>
                        <polygon id="Fill-30" fill="#E3ECFF" mask="url(#mask-4)" points="86.2493213 165.970317 228.735747 165.970317 228.735747 20.239819 86.2493213 20.239819"></polygon>
                        <path d="M86.2492941,20.2397919 L86.2492941,12.0113756 C86.2492941,10.9275747 87.1278462,10.0487511 88.2119186,10.0487511 L226.773095,10.0487511 C227.857167,10.0487511 228.735719,10.9275747 228.735719,12.0113756 L228.735719,20.2397919 L86.2492941,20.2397919 Z" id="Fill-31" fill="#FF5E85" mask="url(#mask-4)"></path>
                        <polygon id="Fill-32" fill="#FFFFFF" mask="url(#mask-4)" points="94.3129412 165.970317 220.672127 165.970317 220.672127 20.239819 94.3129412 20.239819"></polygon>
                        <polygon id="Fill-33" fill="#FFFFFF" mask="url(#mask-4)" points="94.3129412 83.5026244 220.672127 83.5026244 220.672127 20.239819 94.3129412 20.239819"></polygon>
                        <polygon id="Fill-34" fill="#EDEFFF" mask="url(#mask-4)" points="94.3129412 131.198281 220.672127 131.198281 220.672127 83.5026244 94.3129412 83.5026244"></polygon>
                        <path d="M100.39743,15.0423258 C100.39743,16.7223258 99.0353484,18.0846787 97.3553484,18.0846787 C95.6748054,18.0846787 94.3129955,16.7223258 94.3129955,15.0423258 C94.3129955,13.3620543 95.6748054,11.9999729 97.3553484,11.9999729 C99.0353484,11.9999729 100.39743,13.3620543 100.39743,15.0423258" id="Fill-35" fill="#FFA3BE" mask="url(#mask-4)"></path>
                        <path d="M147.7759,16.5633665 L105.944498,16.5633665 C105.104226,16.5633665 104.423321,15.8824615 104.423321,15.04219 C104.423321,14.20219 105.104226,13.5210136 105.944498,13.5210136 L147.7759,13.5210136 C148.6159,13.5210136 149.297077,14.20219 149.297077,15.04219 C149.297077,15.8824615 148.6159,16.5633665 147.7759,16.5633665" id="Fill-36" fill="#FFA3BE" mask="url(#mask-4)"></path>
                        <path d="M127.044597,119.475068 L105.219801,119.475068 C104.380072,119.475068 103.698896,118.793891 103.698896,117.953891 C103.698896,117.113891 104.380072,116.432715 105.219801,116.432715 L127.044597,116.432715 C127.884597,116.432715 128.565774,117.113891 128.565774,117.953891 C128.565774,118.793891 127.884597,119.475068 127.044597,119.475068" id="Fill-37" fill="#BFC5FF" mask="url(#mask-4)"></path>
                        <path d="M127.044597,125.791005 L105.219801,125.791005 C104.380072,125.791005 103.698896,125.1101 103.698896,124.269828 C103.698896,123.429828 104.380072,122.748923 105.219801,122.748923 L127.044597,122.748923 C127.884597,122.748923 128.565774,123.429828 128.565774,124.269828 C128.565774,125.1101 127.884597,125.791005 127.044597,125.791005" id="Fill-38" fill="#BFC5FF" mask="url(#mask-4)"></path>
                        <path d="M203.100081,43.9469321 L172.212027,43.9469321 C171.371756,43.9469321 170.690851,43.2657557 170.690851,42.4257557 C170.690851,41.5857557 171.371756,40.9045792 172.212027,40.9045792 L203.100081,40.9045792 C203.940081,40.9045792 204.621258,41.5857557 204.621258,42.4257557 C204.621258,43.2657557 203.940081,43.9469321 203.100081,43.9469321" id="Fill-39" fill="#BFC5FF" mask="url(#mask-4)"></path>
                        <path d="M194.036606,50.183457 L172.21181,50.183457 C171.37181,50.183457 170.690905,49.502552 170.690905,48.6622805 C170.690905,47.8222805 171.37181,47.1411041 172.21181,47.1411041 L194.036606,47.1411041 C194.876606,47.1411041 195.557783,47.8222805 195.557783,48.6622805 C195.557783,49.502552 194.876606,50.183457 194.036606,50.183457" id="Fill-40" fill="#BFC5FF" mask="url(#mask-4)"></path>
                        <path d="M197.337747,56.4201176 L172.211864,56.4201176 C171.371593,56.4201176 170.690959,55.7392127 170.690959,54.8989412 C170.690959,54.0589412 171.371593,53.3777647 172.211864,53.3777647 L197.337747,53.3777647 C198.178018,53.3777647 198.858923,54.0589412 198.858923,54.8989412 C198.858923,55.7392127 198.178018,56.4201176 197.337747,56.4201176" id="Fill-41" fill="#BFC5FF" mask="url(#mask-4)"></path>
                        <path d="M196.097729,66.560552 L173.452208,66.560552 C171.927231,66.560552 170.690851,65.3241719 170.690851,63.7991946 C170.690851,62.2742172 171.927231,61.0378371 173.452208,61.0378371 L196.097729,61.0378371 C197.622706,61.0378371 198.858814,62.2742172 198.858814,63.7991946 C198.858814,65.3241719 197.622706,66.560552 196.097729,66.560552" id="Fill-42" fill="#FFA3BE" mask="url(#mask-4)"></path>
                        <path d="M198.978624,160.716054 L176.333104,160.716054 C174.808127,160.716054 173.571747,159.479674 173.571747,157.954697 C173.571747,156.429719 174.808127,155.193339 176.333104,155.193339 L198.978624,155.193339 C200.503602,155.193339 201.739982,156.429719 201.739982,157.954697 C201.739982,159.479674 200.503602,160.716054 198.978624,160.716054" id="Fill-43" fill="#FFA3BE" mask="url(#mask-4)"></path>
                        <path d="M166.738534,160.716054 L116.049122,160.716054 C114.524145,160.716054 113.287765,159.479674 113.287765,157.954697 C113.287765,156.429719 114.524145,155.193339 116.049122,155.193339 L166.738534,155.193339 C168.263511,155.193339 169.499891,156.429719 169.499891,157.954697 C169.499891,159.479674 168.263511,160.716054 166.738534,160.716054" id="Fill-44" fill="#E9E6E6" mask="url(#mask-4)"></path>
                        <path d="M168.404878,119.475068 L146.580081,119.475068 C145.740081,119.475068 145.059176,118.793891 145.059176,117.953891 C145.059176,117.113891 145.740081,116.432715 146.580081,116.432715 L168.404878,116.432715 C169.244878,116.432715 169.926054,117.113891 169.926054,117.953891 C169.926054,118.793891 169.244878,119.475068 168.404878,119.475068" id="Fill-45" fill="#BFC5FF" mask="url(#mask-4)"></path>
                        <path d="M168.404878,125.791005 L146.580081,125.791005 C145.740081,125.791005 145.059176,125.1101 145.059176,124.269828 C145.059176,123.429828 145.740081,122.748923 146.580081,122.748923 L168.404878,122.748923 C169.244878,122.748923 169.926054,123.429828 169.926054,124.269828 C169.926054,125.1101 169.244878,125.791005 168.404878,125.791005" id="Fill-46" fill="#BFC5FF" mask="url(#mask-4)"></path>
                        <path d="M173.263656,142.813683 L141.721303,142.813683 C140.881303,142.813683 140.200127,142.132507 140.200127,141.292235 C140.200127,140.452507 140.881303,139.77133 141.721303,139.77133 L173.263656,139.77133 C174.103928,139.77133 174.784833,140.452507 174.784833,141.292235 C174.784833,142.132507 174.103928,142.813683 173.263656,142.813683" id="Fill-47" fill="#BFC5FF" mask="url(#mask-4)"></path>
                        <path d="M168.404878,149.12962 L146.580081,149.12962 C145.740081,149.12962 145.059176,148.448443 145.059176,147.608443 C145.059176,146.768443 145.740081,146.087267 146.580081,146.087267 L168.404878,146.087267 C169.244878,146.087267 169.926054,146.768443 169.926054,147.608443 C169.926054,148.448443 169.244878,149.12962 168.404878,149.12962" id="Fill-48" fill="#BFC5FF" mask="url(#mask-4)"></path>
                        <path d="M209.771267,119.475068 L187.946471,119.475068 C187.106742,119.475068 186.425566,118.793891 186.425566,117.953891 C186.425566,117.113891 187.106742,116.432715 187.946471,116.432715 L209.771267,116.432715 C210.611267,116.432715 211.292443,117.113891 211.292443,117.953891 C211.292443,118.793891 210.611267,119.475068 209.771267,119.475068" id="Fill-49" fill="#BFC5FF" mask="url(#mask-4)"></path>
                        <path d="M209.771267,125.791005 L187.946471,125.791005 C187.106742,125.791005 186.425566,125.1101 186.425566,124.269828 C186.425566,123.429828 187.106742,122.748923 187.946471,122.748923 L209.771267,122.748923 C210.611267,122.748923 211.292443,123.429828 211.292443,124.269828 C211.292443,125.1101 210.611267,125.791005 209.771267,125.791005" id="Fill-50" fill="#BFC5FF" mask="url(#mask-4)"></path>
                        <path d="M219.150787,16.5633665 L210.036489,16.5633665 C209.196217,16.5633665 208.515312,15.8824615 208.515312,15.04219 C208.515312,14.20219 209.196217,13.5210136 210.036489,13.5210136 L219.150787,13.5210136 C219.991059,13.5210136 220.672235,14.20219 220.672235,15.04219 C220.672235,15.8824615 219.991059,16.5633665 219.150787,16.5633665" id="Fill-51" fill="#FFA3BE" mask="url(#mask-4)"></path>
                        <path d="M131.316109,111.819176 L100.948235,111.819176 C100.643891,111.819176 100.397376,111.572661 100.397376,111.268588 L100.397376,91.3515747 C100.397376,91.0475023 100.643891,90.8009864 100.948235,90.8009864 L131.316109,90.8009864 C131.620452,90.8009864 131.866968,91.0475023 131.866968,91.3515747 L131.866968,111.268588 C131.866968,111.572661 131.620452,111.819176 131.316109,111.819176" id="Fill-52" fill="#FFA3BE" mask="url(#mask-4)"></path>
                        <path d="M172.676389,111.819176 L142.308516,111.819176 C142.004172,111.819176 141.757656,111.572661 141.757656,111.268588 L141.757656,91.3515747 C141.757656,91.0475023 142.004172,90.8009864 142.308516,90.8009864 L172.676389,90.8009864 C172.980462,90.8009864 173.226977,91.0475023 173.226977,91.3515747 L173.226977,111.268588 C173.226977,111.572661 172.980462,111.819176 172.676389,111.819176" id="Fill-53" fill="#BFC5FF" mask="url(#mask-4)"></path>
                        <path d="M214.04305,111.819176 L183.674905,111.819176 C183.370561,111.819176 183.124045,111.572661 183.124045,111.268588 L183.124045,91.3515747 C183.124045,91.0475023 183.370561,90.8009864 183.674905,90.8009864 L214.04305,90.8009864 C214.347122,90.8009864 214.593638,91.0475023 214.593638,91.3515747 L214.593638,111.268588 C214.593638,111.572661 214.347122,111.819176 214.04305,111.819176" id="Fill-54" fill="#FFA3BE" mask="url(#mask-4)"></path>
                        <path d="M145.485176,78.7333303 C145.485176,79.4020181 144.943005,79.9439186 144.274317,79.9439186 C143.605629,79.9439186 143.063729,79.4020181 143.063729,78.7333303 C143.063729,78.0646425 143.605629,77.5227421 144.274317,77.5227421 C144.943005,77.5227421 145.485176,78.0646425 145.485176,78.7333303" id="Fill-55" fill="#DAB3FF" mask="url(#mask-4)"></path>
                        <path d="M152.094081,78.7333303 C152.094081,79.4020181 151.552181,79.9439186 150.883493,79.9439186 C150.214805,79.9439186 149.672633,79.4020181 149.672633,78.7333303 C149.672633,78.0646425 150.214805,77.5227421 150.883493,77.5227421 C151.552181,77.5227421 152.094081,78.0646425 152.094081,78.7333303" id="Fill-56" fill="#DAB3FF" mask="url(#mask-4)"></path>
                        <path d="M158.703231,78.7333303 C158.703231,79.4020181 158.161059,79.9439186 157.492371,79.9439186 C156.823683,79.9439186 156.281783,79.4020181 156.281783,78.7333303 C156.281783,78.0646425 156.823683,77.5227421 157.492371,77.5227421 C158.161059,77.5227421 158.703231,78.0646425 158.703231,78.7333303" id="Fill-57" fill="#DAB3FF" mask="url(#mask-4)"></path>
                        <path d="M165.312136,78.7333303 C165.312136,79.4020181 164.770235,79.9439186 164.101548,79.9439186 C163.43286,79.9439186 162.890688,79.4020181 162.890688,78.7333303 C162.890688,78.0646425 163.43286,77.5227421 164.101548,77.5227421 C164.770235,77.5227421 165.312136,78.0646425 165.312136,78.7333303" id="Fill-58" fill="#DAB3FF" mask="url(#mask-4)"></path>
                        <path d="M171.921312,78.7333303 C171.921312,79.4020181 171.37914,79.9439186 170.710452,79.9439186 C170.041765,79.9439186 169.499864,79.4020181 169.499864,78.7333303 C169.499864,78.0646425 170.041765,77.5227421 170.710452,77.5227421 C171.37914,77.5227421 171.921312,78.0646425 171.921312,78.7333303" id="Fill-59" fill="#DAB3FF" mask="url(#mask-4)"></path>
                        <path d="M94.3129683,83.5026244 L200.253964,83.5026244 C199.265457,81.4694118 197.990253,79.6224434 196.277131,78.1088688 C192.248172,74.5495928 186.633964,73.5876923 181.377855,72.458009 C175.038489,71.0953846 168.794688,69.2877828 162.70781,67.0531222 C159.60057,65.9120362 156.379575,64.5461538 154.375683,61.9113122 C152.492606,59.4352941 151.968896,56.2053394 151.672154,53.1084163 C151.160661,47.7684163 151.144371,42.378733 150.332335,37.0764706 C149.520299,31.7739367 147.836226,26.4537557 144.410253,22.3259729 C143.789891,21.5782805 143.111973,20.8827149 142.388443,20.239819 L94.3129683,20.239819 L94.3129683,83.5026244 Z" id="Fill-60" fill="#FFF2F6" mask="url(#mask-4)"></path>
                        <path d="M144.274344,55.22981 C144.274344,64.5648326 136.707014,72.1321629 127.371719,72.1321629 C118.036697,72.1321629 110.469367,64.5648326 110.469367,55.22981 C110.469367,45.8947873 118.036697,38.327457 127.371719,38.327457 C136.707014,38.327457 144.274344,45.8947873 144.274344,55.22981" id="Fill-61" fill="#8F98F8" mask="url(#mask-4)"></path>
                        <path d="M156.28181,42.3706154 C156.28181,48.3136018 151.464163,53.1312489 145.521176,53.1312489 C139.578462,53.1312489 134.760543,48.3136018 134.760543,42.3706154 C134.760543,36.427629 139.578462,31.6099819 145.521176,31.6099819 C151.464163,31.6099819 156.28181,36.427629 156.28181,42.3706154" id="Fill-62" fill="#FF5E85" mask="url(#mask-4)"></path>
                        <path d="M245.232163,193.939765 C242.587276,193.939765 240.435421,191.841394 240.435421,189.262751 L240.435421,142.678317 C240.435421,140.099403 242.587276,138.001303 245.232163,138.001303 L294.97162,138.001303 C297.616507,138.001303 299.768362,140.099403 299.768362,142.678588 L299.768362,189.262751 C299.768362,191.841665 297.616507,193.939765 294.971891,193.939765 L245.232163,193.939765 Z" id="Fill-63" fill="#FFFFFF" mask="url(#mask-4)"></path>
                        <path d="M246.397683,142.086163 C245.404833,142.086163 244.599855,142.839828 244.599855,143.769964 L244.599855,188.17105 C244.599855,189.101186 245.404833,189.854851 246.397683,189.854851 L293.8061,189.854851 C294.79895,189.854851 295.603928,189.101186 295.603928,188.17105 L295.603928,150.315665 L295.603928,143.769964 C295.603928,142.839828 294.79895,142.086163 293.8061,142.086163 L246.397683,142.086163 Z" id="Fill-64" fill="#FF85A3" mask="url(#mask-4)"></path>
                        <path d="M244.599828,178.922552 L244.599828,188.170968 C244.599828,189.101104 245.404805,189.855041 246.397656,189.855041 L279.597747,189.855041 L258.729149,156.002281 L244.599828,178.922552 Z" id="Fill-65" fill="#FFD4E0" mask="url(#mask-4)"></path>
                        <path d="M295.212109,189.219149 L281.474824,166.934715 L267.345502,189.854986 L293.806045,189.854986 C294.37591,189.854986 294.882516,189.606299 295.212109,189.219149" id="Fill-66" fill="#FFA3BE" mask="url(#mask-4)"></path>
                        <path d="M289.491937,152.973475 C289.491937,155.61076 287.354199,157.748498 284.716914,157.748498 C282.079629,157.748498 279.94162,155.61076 279.94162,152.973475 C279.94162,150.33619 282.079629,148.198181 284.716914,148.198181 C287.354199,148.198181 289.491937,150.33619 289.491937,152.973475" id="Fill-67" fill="#FEF6F7" mask="url(#mask-4)"></path>
                        <path d="M283.195357,32.1323348 C283.195357,21.027448 274.192914,12.0250045 263.088027,12.0250045 C251.98314,12.0250045 242.980697,21.027448 242.980697,32.1323348 C242.980697,35.6329683 243.971104,39.0888054 245.739339,42.1034661 C246.63391,43.6284434 247.725584,44.9883529 248.936172,46.2714299 C250.09219,47.4964072 251.638615,48.2921538 252.736805,49.5583982 C253.685674,50.6517014 253.799158,51.9714299 254.257167,53.2794842 C254.818072,54.8810226 256.329747,55.9531493 258.026851,55.9531493 L268.163864,55.9531493 C269.853367,55.9531493 271.360154,54.8899819 271.926489,53.2979457 C272.316624,52.2021991 272.584045,50.805095 273.191104,49.8222896 C273.947213,48.5983982 275.638615,47.9704344 276.677891,46.9781267 C278.010923,45.705095 279.193276,44.3286244 280.161149,42.7545068 C282.114,39.5796652 283.195357,35.8629231 283.195357,32.1323348" id="Fill-68" fill="#FFA3BE" mask="url(#mask-4)"></path>
                        <path d="M269.141864,19.5809593 C268.933629,19.5809593 268.722407,19.5396923 268.519059,19.4522715 C268.058606,19.2540814 267.582679,19.0797828 267.104579,18.933991 C266.270824,18.6798733 265.800869,17.7977919 266.054986,16.9640362 C266.309376,16.130552 267.192,15.6611403 268.024941,15.9149864 C268.61381,16.0944434 269.199421,16.3089231 269.766299,16.552724 C270.566932,16.8969774 270.936706,17.8252127 270.592452,18.6258462 C270.335348,19.2234027 269.753267,19.5809593 269.141864,19.5809593" id="Fill-69" fill="#FFFFFF" mask="url(#mask-4)"></path>
                        <path d="M278.460679,33.7106606 C277.589186,33.7106606 276.882217,33.0039638 276.882217,32.1324706 C276.882217,28.3103891 275.348552,24.7535566 272.563303,22.117086 C271.930181,21.5179005 271.903032,20.5190769 272.502217,19.8859548 C273.101403,19.2531041 274.100226,19.2254118 274.733077,19.8248688 C278.104751,23.016543 280.038869,27.5024253 280.038869,32.1324706 C280.038869,33.0039638 279.332172,33.7106606 278.460679,33.7106606" id="Fill-70" fill="#FFFFFF" mask="url(#mask-4)"></path>
                        <path d="M271.417738,34.3475023 C270.954299,34.2679548 270.513122,34.5782715 270.433032,35.0419819 L270.350769,35.5168235 L268.702534,36.6098552 C268.034118,37.0532036 267.148507,37.0352851 266.498824,36.5653303 L265.253213,35.6647873 C263.991855,34.7525701 262.290679,34.7433394 261.019548,35.6419819 L259.683801,36.5862353 C259.034389,37.0450588 258.153665,37.0570045 257.492308,36.6155566 L255.995837,35.6164615 L255.891041,34.9898552 C255.812851,34.5256018 255.373303,34.2122986 254.909593,34.2902172 C254.445339,34.3681357 254.132036,34.8074118 254.209955,35.2716652 L257.815656,56.7815294 C257.885701,57.1982715 258.246516,57.4928416 258.655385,57.4928416 C258.702081,57.4928416 258.749593,57.4890407 258.797376,57.4811674 C259.261629,57.4032489 259.574661,56.9639729 259.496742,56.4997195 L256.382715,37.9238824 L256.546154,38.0330226 C257.154027,38.4386335 257.85991,38.6408959 258.565792,38.6408959 C259.304796,38.6408959 260.043258,38.4193575 260.667421,37.9779095 L262.003439,37.0336561 C262.678914,36.5558281 263.583801,36.5604434 264.254389,37.0456018 L265.5,37.9464163 C266.721991,38.8301267 268.387602,38.8635204 269.644344,38.0303077 L269.951674,37.8266878 L266.724434,56.4956471 C266.644344,56.9593575 266.955204,57.4002624 267.418914,57.4803529 C267.468054,57.4887692 267.516923,57.4928416 267.565249,57.4928416 C267.972217,57.4928416 268.332217,57.2004434 268.40362,56.7858733 L272.112217,35.3324796 C272.192579,34.8684977 271.881448,34.4275928 271.417738,34.3475023" id="Fill-71" fill="#8F98F8" mask="url(#mask-4)"></path>
                        <path d="M268.796118,55.9532308 L257.379828,55.9532308 C256.526253,55.9532308 255.834217,56.645267 255.834217,57.4988416 L255.834217,63.0267149 C255.834217,63.8802896 256.526253,64.5725973 257.379828,64.5725973 L258.77286,64.5725973 C259.288968,66.4741357 261.022724,67.8747692 263.088244,67.8747692 C265.153222,67.8747692 266.886977,66.4741357 267.403357,64.5725973 L268.796118,64.5725973 C269.649964,64.5725973 270.341729,63.8802896 270.341729,63.0267149 L270.341729,57.4988416 C270.341729,56.645267 269.649964,55.9532308 268.796118,55.9532308" id="Fill-72" fill="#8F98F8" mask="url(#mask-4)"></path>
                        <path d="M263.17219,7.99941176 C262.663955,7.99941176 262.251828,7.58728507 262.251828,7.07904977 L262.251828,0.967737557 C262.251828,0.459502262 262.663955,0.0473755656 263.17219,0.0473755656 C263.680425,0.0473755656 264.092281,0.459502262 264.092281,0.967737557 L264.092281,7.07904977 C264.092281,7.58728507 263.680425,7.99941176 263.17219,7.99941176" id="Fill-73" fill="#FFA3BE" mask="url(#mask-4)"></path>
                        <path d="M276.557023,12.0825339 C276.326253,12.1308597 276.077294,12.0909502 275.864715,11.9519457 C275.439557,11.6739367 275.3201,11.1038009 275.59838,10.678371 L278.942633,5.56316742 C279.220914,5.13746606 279.79105,5.01828054 280.21648,5.29628959 C280.641638,5.57457014 280.761095,6.14470588 280.483086,6.57013575 L277.138833,11.6853394 C276.999557,11.8979186 276.78752,12.0342081 276.557023,12.0825339" id="Fill-74" fill="#FFA3BE" mask="url(#mask-4)"></path>
                        <path d="M289.538335,18.6589683 L284.167656,21.5753484 C283.72105,21.8177919 283.162588,21.6524525 282.919873,21.2058462 C282.67743,20.7592398 282.842769,20.2005068 283.289376,19.9580633 L288.660326,17.0416833 C289.106661,16.7992398 289.665394,16.9645792 289.907837,17.4111855 C290.150552,17.8577919 289.985213,18.4165249 289.538335,18.6589683" id="Fill-75" fill="#FFA3BE" mask="url(#mask-4)"></path>
                        <path d="M250.107638,12.0825339 C250.338136,12.1308597 250.587095,12.0909502 250.799674,11.9519457 C251.224833,11.6739367 251.34429,11.1038009 251.066281,10.678371 L247.721756,5.56316742 C247.443475,5.13746606 246.873339,5.01828054 246.448181,5.29628959 C246.022751,5.57457014 245.903566,6.14470588 246.181303,6.57013575 L249.525828,11.6853394 C249.664833,11.8979186 249.876869,12.0342081 250.107638,12.0825339" id="Fill-76" fill="#FFA3BE" mask="url(#mask-4)"></path>
                        <path d="M237.126081,18.6589683 L242.49676,21.5753484 C242.943638,21.8177919 243.5021,21.6524525 243.744543,21.2058462 C243.986986,20.7592398 243.821647,20.2005068 243.375312,19.9580633 L238.00409,17.0416833 C237.557756,16.7992398 236.999023,16.9645792 236.756579,17.4111855 C236.514136,17.8577919 236.679475,18.4165249 237.126081,18.6589683" id="Fill-77" fill="#FFA3BE" mask="url(#mask-4)"></path>
                        <path d="M91.7011765,117.85724 L107.283529,103.581041 C107.815385,103.093439 107.372579,102.213801 106.66371,102.351448 L85.9180995,106.381493 L91.7011765,117.85724 Z" id="Fill-78" fill="#FEF6F7" mask="url(#mask-4)"></path>
                        <polygon id="Fill-79" fill="#FF5E85" mask="url(#mask-4)" points="85.891629 106.39409 91.6747059 117.870109 14.8212217 156.597801 9.0381448 145.121783"></polygon>
                        <polygon id="Fill-80" fill="#FFA3BE" mask="url(#mask-4)" points="90.1061538 114.757222 91.6745701 117.869891 14.821086 156.597855 13.2523982 153.485186"></polygon>
                        <polygon id="Fill-81" fill="#FFA3BE" mask="url(#mask-4)" points="85.891629 106.39409 87.4603167 109.50676 10.6068326 148.234724 9.0381448 145.121783"></polygon>
                        <path d="M0.688751131,156.524362 L0.688751131,156.524362 C2.28567421,159.693502 6.14902262,160.967891 9.3181629,159.370697 L14.8210588,156.597937 L9.0379819,145.121919 L3.53508597,147.895222 C0.366217195,149.492145 -0.908171946,153.355493 0.688751131,156.524362" id="Fill-82" fill="#8F98F8" mask="url(#mask-4)"></path>
                        <polygon id="Fill-83" fill="#6974E0" mask="url(#mask-4)" points="14.926914 142.154579 20.7097195 153.630597 14.8210317 156.597747 9.03822624 145.122"></polygon>
                        <path d="M106.663792,102.351529 L99.2745611,103.786914 C100.06162,105.305104 100.988226,107.105376 101.761167,108.640398 L107.283339,103.581122 C107.815466,103.093249 107.372389,102.213882 106.663792,102.351529" id="Fill-84" fill="#FF5E85" mask="url(#mask-4)"></path>
                        <path d="M39.5487421,231.62962 L39.5487421,231.62962 C41.3058462,231.62962 42.6975204,230.145095 42.5840362,228.391792 L41.5602353,212.575683 L37.5372489,212.575683 L36.5137195,228.391792 C36.4002353,230.145095 37.791638,231.62962 39.5487421,231.62962" id="Fill-85" fill="#474BCA" mask="url(#mask-4)"></path>
                        <path d="M52.7283529,233.044072 L52.7283529,233.044072 C54.8126063,233.044072 56.1798462,230.864796 55.2725158,228.988235 L47.4991222,212.908778 L43.4761357,212.908778 L50.0701629,231.177557 C50.4744163,232.297738 51.5375837,233.044072 52.7283529,233.044072" id="Fill-86" fill="#474BCA" mask="url(#mask-4)"></path>
                        <path d="M25.4319095,233.044072 L25.4319095,233.044072 C23.3476561,233.044072 21.9804163,230.864796 22.8874751,228.988235 L30.6608688,212.908778 L34.6841267,212.908778 L28.0900995,231.177557 C27.6858462,232.297738 26.6226787,233.044072 25.4319095,233.044072" id="Fill-87" fill="#474BCA" mask="url(#mask-4)"></path>
                        <path d="M24.3670045,205.810968 L24.3670045,210.928072 C24.3670045,212.76771 31.2037466,214.259023 39.6374118,214.259023 C48.0710769,214.259023 54.9080905,212.76771 54.9080905,210.928072 L54.9080905,205.810968 L24.3670045,205.810968 Z" id="Fill-88" fill="#4C4FD6" mask="url(#mask-4)"></path>
                        <path d="M24.3670045,205.810968 C24.3670045,207.650606 31.2037466,209.14219 39.6374118,209.14219 C48.0710769,209.14219 54.9080905,207.650606 54.9080905,205.810968 C54.9080905,203.97133 48.0710769,202.480018 39.6374118,202.480018 C31.2037466,202.480018 24.3670045,203.97133 24.3670045,205.810968" id="Fill-89" fill="#7579FF" mask="url(#mask-4)"></path>
                    </g>
                    <g id="Group-93" transform="translate(33.665158, 198.414027)">
                        <mask id="mask-6" fill="white">
                            <use xlink:href="#path-5"></use>
                        </mask>
                        <g id="Clip-92"></g>
                        <path d="M0.774027149,0.0980090498 C0.774027149,0.0980090498 -0.450135747,4.40307692 0.370588235,5.83927602 L0.370588235,5.83927602 C1.19131222,7.27547511 8.61855204,6.61900452 12.5579186,6.61900452 L12.5579186,6.61900452 C16.4972851,6.61900452 17.5232579,5.96226244 16.0457919,4.52606335 L16.0457919,4.52606335 C14.5685973,3.08986425 9.22995475,2.80968326 6.379819,0.0980090498 L6.379819,0.0980090498 L0.774027149,0.0980090498 Z" id="Fill-91" fill="url(#linearGradient-7)" mask="url(#mask-6)"></path>
                    </g>
                    <g id="Group-114" transform="translate(23.348416, 110.993213)">
                        <path d="M4.45704977,46.9688959 C4.45704977,46.9688959 4.45704977,51.3602986 6.79297738,57.246543 C9.12863348,63.1327873 9.5958733,67.6175837 9.5958733,67.6175837 C9.5958733,67.6175837 9.68926697,75.4659095 10.0628416,80.2308869 C10.4366878,84.9958643 11.0907149,87.5185792 11.0907149,87.5185792 L16.6967783,87.5185792 C16.6967783,87.5185792 19.5930679,71.6351403 19.6864615,63.6000271 C19.7798552,55.5646425 14.7922534,44.2596652 14.7922534,44.2596652 L4.45704977,46.9688959 Z" id="Fill-94" fill="#FF5E85"></path>
                        <path d="M10.7170588,45.661276 C10.7170588,45.661276 9.50239819,50.8932217 12.4923529,54.3501448 C15.4820362,57.8070679 18.8455656,66.5898733 18.8455656,66.5898733 C18.8455656,66.5898733 15.7052036,68.0847149 14.6591403,73.3169321 C13.6133484,78.5491493 12.3986878,82.6600995 12.3986878,82.6600995 C12.3986878,82.6600995 15.8558824,83.220733 16.6966968,85.0894208 C16.6966968,85.0894208 25.6660181,73.5037195 27.2547964,67.1502353 C28.8427602,60.7970226 25.1990498,46.9687873 25.1990498,46.9687873 L10.7170588,45.661276 Z" id="Fill-96" fill="#FF7EA4"></path>
                        <path d="M1.14890498,31.2029321 C1.14890498,31.2029321 -0.45399095,35.2574118 0.300217195,36.2945158 C1.05469683,37.3316199 5.17867873,39.2176833 5.17867873,39.2176833 L5.17867873,31.6742443 L1.14890498,31.2029321 Z" id="Fill-98" fill="#FFADC8"></path>
                        <path d="M10.0571403,18.1216833 C10.0571403,18.1216833 4.47008145,18.9529955 1.62021719,27.2430407 C0.583113122,30.2601448 0.300217195,31.5801448 0.300217195,31.5801448 C0.300217195,31.5801448 2.94048869,32.8879276 5.76890498,33.0825882 C8.59759276,33.2772489 10.0571403,18.1216833 10.0571403,18.1216833" id="Fill-100" fill="#474BCA"></path>
                        <path d="M16.6865701,0.223140271 C22.5758009,-0.257674208 23.3834932,4.75979186 23.2396018,9.29644344 C23.0954389,13.833095 22.3186968,16.2094751 19.970552,16.2816923 C17.6226787,16.353638 9.84548416,12.9692036 10.0615928,7.20811765 C10.2777014,1.44730317 13.1579729,0.51119457 16.6865701,0.223140271" id="Fill-102" fill="#FFADC8"></path>
                        <path d="M18.8288416,14.9454299 C18.8288416,14.9454299 18.1625973,17.9687783 18.5212398,19.198371 C18.8798824,20.4282353 15.1395204,20.5305882 12.8847692,19.761991 C10.6302896,18.9933937 11.4846787,18.9654299 12.1674842,15.9700452 C12.8502896,12.9752036 12.6800633,11.8197285 12.6800633,11.8197285 L18.8288416,14.9454299 Z" id="Fill-104" fill="#FFADC8"></path>
                        <path d="M31.8554661,27.4134299 L36.6239729,29.9231131 L40.0122081,21.7036561 L43.2750136,23.2723439 C43.2750136,23.2723439 44.1603529,34.3989502 37.8160995,35.7583167 C36.059267,36.1348778 27.5889502,31.868362 27.5889502,31.868362 L31.8554661,27.4134299 Z" id="Fill-106" fill="#FFADC8"></path>
                        <path d="M19.3240995,18.3088507 C26.8892579,21.397086 33.4895294,27.2428778 33.4895294,27.2428778 C33.4895294,27.2428778 33.2698914,31.1119276 30.5666335,34.0315656 L20.3834661,29.9773575 L19.3240995,18.3088507 Z" id="Fill-108" fill="#474BCA"></path>
                        <path d="M15.1264344,17.1351312 C5.83322172,16.5967602 5.31548416,25.3518733 4.11575566,36.7505158 C3.38625339,43.6811946 3.02136652,47.6938643 3.38625339,48.1803801 C3.75114027,48.6666244 8.12842534,46.964362 13.7217285,47.2076199 C19.3150317,47.4506063 24.7867059,49.2747692 26.002724,49.0312398 C27.2187421,48.7882534 24.7867059,31.6431855 24.5437195,28.3605611 C24.3004615,25.0773937 22.8539457,17.582552 15.1264344,17.1351312" id="Fill-110" fill="#474BCA"></path>
                        <path d="M40.0122081,21.7035747 C40.0122081,21.7035747 39.078543,20.4424887 39.0440633,19.4765158 C39.0095837,18.5102715 38.5263258,16.9920814 38.0433394,16.7162443 C37.5603529,16.4401357 38.7679548,15.3014932 39.9063258,16.7162443 C41.0452398,18.130724 40.6309412,18.9731674 41.5282262,18.8626697 C42.4252398,18.7519005 45.9218009,16.9757919 47.2673213,16.1822172 C48.6128416,15.3886425 50.1655113,15.5757014 49.1305792,18.1217647 C48.0951041,20.6678281 44.4353756,22.9624887 43.2750136,23.2722624 L40.0122081,21.7035747 Z" id="Fill-112" fill="#FFADC8"></path>
                    </g>
                    <g id="Group-117" transform="translate(32.036199, 194.070136)">
                        <mask id="mask-9" fill="white">
                            <use xlink:href="#path-8"></use>
                        </mask>
                        <g id="Clip-116"></g>
                        <path d="M0.278823529,5.97122172 C1.17067873,7.93357466 6.10615385,10.6688688 7.6520362,11.739095 L7.6520362,11.739095 C9.19819005,12.8093213 12.5283258,15.2478733 13.539095,14.1773756 L13.539095,14.1773756 C14.5498643,13.1071493 13.539095,10.9066968 11.9932127,9.36081448 L11.9932127,9.36081448 C10.4467873,7.81493213 7.41420814,3.35511312 7.41420814,3.35511312 L7.41420814,3.35511312 C7.41420814,3.35511312 7.04769231,0.578552036 3.78705882,0.14361991 L3.78705882,0.14361991 C3.77402715,0.14199095 3.76045249,0.140904977 3.74633484,0.140904977 L3.74633484,0.140904977 C2.79339367,0.140633484 -0.600271493,4.03764706 0.278823529,5.97122172" id="Fill-115" fill="url(#linearGradient-10)" mask="url(#mask-9)"></path>
                    </g>
                    <g id="Group-120" transform="translate(32.307692, 109.635747)">
                        <mask id="mask-12" fill="white">
                            <use xlink:href="#path-11"></use>
                        </mask>
                        <g id="Clip-119"></g>
                        <path d="M7.2559276,0.898099548 C6.0320362,1.22769231 4.80081448,1.55728507 3.69828054,1.54859729 L3.69828054,1.54859729 C-0.330678733,1.51656109 0.279909502,5.76135747 0.279909502,8.44751131 L0.279909502,8.44751131 C0.279909502,11.1333937 1.07348416,15.2231674 4.00343891,15.4675113 L4.00343891,15.4675113 C6.93366516,15.7115837 10.4742081,14.3687783 11.240362,9.22696833 L11.240362,9.22696833 C12.0067873,4.08570136 14.4822624,6.31791855 14.2952036,4.60180995 L14.2952036,4.60180995 C13.9219005,1.1758371 12.52181,0.247330317 10.7269683,0.247330317 L10.7269683,0.247330317 C9.66461538,0.247330317 8.4638009,0.572579186 7.2559276,0.898099548" id="Fill-118" fill="url(#linearGradient-13)" mask="url(#mask-12)"></path>
                    </g>
                    <g id="Group-171" transform="translate(28.235294, 106.649321)">
                        <path d="M14.4372217,9.03168326 C14.4372217,9.03168326 10.7397557,16.5615475 3.39504977,14.8522262 C-3.94965611,13.1431765 3.43658824,8.33367421 3.43658824,8.33367421 L14.4372217,9.03168326 Z" id="Fill-121" fill="#8F98F8"></path>
                        <path d="M18.8196923,7.2219095 C18.8196923,7.2219095 15.6453937,9.72480543 9.4800543,9.41964706 C3.31444344,9.11421719 3.43661538,8.33367421 3.43661538,8.33367421 C3.43661538,8.33367421 2.39896833,0.0186515837 10.7009593,0.0186515837 C19.0029502,0.0186515837 18.8196923,7.2219095 18.8196923,7.2219095" id="Fill-123" fill="#8F98F8"></path>
                        <path d="M15.9857104,12.2135294 C15.9857104,12.2135294 14.5549412,9.90882353 13.8398281,11.6572398 C13.1244434,13.4059276 14.2220905,15.4866516 15.7641719,15.5830317 L15.9857104,12.2135294 Z" id="Fill-125" fill="#FFADC8"></path>
                        <path d="M169.046226,73.9024072 C169.046226,73.9024072 168.19238,75.4273846 166.401339,75.4273846 C164.610027,75.4273846 164.147946,76.9993303 163.801249,76.1845792 C163.454552,75.3695566 164.32143,74.1106425 165.303421,73.9024072 C166.285683,73.6939005 167.704507,71.57381 169.046226,71.6805068 C170.387946,71.7874751 169.046226,73.9024072 169.046226,73.9024072" id="Fill-127" fill="#FFADC8"></path>
                        <path d="M169.046226,70.8260905 C169.046226,70.8260905 164.974371,70.4427421 163.723602,70.8260905 C162.47229,71.2094389 160.680977,74.587629 161.085774,75.1520633 C161.490027,75.7164977 162.857267,76.0857285 163.733919,75.6407511 C164.610027,75.1963167 164.834552,73.2320633 165.59229,73.2469955 C166.350027,73.2619276 169.568308,72.766181 169.568308,72.766181 L169.046226,70.8260905 Z" id="Fill-129" fill="#FFADC8"></path>
                        <path d="M191.403855,62.0521357 C190.371638,62.9239005 184.283946,69.4370226 182.420416,70.8259819 C180.556615,72.2154842 169.046118,70.8259819 169.046118,70.8259819 L169.046118,73.9022715 C169.046118,73.9022715 178.274443,76.1847149 181.251095,76.1847149 C184.228018,76.1847149 189.685846,72.3145792 189.685846,72.3145792 L191.403855,62.0521357 Z" id="Fill-131" fill="#FFADC8"></path>
                        <path d="M222.48505,118.990425 C222.48505,118.990425 226.429303,116.750606 227.423511,120.09486 C228.417991,123.439656 227.965955,125.973231 228.77962,128.593412 C229.593014,131.213321 229.340253,134.721014 227.061882,132.117394 C225.796452,130.670878 222.851566,123.840109 220.617991,122.058027 L222.48505,118.990425 Z" id="Fill-133" fill="#FFADC8"></path>
                        <path d="M200.211747,103.385647 C200.211747,103.385647 200.211747,111.654787 205.813466,115.522751 C211.415186,119.390443 220.617991,122.057864 220.617991,122.057864 L222.48505,118.990534 C222.48505,118.990534 212.882335,111.521484 210.748398,109.654425 C208.61419,107.787095 208.480887,100.051439 208.480887,100.051439 L200.211747,103.385647 Z" id="Fill-135" fill="#FFADC8"></path>
                        <path d="M189.808561,100.851529 C189.808561,100.851529 183.139873,110.854697 180.605756,127.526281 L184.473719,128.59352 C184.473719,128.59352 188.341412,122.191439 189.275077,117.256507 C190.208742,112.321846 199.411548,103.51895 199.411548,103.51895 L189.808561,100.851529 Z" id="Fill-137" fill="#FFADC8"></path>
                        <path d="M184.473611,128.593439 C184.473611,128.593439 186.229629,133.292715 182.420579,133.654072 C178.611258,134.015701 171.560579,134.467738 169.843113,133.654072 C168.125647,132.840679 177.345828,130.399683 178.520851,129.58629 C179.695873,128.772896 180.605647,127.526199 180.605647,127.526199 L184.473611,128.593439 Z" id="Fill-139" fill="#FFADC8"></path>
                        <path d="M185.767466,46.9333575 C185.767466,46.9333575 184.768914,55.0632217 184.269638,62.0522715 C184.269638,62.0522715 188.120769,59.912905 193.184118,59.912905 L191.900498,45.0793303 L185.767466,46.9333575 Z" id="Fill-141" fill="#121674"></path>
                        <path d="M193.264534,42.5541991 C186.535032,43.0999005 187.116027,49.9086787 187.356842,54.2487692 C187.598199,58.5894027 191.335846,59.5537466 195.434851,57.0218009 C199.534127,54.4901267 200.377928,51.3551946 200.136842,48.7027059 C199.895756,46.0504887 197.72571,42.1922986 193.264534,42.5541991" id="Fill-143" fill="#FFADC8"></path>
                        <path d="M193.702018,61.1705701 C193.702018,61.1705701 190.57876,61.5979005 190.082742,63.5825158 C189.586452,65.5668597 186.279937,72.5130136 188.727176,76.1846878 C191.174145,79.855819 192.464009,80.3521086 192.464009,82.534914 C192.464009,84.717991 183.235955,91.3641448 182.441837,99.7017014 C182.044914,103.869122 187.204914,102.876814 190.677855,103.571566 C194.150796,104.266045 196.036317,108.532833 203.379394,106.250661 C210.721928,103.968489 219.454235,103.174643 221.141023,98.8087602 C222.82781,94.4426063 217.568986,91.9617014 214.095774,89.2826063 C210.622833,86.6035113 204.073873,81.9398009 204.073873,79.1613394 C204.073873,76.3828778 208.180751,63.0191674 203.379394,62.0521086 C198.577493,61.0853213 193.702018,61.1705701 193.702018,61.1705701" id="Fill-145" fill="#4491FF"></path>
                        <path d="M192.095593,57.4807602 C192.095593,57.4807602 193.348262,59.9073665 193.184281,61.3514389 C193.020027,62.7955113 191.92238,62.1021176 191.575683,63.0843801 C191.229258,64.0666425 190.997946,68.4569593 195.157222,67.9370498 C199.316769,67.4171403 200.806452,64.7592217 200.760842,63.0268235 C200.703828,60.8423891 198.450163,61.6978643 198.04591,60.5423891 C197.641656,59.3871855 197.179303,54.3613032 197.179303,54.3613032 L192.095593,57.4807602 Z" id="Fill-147" fill="#FFADC8"></path>
                        <path d="M204.0739,63.4833122 C208.965937,66.7971584 199.205484,77.1768869 196.082769,79.3599638 C192.960054,81.5430407 182.420416,78.2682896 182.420416,78.2682896 C182.420416,78.2682896 182.144579,76.2836742 183.632905,75.5891946 C183.632905,75.5891946 191.968018,75.3904615 194.25019,74.6962534 C196.532633,74.0015023 200.997882,61.3993303 204.0739,63.4833122" id="Fill-149" fill="#FFADC8"></path>
                        <path d="M208.277538,110.704045 L139.486588,92.894905 C138.791023,92.7146335 138.373195,92.0049502 138.553195,91.3091131 L144.227674,69.3903801 C144.407674,68.6948145 145.117629,68.2769864 145.813195,68.4569864 L214.604416,86.2658552 C215.29971,86.4461267 215.71781,87.1560814 215.537538,87.8516471 L209.863059,109.770652 C209.683059,110.466217 208.973376,110.884045 208.277538,110.704045" id="Fill-151" fill="#FFFFFF"></path>
                        <path d="M161.912389,95.4564163 L143.520624,90.6952398 C143.061801,90.5763258 142.786235,90.1082715 142.904878,89.6491765 L147.227321,72.9534299 C147.346235,72.4948778 147.81429,72.2190407 148.273113,72.3379548 L166.664878,77.0994027 C167.12343,77.2180452 167.399267,77.686371 167.280353,78.1449231 L162.958181,94.8406697 C162.839267,95.2997647 162.370941,95.5750588 161.912389,95.4564163" id="Fill-153" fill="#FF7EA4"></path>
                        <path d="M202.738425,91.476 C202.630371,91.476 202.519873,91.4624253 202.410462,91.4344615 L171.209919,83.3569955 C170.512181,83.176181 170.093267,82.4643258 170.27381,81.7665882 C170.454624,81.0691222 171.167023,80.6499367 171.863674,80.8304796 L203.064217,88.9079457 C203.762226,89.0884887 204.180869,89.8006154 204.000597,90.49781 C203.84829,91.0858643 203.318878,91.476 202.738425,91.476" id="Fill-155" fill="#CCCCFF"></path>
                        <path d="M184.764217,92.9320995 C184.656163,92.9320995 184.545937,92.9185249 184.436253,92.8902896 L169.727837,89.0823258 C169.0301,88.9017828 168.611186,88.1896561 168.791729,87.4924615 C168.972271,86.7949955 169.684398,86.3766244 170.381593,86.5560814 L185.090281,90.3637738 C185.788018,90.5443167 186.206661,91.2564434 186.026389,91.9539095 C185.874081,92.5419638 185.34467,92.9320995 184.764217,92.9320995" id="Fill-157" fill="#CCCCFF"></path>
                        <path d="M183.503511,97.802009 C183.395457,97.802009 183.285231,97.7884344 183.175548,97.7604706 L168.46686,93.9522353 C167.769122,93.7716923 167.350208,93.0595656 167.530751,92.3620995 C167.711566,91.6646335 168.424235,91.245991 169.120615,91.425991 L183.829575,95.2339548 C184.527312,95.4144977 184.946226,96.1266244 184.765683,96.823819 C184.613376,97.4118733 184.083964,97.802009 183.503511,97.802009" id="Fill-159" fill="#CCCCFF"></path>
                        <path d="M183.632905,75.5891403 C183.632905,75.5891403 178.535077,74.2838009 176.685937,76.1845249 C174.837339,78.0852489 174.432543,79.1828959 175.703674,79.818733 C176.975077,80.4542986 178.332,80.9793665 179.300145,80.1100452 C180.26829,79.240724 181.590462,78.0260633 182.420416,78.2682353 C183.250643,78.5106787 183.632905,75.5891403 183.632905,75.5891403" id="Fill-161" fill="#FFADC8"></path>
                        <path d="M183.302796,77.1345882 C183.302796,77.1345882 183.822977,78.2938643 181.712932,79.8763982 C180.788226,80.5697919 179.816009,79.8500633 181.342072,78.505629 C182.868407,77.1609231 183.302796,77.1345882 183.302796,77.1345882" id="Fill-163" fill="#FFADC8"></path>
                        <path d="M194.325339,48.1457919 C194.325339,48.1457919 186.480543,49.2154751 184.269774,47.5751131 C184.269774,47.5751131 185.767602,38.2330317 194.68181,38.2330317 C199.17448,38.2330317 201.813394,41.8702262 203.168145,44.9367421 C204.523439,48.0032579 205.307783,58.4025339 205.307783,58.4025339 C205.307783,58.4025339 198.675204,62.4086878 195.68009,62.4086878 C195.68009,62.4086878 196.750045,52.281991 194.325339,48.1457919" id="Fill-165" fill="#121674"></path>
                        <path d="M174.20009,131.169692 C174.850588,133.484986 182.717647,130.753493 184.681357,129.304534 C184.681357,129.304534 185.609593,131.181367 184.681357,133.784172 C183.753122,136.386977 169.076199,135.447882 169.003982,134.109964 C168.931765,132.772045 174.20009,131.169692 174.20009,131.169692" id="Fill-167" fill="#FF5E85"></path>
                        <path d="M222.48505,118.990425 C222.48505,118.990425 226.202063,116.176398 227.624688,119.690063 C229.046769,123.204271 230.23591,132.951149 229.202063,133.243819 C228.168489,133.53676 226.924507,132.101376 226.234643,130.8821 C226.234643,130.8821 227.331747,130.650244 226.913376,128.14029 C226.495005,125.630335 225.210299,118.917937 222.48505,118.990425" id="Fill-169" fill="#FF5E85"></path>
                    </g>
                </g>
            </g>
        </g>
    </g>
</svg>