<?xml version="1.0" encoding="UTF-8"?>
<svg width="280px" height="251px" viewBox="0 0 280 251" version="1.1" xmlns="http://www.w3.org/2000/svg" xmlns:xlink="http://www.w3.org/1999/xlink">
    <!-- Generator: Sketch 61.2 (89653) - https://sketch.com -->
    <title>img-new-services-mobile-apps</title>
    <desc>Created with Sketch.</desc>
    <defs>
        <linearGradient x1="50.3198148%" y1="34.424871%" x2="49.2657371%" y2="85.7585777%" id="linearGradient-1">
            <stop stop-color="#FFFFFF" stop-opacity="0" offset="0%"></stop>
            <stop stop-color="#FFF2F6" stop-opacity="0.402371066" offset="51%"></stop>
            <stop stop-color="#FFFFFF" stop-opacity="0" offset="100%"></stop>
        </linearGradient>
        <linearGradient x1="75.3023571%" y1="54.5409627%" x2="14.118846%" y2="46.0907148%" id="linearGradient-2">
            <stop stop-color="#FFBF31" offset="0%"></stop>
            <stop stop-color="#FFDD33" offset="100%"></stop>
        </linearGradient>
        <linearGradient x1="-1178.12074%" y1="1453.26445%" x2="-1079.86134%" y2="1453.26445%" id="linearGradient-3">
            <stop stop-color="#FFBF31" offset="0%"></stop>
            <stop stop-color="#FFDD33" offset="100%"></stop>
        </linearGradient>
    </defs>
    <g id="Page-1" stroke="none" stroke-width="1" fill="none" fill-rule="evenodd">
        <g id="Home-page-5-Copy-2" transform="translate(-90.000000, -129.000000)" fill-rule="nonzero">
            <g id="img-new-services-mobile-apps" transform="translate(90.000000, 129.000000)">
                <path d="M88.3517137,124.353632 C12.0086694,124.983604 -27.1087702,181.058863 21.4727823,201.850758 C70.0543347,222.642653 27.1511089,237.76339 90.244254,246.584407 C153.337399,255.405425 270.690423,253.514804 269.428024,212.561691 C268.165625,171.608579 200.025706,187.98926 193.085685,145.145527 C186.145665,102.301793 88.3517137,124.353632 88.3517137,124.353632 Z" id="Path" fill="#FFFFFF" opacity="0.329999983"></path>
                <polygon id="Path" fill="url(#linearGradient-1)" points="248.725806 194.200192 1.16572581 186.203058 1.16572581 0.200192 248.725806 0.200192"></polygon>
                <path d="M162.736592,15.38116 L162.736592,42.055612 C162.736592,43.2276995 163.206254,44.3510417 164.041813,45.1741847 C164.877373,45.9973278 166.008557,46.4515281 167.182157,46.4351153 C190.741532,46.082782 215.015726,48.1432273 239.899597,52.2901907 C241.171591,52.502342 242.472625,52.1447576 243.456773,51.3125137 C244.440921,50.4802698 245.008468,49.2577044 245.008468,47.9698793 L245.008468,21.239054 C245.008468,19.1041338 243.468328,17.27975 241.360988,16.920152 C216.151109,12.6364833 191.364617,10.5682867 167.056552,11.000952 C164.661303,11.040155 162.73935,12.9889128 162.736592,15.38116 L162.736592,15.38116 Z" id="Path" fill="#FF85A3" opacity="0.15"></path>
                <path d="M232.609577,26.0878653 C232.581871,26.0870406 232.554375,26.08278 232.527722,26.0751813 C228.387702,24.8906367 206.5875,21.5230347 184.94748,20.649248 C184.767431,20.6434104 184.626211,20.4929216 184.631881,20.313122 C184.637902,20.1333224 184.7886,19.9922984 184.968649,19.998136 L184.973589,19.998136 C207.201411,20.896586 229.010786,24.3924373 232.707661,25.4494373 C232.864438,25.4956373 232.962896,25.6504311 232.938135,25.8117808 C232.913373,25.9731304 232.773013,26.0913753 232.609577,26.0886189 L232.609577,26.0878653 Z" id="Path" fill="#FF5E85" opacity="0.5"></path>
                <ellipse id="Oval" fill="#FF5E85" cx="214.907762" cy="22.8576733" rx="2.2827621" ry="2.27959667"></ellipse>
                <path d="M233.615827,33.4840834 C233.588111,33.4833269 233.560602,33.4790642 233.533972,33.4713627 C229.393246,32.286818 207.59375,28.919216 185.95373,28.0454293 C185.773681,28.0395917 185.632461,27.8891029 185.638131,27.7093033 C185.644152,27.5295037 185.79485,27.3884797 185.974899,27.3943173 L185.979839,27.3943173 C207.670665,28.270218 229.55131,31.654732 233.713206,32.844914 C233.869832,32.8910919 233.968257,33.0456698 233.943692,33.206898 C233.919127,33.3681262 233.779119,33.4864769 233.615827,33.4840834 L233.615827,33.4840834 Z" id="Path" fill="#FF5E85" opacity="0.5"></path>
                <ellipse id="Oval" fill="#FF5E85" cx="201.701613" cy="29.039714" rx="2.2827621" ry="2.27959667"></ellipse>
                <path d="M233.607359,42.3889682 C233.57988,42.3881474 233.552611,42.3838852 233.52621,42.3762353 C229.385484,41.1916907 207.585282,37.8240887 185.945262,36.950302 C185.765213,36.9444644 185.623993,36.7939756 185.629664,36.614176 C185.635684,36.4343764 185.786382,36.2933524 185.966431,36.29919 L185.972077,36.29919 C207.662198,37.1750907 229.543548,40.5596047 233.705444,41.7497867 C233.86222,41.7959867 233.960679,41.9507804 233.935917,42.1121301 C233.911155,42.2734797 233.770795,42.3917246 233.607359,42.3889682 L233.607359,42.3889682 Z" id="Path" fill="#FF5E85" opacity="0.5"></path>
                <ellipse id="Oval" fill="#FF5E85" cx="206.260786" cy="37.9516333" rx="2.2827621" ry="2.27959667"></ellipse>
                <path d="M78.413409,70.3310667 L78.413409,85.2798653 C78.4143576,86.2693763 78.0201838,87.2184264 77.3181987,87.9167927 C76.6162136,88.6151591 75.6643622,89.0051954 74.6734879,89.0005053 C64.8071573,88.9363807 54.6762097,90.073008 44.3166331,92.2624073 C43.2169224,92.4960141 42.0703753,92.2214145 41.1964009,91.5151074 C40.3224265,90.8088003 39.8144228,89.7462659 39.8139113,88.6235087 L39.8139113,73.7367207 C39.8144435,71.9894947 41.0310374,70.4774544 42.7395161,70.1006407 C53.5711694,67.704774 64.234879,66.4962707 74.7122984,66.605494 C76.7608264,66.6225129 78.4127035,68.2853086 78.413409,70.3310667 Z" id="Path" fill="#474BCA" opacity="0.15"></path>
                <path d="M159.34244,90.191392 L160.976008,112.512413 C173.365726,111.135495 186.330544,111.691477 199.77873,113.884399 L198.136694,91.4456987 C184.821875,89.2640507 171.873286,88.7651467 159.34244,90.191392 Z" id="Path" fill="#474BCA" opacity="0.15"></path>
                <rect id="Rectangle" fill="#A064FF" x="72.7908266" y="0.587388" width="105.985786" height="197.398273" rx="9.07258065"></rect>
                <path d="M37.554988,48.8166663 L214.012452,48.8166663 C218.187991,48.8166663 221.572935,52.2016102 221.572935,56.3771502 L221.572935,142.195195 C221.572935,146.370734 218.187991,149.755678 214.012452,149.755678 L37.554988,149.755678 C33.379448,149.755678 29.9945041,146.370734 29.9945041,142.195195 L29.9945041,56.3771502 C29.9945041,52.2016102 33.379448,48.8166663 37.554988,48.8166663 Z" id="Rectangle" fill="#FFFFFF" transform="translate(125.783720, 99.286172) rotate(90.000000) translate(-125.783720, -99.286172) "></path>
                <path d="M140.757863,9.12724365 L110.809577,9.12724365 C109.98451,9.12761742 109.193129,8.80048122 108.609719,8.21788011 C108.026309,7.635279 107.698718,6.84499497 107.699092,6.02107267 L107.699092,1.77757 L143.869052,1.77757 L143.869052,6.02107267 C143.869052,6.84500245 143.541245,7.63517593 142.957763,8.21771618 C142.374282,8.80025644 141.582937,9.12743025 140.757863,9.12724365 L140.757863,9.12724365 Z" id="Path" fill="#A064FF"></path>
                <rect id="Rectangle" fill="#B2C3FB" x="105.963911" y="189.375339" width="39.6396169" height="2.519888" rx="0.453629032"></rect>
                <rect id="Rectangle" fill="#DFCBFF" x="89.1893145" y="26.9095067" width="33.4341734" height="33.3878113" rx="1.48487903"></rect>
                <rect id="Rectangle" fill="#DFCBFF" x="100.084476" y="159.345969" width="49.7049395" height="17.381308" rx="1.48487903"></rect>
                <rect id="Rectangle" fill="#DFCBFF" x="139.233669" y="85.4271407" width="23.5925403" height="21.16114" rx="1.48487903"></rect>
                <rect id="Rectangle" fill="#DFCBFF" x="129.363105" y="34.922976" width="34.2774194" height="5.039776" rx="0.793850806"></rect>
                <rect id="Rectangle" fill="#DFCBFF" opacity="0.5" x="129.363105" y="41.222696" width="26.0757056" height="2.72987867" rx="0.491431452"></rect>
                <g id="Group" opacity="0.74" transform="translate(9.102823, 99.645200)">
                    <path d="M38.3412305,3.13929 L38.3412305,39.6022667 C38.3422021,41.1310588 37.2252076,42.4315139 35.711996,42.6633387 C27.6789315,43.88664 4.00171371,48.6001553 4.00171371,61.6456493 L4.00171371,11.6425027 C4.00171371,11.6425027 4.00171371,0.737081333 35.1742944,0.0450986667 C36.0078028,0.0269008179 36.8135017,0.344820814 37.4094268,0.927057562 C38.0053519,1.50929431 38.3412305,2.30673842 38.3412305,3.13929 Z" id="Path" fill="#FF5E85" opacity="0.15"></path>
                    <path d="M0.104008122,27.5186427 L0.104008122,27.8780227 C0.0941811197,27.7583294 0.0941811197,27.6383359 0.104008122,27.5186427 L0.104008122,27.5186427 Z" id="Path" fill="#07AE7B" opacity="0.51"></path>
                    <path d="M46.3517137,37.8053667 L46.3517137,77.315322 C46.3517137,78.4408231 45.8471528,79.5072173 44.9764443,80.2218645 C44.1057358,80.9365117 42.9603622,81.2243409 41.8546371,81.006366 C26.216129,77.9185167 10.8768145,72.1923953 4.00171371,61.6470587 L4.00171371,12.0018827 C4.09979839,14.387884 6.30423387,28.0133187 43.191129,34.0931827 C45.0126853,34.3909579 46.3503902,35.9621249 46.3517137,37.8053667 Z" id="Path" fill="#FF5E85" opacity="0.15"></path>
                </g>
                <path d="M67.2712702,15.7482913 L67.2712702,44.9806833 C67.2712702,45.5734941 67.0314862,46.1411711 66.6063114,46.5548764 C66.1811366,46.9685816 65.6066394,47.1932292 65.0132056,47.177834 C46.844254,46.71064 28.099496,50.661706 8.8671371,55.058826 C8.21338773,55.2093043 7.52660254,55.0539981 7.00154724,54.6369508 C6.47649194,54.2199035 6.17016129,53.5866001 6.17016129,52.9166393 L6.17016129,21.8147667 C6.17096132,20.7906216 6.87869416,19.9022175 7.87782258,19.6711707 C27.3155242,15.1458013 46.4152218,12.9979773 65.133871,13.548322 C66.3245425,13.5844965 67.2712702,14.5587207 67.2712702,15.7482913 L67.2712702,15.7482913 Z" id="Path" fill="#FF85A3" opacity="0.15"></path>
                <path d="M52.2798387,22.4842 L52.2798387,27.7692 C42.1693548,28.0933467 31.8909274,29.1862847 21.459375,30.9852987 L21.459375,25.5755727 C31.8351815,23.8134362 42.1086694,22.7829787 52.2798387,22.4842 Z" id="Path" fill="#FFA3BE"></path>
                <path d="M52.2798387,32.82166 L52.2798387,38.10666 C42.1693548,38.4308067 31.8909274,39.5237447 21.459375,41.3234633 L21.459375,35.9137373 C31.8351815,34.1525404 42.1086694,33.121848 52.2798387,32.82166 Z" id="Path" fill="#FFA3BE"></path>
                <g id="Group" opacity="0.74" transform="translate(23.145161, 141.643333)">
                    <path d="M17.6799395,10.5263107 C17.6879194,10.9080046 17.6590902,11.2895794 17.5938508,11.6657567 L20.4488911,13.2096813 L19.2492944,15.9959333 L17.9346774,15.81272 L17.5649194,15.0840947 L16.3166331,14.409024 C16.0362527,14.7279646 15.7193688,15.0129538 15.3724798,15.2581473 L16.8642137,18.2219753 L13.9633065,19.2677007 L12.6486895,19.0837827 L11.9430444,16.2778 C11.633784,16.2775092 11.3249146,16.2558477 11.0186492,16.2129707 C10.7487986,16.1752127 10.4813773,16.1218026 10.2177419,16.0530113 L9.10282258,18.818828 L7.78820565,18.6356147 L7.69506048,18.089498 L6.01633065,17.226986 L7.11854839,14.49147 C6.79622922,14.2316048 6.49296645,13.9490148 6.21108871,13.64587 L3.50352823,14.8142073 L2.18891129,14.630994 L2.9171371,14.1835307 L2.97711694,13.8882753 L1.79304435,11.8095087 L3.53104839,11.0597433 L4.08568548,8.25869333 C4.08004032,8.24741867 4.08568548,8.231916 4.08568548,8.21641333 L3.72368952,7.60053467 L1.31532258,6.29972 L2.00332661,4.695194 L1.19959677,3.33025467 L2.51421371,3.513468 L4.86118952,4.781868 L5.54002016,4.56694467 L5.83850806,3.15338333 L4.89929435,1.29024467 L6.33669355,0.770905333 L6.48558468,0.061306 L7.80090726,0.244519333 L9.14163306,2.91027333 C9.67492946,2.85707708 10.2126814,2.86772258 10.7434476,2.94198333 C10.8803427,2.96100933 11.0115927,2.984968 11.1435484,3.01245 L11.343246,0.508064667 L12.6585685,0.691278 L15.7443548,2.28382467 L14.7515121,4.762842 C14.9632746,4.93857569 15.1658282,5.12508989 15.3583669,5.32164267 L16.9474798,4.51479933 L18.2628024,4.69801267 L19.9683468,7.70200667 L17.4125,8.80128667 C17.574526,9.36264562 17.6643937,9.94230507 17.6799395,10.5263107 Z M10.8048387,5.836754 C8.68790323,5.540794 7.00493952,6.97549533 7.04657258,9.043692 C7.08820565,11.1118887 8.8375,13.0250587 10.9579637,13.320314 C13.0784274,13.6155693 14.7578629,12.17664 14.7162298,10.113376 C14.6745968,8.050112 12.9196573,6.1306 10.8048387,5.836754 L10.8048387,5.836754 Z" id="Shape" fill="url(#linearGradient-2)"></path>
                    <path d="M16.3653226,10.3409833 C16.3733287,10.722678 16.3444994,11.1042553 16.2792339,11.4804293 L19.1349798,13.0250587 L17.9353831,15.810606 L15.0027218,14.2236967 C14.7223414,14.5426372 14.4054575,14.8276264 14.0585685,15.07282 L15.5495968,18.036648 L12.6486895,19.0823733 L11.134375,16.0783793 C10.6566556,16.1112439 10.176806,16.0942398 9.70262097,16.0276433 C9.43276088,15.9902569 9.16533165,15.9370805 8.90171371,15.8683887 L7.78891129,18.6342053 L4.703125,17.0416587 L5.80534274,14.3047333 C5.48253774,14.0454274 5.17923569,13.7628008 4.89788306,13.4591333 L2.1875,14.62888 L0.479133065,11.627 L3.12177419,10.4924867 C2.89974012,9.8332668 2.77888259,9.14428879 2.76330645,8.44895333 C2.75910159,8.17666132 2.77182767,7.90437121 2.80141129,7.633654 L0,6.11439267 L1.19959677,3.32814067 L3.92832661,4.80159867 C4.22114845,4.42509083 4.56367564,4.08991283 4.94657258,3.8052 L3.58608871,1.09928 L6.48699597,0.0542593333 L7.82772177,2.72001333 C8.36075439,2.66657927 8.89827322,2.67698827 9.42883065,2.75101867 C9.74384957,2.79687027 10.0554847,2.86348937 10.3616935,2.95043933 L11.3439516,0.502427333 L14.4297379,2.09426933 L13.4368952,4.57328667 C13.8038021,4.88049597 14.1450506,5.21702924 14.4572581,5.57955067 L16.9481855,4.50845733 L18.6537298,7.513156 L16.0978831,8.61173133 C16.260264,9.17445532 16.3501352,9.75555804 16.3653226,10.3409833 Z M9.49092742,5.65142667 C7.37399194,5.35617133 5.69032258,6.790168 5.73266129,8.85906933 C5.775,10.9279707 7.52358871,12.8397313 9.64334677,13.1356913 C11.7631048,13.4316513 13.4439516,11.9913127 13.4016129,9.92804867 C13.3592742,7.86478467 11.6050403,5.94597733 9.49092742,5.65142667 Z" id="Shape" fill="url(#linearGradient-3)"></path>
                </g>
                <path d="M222.489919,149.933737 L222.489919,156.506163 C222.489919,159.13316 219.641935,160.775033 217.364113,159.461535 L211.663911,156.175674 L205.964415,152.889109 C203.685887,151.57561 203.685887,148.291863 205.964415,146.978365 L211.663911,143.691799 L217.364113,140.405939 C219.641935,139.09244 222.489919,140.734313 222.489919,143.361311 L222.489919,149.933737 Z" id="Path" fill="#FF5E85" opacity="0.5"></path>
                <path d="M236.700202,125.341575 L228.339012,121.918304 C227.392742,121.531442 226.626411,120.451893 226.626411,119.506935 L226.626411,111.157339 C226.626411,110.213086 227.392742,109.761395 228.339012,110.148257 L236.700202,113.571527 C237.645766,113.958389 238.412802,115.037939 238.412802,115.982897 L238.412802,124.332492 C238.412802,125.276745 237.645766,125.728437 236.700202,125.341575 Z" id="Path" fill="#FF5E85" opacity="0.5"></path>
                <g id="Group" opacity="0.15" transform="translate(191.018145, 99.081467)" fill="#FF5E85">
                    <path d="M31.5176411,0.048622 L31.5176411,36.8815487 C31.5176411,36.8815487 53.7927419,40.0384553 53.7927419,53.718854 L53.7927419,10.1775007 C53.7927419,10.1775007 53.7927419,0.048622 31.5176411,0.048622 Z" id="Path" opacity="0.51"></path>
                    <path d="M0.802318548,32.2772567 L0.0169354839,73.581998 C0.0169354839,73.581998 42.9984879,75.9503827 53.7927419,53.718854 L53.7927419,10.1775007 C53.7927419,10.1775007 55.1666331,32.2772567 0.802318548,32.2772567 Z" id="Path" opacity="0.51"></path>
                </g>
                <path d="M149.651815,232.386079 C149.617944,233.496633 150.054032,235.198403 149.280645,235.614861 C148.507258,236.031319 143.279133,236.048231 139.692339,236.328689 C136.105544,236.609146 132.595665,234.88835 132.071371,233.829236 C131.547077,232.770122 132.716331,231.303711 132.716331,231.303711 L149.651815,232.386079 Z" id="Path" fill="#FFFFFF"></path>
                <path d="M141.581351,129.608331 C141.203125,130.379941 137.639617,132.228282 133.070565,131.912591 C131.851782,131.829958 130.647951,131.596816 129.486593,131.218495 C128.213066,130.803453 126.998499,130.226025 125.872984,129.500517 C125.002867,128.942584 124.183099,128.309983 123.422984,127.609897 C119.123488,123.677152 116.789919,116.886984 115.618548,110.979763 C115.010282,107.910235 114.715323,105.080294 114.624294,103.013507 C114.55373,101.480857 114.596069,100.367483 114.704032,99.8918333 C114.829913,99.394118 115.057417,98.9277445 115.372278,98.5219613 L115.372278,98.5219613 C116.703125,96.7602947 119.44244,95.9654307 119.888407,101.873356 C120.443044,109.219506 124.281754,117.690304 133.589919,118.81918 C133.589214,118.819885 142.204435,128.334294 141.581351,129.608331 Z" id="Path" fill="#FFC1C2"></path>
                <path d="M117.636694,102.204549 C116.965625,103.289736 115.684879,103.895749 114.667339,103.857697 C114.567843,102.325752 114.589718,101.212379 114.687802,100.735319 C114.803301,100.235254 115.021742,99.7646609 115.329234,99.353468 C116.72994,100.424561 117.636694,102.204549 117.636694,102.204549 Z" id="Path" fill="#FC9D9D"></path>
                <path d="M119.718347,99.5042667 C119.718347,99.5042667 119.850302,101.569645 118.609073,102.46739 C118.230847,102.74221 116.794153,103.267891 115.774496,102.878915 C113.905948,102.165088 112.286492,100.079979 112.770565,97.6566307 C113.254637,95.233282 115.835181,95.9999593 116.92752,95.79772 C118.019859,95.5954807 115.461895,90.929178 116.363004,89.9750593 C117.142742,89.1562367 118.832762,93.427926 119.487601,97.537542 C119.596976,98.2083847 119.677419,98.8700667 119.718347,99.5042667 Z" id="Path" fill="#FFC1C2"></path>
                <path d="M138.787702,162.650856 C136.341935,173.56121 134.384476,189.031462 140.418448,191.636615 C146.452419,194.241767 168.714819,201.346921 169.532661,200.369549 C170.350504,199.392176 170.661694,196.522069 169.848085,195.653919 C169.034476,194.78577 154.44244,188.705906 151.995262,179.749593 C149.548085,170.793279 155.582762,154.182877 151.505544,153.857321 C147.428327,153.531765 138.787702,162.650856 138.787702,162.650856 Z" id="Path" fill="#000B28"></path>
                <path d="M144.657258,159.882221 C141.559476,169.978685 138.623992,180.075149 138.623992,188.543128 C138.623992,197.011107 143.790726,224.502268 143.627722,226.293531 C143.464718,228.084793 147.312601,226.404163 148.698488,226.404163 C150.084375,226.404163 148.734476,207.432423 151.343246,197.824997 C153.952016,188.217572 168.137601,171.769947 166.671976,158.742775 C165.206351,145.715602 144.657258,159.882221 144.657258,159.882221 Z" id="Path" fill="#000D3A"></path>
                <path d="M167.597077,160.642556 C165.322782,163.873453 159.739012,160.713023 154.189819,159.746925 C152.842742,159.512975 151.497782,159.408685 150.202923,159.556665 C143.569859,160.317 137.890827,168.268459 137.401815,163.546487 C136.912802,158.824516 138.706552,151.414241 141.641331,143.598079 C144.576109,135.781916 140.744456,131.384796 143.598085,124.46356 C146.451714,117.542324 154.116431,118.113104 158.926815,115.588988 C158.926815,115.588988 168.140423,117.325991 167.053024,125.249968 C166.796875,127.119449 166.849093,129.855669 167.041028,132.994959 C167.204032,135.660713 167.468649,138.618199 167.731149,141.585551 C167.815827,142.534737 167.899093,143.483923 167.978831,144.426767 C168.603327,151.775735 169.009778,158.634961 167.597077,160.642556 Z" id="Path" fill="#F05831"></path>
                <path d="M153.790423,131.547574 C153.352923,132.419951 148.319556,133.978674 142.689919,134.188665 L142.689919,134.188665 C141.951109,134.216851 141.201008,134.221079 140.450907,134.197121 C138.393246,134.133701 136.328528,133.861699 134.440222,133.285282 C126.6125,130.895757 128.468347,129.425823 128.468347,129.425823 L133.084677,119.25255 C134.294153,119.350499 135.463407,119.393483 136.593851,119.399121 C145.576008,119.43224 152.077117,116.879937 156.181855,117.214654 C160.802419,117.596583 154.44244,130.244645 153.790423,131.547574 Z" id="Path" fill="#F05831"></path>
                <path d="M149.43871,225.891871 C149.104234,225.104053 143.440726,225.295723 142.852218,226.120183 C142.26371,226.944643 142.524093,229.396178 141.705544,229.810522 C140.886996,230.224866 135.804234,228.835263 132.994355,230.730817 C130.184476,232.62637 134.819859,234.46555 137.842843,234.617053 C140.865827,234.768557 146.033972,235.115957 148.704839,233.998356 C151.375706,232.880755 149.864919,226.190649 149.43871,225.891871 Z" id="Path" fill="#152D54"></path>
                <path d="M167.978831,144.426767 C164.495766,144.061749 162.072581,143.573415 162.043649,142.579835 C162.015423,141.562297 162.528427,141.318482 161.973085,140.312218 C161.417742,139.305954 161.558165,131.465833 162.255343,128.181381 C162.255343,128.181381 164.559274,129.511792 166.312802,131.792093 C166.588397,132.172411 166.832196,132.574723 167.041734,132.994959 C167.256956,136.512655 167.647883,140.538416 167.978831,144.426767 Z" id="Path" fill="#E32710"></path>
                <path d="M167.597077,160.642556 C165.322782,163.873453 159.739012,160.713023 154.189819,159.746925 C160.019153,156.666122 165.576815,142.892707 165.576815,142.892707 C166.22927,142.357244 166.954638,141.917122 167.731149,141.585551 C167.815827,142.534737 167.899093,143.483923 167.978831,144.426767 C168.603327,151.775735 169.009778,158.634961 167.597077,160.642556 Z" id="Path" fill="#E32710"></path>
                <path d="M174.563911,136.769859 C174.520161,138.544914 174.433367,139.840796 174.34375,140.770956 C174.319052,141.021817 174.292944,141.246606 174.268952,141.446731 C174.134879,142.529804 174.011391,142.892707 174.011391,142.892707 C174.011391,142.892707 168.412802,142.404373 164.33629,140.990107 C161.189113,139.900693 161.795968,125.223895 162.240524,118.588049 C162.371069,116.629076 162.486794,115.369837 162.486794,115.369837 C170.423185,115.477651 174.337399,120.907107 174.553327,130.785125 C174.607661,133.218339 174.602722,135.185768 174.563911,136.769859 Z" id="Path" fill="#F05831"></path>
                <path d="M174.180746,141.730007 C174.148286,143.332419 173.810282,147.341973 171.48377,151.739797 C168.466431,157.439846 158.682661,162.243559 156.97006,165.012194 C155.25746,167.780829 157.459778,174.3751 154.279435,171.283727 C154.011438,171.025516 153.763511,170.747309 153.537802,170.451516 C151.360887,167.586341 152.772177,164.474533 155.665323,160.615074 C158.84496,156.381437 164.144355,149.052903 164.797077,141.725075 L174.17369,140.992221 C174.17369,140.992221 174.190625,141.256471 174.180746,141.730007 Z" id="Path" fill="#FFC1C2"></path>
                <path d="M174.180746,141.730007 C174.148286,143.332419 173.810282,147.341973 171.48377,151.739797 C168.466431,157.439846 158.682661,162.243559 156.97006,165.012194 C155.25746,167.780829 157.459778,174.3751 154.279435,171.283727 C154.011438,171.025516 153.763511,170.747309 153.537802,170.451516 C155.463508,171.239333 154.620262,169.817316 154.693649,167.131127 C154.775504,164.118677 157.180343,159.45026 161.256149,157.062145 C165.331956,154.674029 168.050806,147.671052 169.458569,142.264145 C169.45998,142.262735 171.775202,140.876656 174.180746,141.730007 Z" id="Path" fill="#FFA7A6"></path>
                <path d="M174.563911,136.769859 C174.520161,138.544914 174.433367,139.840796 174.34375,140.770956 C171.38004,140.969672 163.331452,139.554701 163.331452,139.554701 C164.05756,138.850035 165.702419,138.508976 168.236391,138.875403 C170.72873,139.235487 173.937298,138.09886 174.563911,136.769859 Z" id="Path" fill="#E32710"></path>
                <path d="M174.563911,136.769859 C174.520161,138.544914 174.433367,139.840796 174.34375,140.770956 C174.319052,141.021817 174.292944,141.246606 174.268952,141.446731 C172.451915,141.420659 171.033569,139.484235 172.504839,138.305327 C174.745262,136.514065 174.55121,130.787239 173.607056,127.232195 C172.72994,123.928013 169.18619,119.06229 162.237702,118.590163 C162.368246,116.63119 162.483972,115.371951 162.483972,115.371951 C170.420363,115.479765 174.334577,120.909221 174.550504,130.787239 C174.607661,133.218339 174.602722,135.185768 174.563911,136.769859 Z" id="Path" fill="#E32710"></path>
                <path d="M173.195665,139.119922 C174.989415,138.99731 176.742238,139.038181 176.660383,140.463017 C176.578528,141.887853 176.70131,143.557208 175.396573,143.719986 C174.091835,143.882764 162.650504,143.48956 162.433165,142.29515 C162.215827,141.10074 162.052117,139.798516 162.867843,139.417996 C163.683569,139.037476 171.782258,139.417996 173.195665,139.119922 Z" id="Path" fill="#F05831"></path>
                <path d="M140.449496,134.197121 C138.391835,134.133701 136.327117,133.861699 134.43881,133.285282 C126.611089,130.895757 128.466935,129.425823 128.466935,129.425823 L133.084677,119.25255 C134.294153,119.350499 134.029536,119.376571 135.15998,119.381504 C134.819153,120.487126 133.987903,124.326855 133.043044,127.191325 C132.091835,130.080458 135.780948,133.696807 140.449496,134.197121 Z" id="Path" fill="#E32710"></path>
                <path d="M129.485887,131.218495 C128.21236,130.803453 126.997794,130.226025 125.872278,129.500517 C125.002161,128.942584 124.182393,128.309983 123.422278,127.609897 C119.122782,123.677152 116.789214,116.886984 115.617843,110.979763 C118.810887,118.942497 123.547883,126.677623 125.351512,125.411337 C127.364012,124.002003 130.136492,119.985403 130.136492,119.985403 C130.136492,119.985403 130.601512,127.023614 129.485887,131.218495 Z" id="Path" fill="#FC9D9D"></path>
                <path d="M134.466331,117.461287 C133.786794,117.081472 132.129234,115.860285 131.286694,117.163213 C130.444153,118.466142 127.699194,124.139413 127.128327,125.929267 C126.55746,127.71912 125.945665,129.67457 126.352117,130.285516 C126.758569,130.896462 129.164819,131.995037 129.81754,131.995037 C130.470262,131.995037 134.872782,119.985403 135.27994,119.089772 C135.687097,118.194141 134.466331,117.461287 134.466331,117.461287 Z" id="Path" fill="#F05831"></path>
                <path d="M175.493952,196.150709 C176.552419,196.484721 178.313004,196.528411 178.504234,197.385285 C178.695464,198.24216 177.290524,203.269957 176.585585,206.79329 C175.880645,210.316623 173.269052,213.221964 172.105444,213.438297 C170.941835,213.654629 169.847379,212.13114 169.847379,212.13114 L175.493952,196.150709 Z" id="Path" fill="#FFFFFF"></path>
                <path d="M169.178427,194.590577 C168.331653,194.697687 166.973286,200.191973 167.608367,200.981904 C168.243448,201.771835 170.675806,202.187589 170.854335,203.086743 C171.032863,203.985898 168.314012,208.492946 169.37248,211.709045 C170.430948,214.925143 173.465222,210.969145 174.435484,208.105379 C175.405746,205.241614 177.142339,200.369549 176.791633,197.499441 C176.440927,194.629334 169.582056,194.261498 169.178427,194.590577 Z" id="Path" fill="#152D54"></path>
                <path d="M162.262399,123.451659 C160.851109,128.93467 152.096875,131.051489 149.922782,126.003257 C147.74869,120.955025 150.895161,118.413997 153.394556,117.383774 C155.481855,116.521967 156.993347,115.140115 156.918548,112.356682 C156.905847,111.806337 156.869859,111.215122 156.826109,110.586559 L162.099395,108.253408 C162.099395,108.253408 163.022379,113.467941 162.915121,115.69046 C162.807863,117.912979 163.675101,117.970057 162.262399,123.451659 Z" id="Path" fill="#FFA7A6"></path>
                <path d="M162.915121,115.69046 C162.601815,113.457371 158.591633,113.219899 156.917137,112.356682 C156.904435,111.806337 156.868448,111.215122 156.824698,110.586559 L162.31744,108.023687 C162.31744,108.023687 163.022379,113.464418 162.915121,115.69046 Z" id="Path" fill="#DD4E4F"></path>
                <path d="M157.928327,111.815498 C157.703931,111.895125 157.486593,111.962069 157.279839,112.014214 C157.27631,112.014214 157.274899,112.014214 157.272782,112.014214 C151.780746,113.423547 152.54496,105.487591 151.816734,100.540127 C151.811794,100.50137 151.805444,100.464023 151.799093,100.426675 C151.756754,100.139876 151.705948,99.862942 151.650202,99.600806 C153.000806,95.474278 158.931754,96.7398593 162.809274,98.5191427 C164.67006,99.374608 166.059476,100.351276 166.24506,100.903735 C166.814516,102.614665 164.533165,109.45416 157.928327,111.815498 Z" id="Path" fill="#FFC1C2"></path>
                <path d="M157.928327,111.815498 C157.703931,111.895125 157.486593,111.962069 157.279839,112.014214 C162.368952,110.332175 162.403528,106.926521 163.601714,105.912505 C164.947379,104.772355 163.8875,103.713945 162.500907,104.24315 C161.114315,104.772355 162.052823,102.655536 159.443347,102.573795 C156.873387,102.494167 153.475,102.334913 151.816734,100.541536 C151.789214,100.514054 151.763105,100.486572 151.738407,100.456976 L151.799093,100.428085 C152.367843,100.156083 156.950302,98.0730887 162.807157,98.520552 C164.667944,99.3760173 166.057359,100.352685 166.242944,100.905144 C166.814516,102.614665 164.533165,109.45416 157.928327,111.815498 Z" id="Path" fill="#FFA7A6"></path>
                <path d="M170.22631,100.050383 C169.125504,104.813225 164.84506,108.667752 163.514214,108.775566 C162.196774,108.882675 164.761794,105.327632 162.37248,103.61952 C162.346371,103.601903 162.318851,103.582173 162.291331,103.564556 C159.76371,101.882517 159.218952,102.098849 157.236089,101.882517 C155.253226,101.666184 153.077722,101.665479 151.976915,100.891755 C148.063407,98.9785853 145.902722,92.681684 148.715423,89.221066 C151.528125,85.760448 152.36996,93.7400933 157.22127,92.9663693 C162.072581,92.1926453 163.41754,93.9846127 164.070262,95.694134 C164.391331,96.539734 166.156149,96.4495367 167.73256,96.715196 C169.358367,96.9871973 170.785181,97.6319673 170.22631,100.050383 Z" id="Path" fill="#152D54"></path>
                <path d="M151.253629,99.8742167 C147.503125,95.2058 147.832661,90.8368667 149.514214,89.533938 C151.195766,88.2310093 151.607157,91.2956047 153.074899,92.1665727 C154.542641,93.0375407 151.630444,92.47874 150.887399,91.609886 C150.144355,90.741032 149.433065,96.562988 150.887399,98.7072887 C152.341734,100.851589 151.253629,99.8742167 151.253629,99.8742167 Z" id="Path" fill="#1D3E6D"></path>
                <path d="M170.22631,100.050383 C169.125504,104.813225 164.84506,108.667752 163.514214,108.775566 C162.196774,108.882675 164.761794,105.327632 162.37248,103.61952 C162.847379,103.167124 163.193145,102.825361 163.193145,102.825361 C165.046875,102.662583 165.12873,105.389643 165.984677,105.035195 C166.840625,104.680748 169.205242,102.561111 169.53125,99.609262 C169.715423,97.934974 168.671774,97.112628 167.73256,96.7137867 C169.358367,96.9871973 170.785181,97.6319673 170.22631,100.050383 Z" id="Path" fill="#10233F"></path>
                <path d="M164.871875,104.648333 C164.627722,105.937873 163.626411,106.745421 162.765524,107.073091 C162.194657,107.290833 161.687298,107.295766 161.503125,107.090708 C161.040222,106.574892 161.150302,103.454628 161.150302,103.454628 C161.189113,103.428555 161.23004,103.403892 161.270968,103.377819 L161.270968,103.377819 C162.805746,102.45682 165.268448,102.56252 164.871875,104.648333 Z" id="Path" fill="#FFC1C2"></path>
                <path d="M164.871875,104.648333 C164.627722,105.937873 163.626411,106.745421 162.765524,107.073091 C163.874093,106.123905 164.508468,103.005051 161.271673,103.377819 C162.805746,102.45682 165.268448,102.56252 164.871875,104.648333 Z" id="Path" fill="#FFA7A6"></path>
                <path d="M153.377621,163.600747 C153.499698,163.608498 153.681048,163.635275 153.606956,163.732519 C150.949496,167.189614 153.298589,171.116017 155.217238,172.003897 C157.240323,172.940399 155.993448,173.56121 154.93498,173.337126 C153.876512,173.113042 150.192339,171.742465 150.355343,167.347459 C150.490121,163.760706 152.602823,163.558467 153.377621,163.600747 Z" id="Path" fill="#000B28"></path>
                <path d="M174.125,219.482927 C144.64879,231.499608 113.727419,230.757594 81.6099798,219.436419 C80.6886666,219.112818 80.0709671,218.24415 80.0709671,217.268865 L80.0709671,179.027309 C80.0709671,178.309498 80.4062167,177.632774 80.9784753,177.1984 C81.5507338,176.764026 82.2935436,176.622035 82.9859879,176.814656 C114.464819,185.636378 144.429335,186.321314 172.532359,177.019009 C173.233476,176.785523 174.004242,176.902766 174.603947,177.334123 C175.203653,177.76548 175.559577,178.458379 175.559577,179.196429 L175.559577,217.353425 C175.559577,218.288291 174.991816,219.129813 174.125,219.482927 L174.125,219.482927 Z" id="Path" fill="#AC77FF" opacity="0.12"></path>
                <path d="M162.031653,198.884111 C140.249798,207.788279 117.39748,207.235116 93.6581653,198.848173 C93.037725,198.626997 92.6229839,198.040341 92.6229839,197.382467 L92.6229839,191.674667 C92.6229839,191.185947 92.8528732,190.725602 93.2433078,190.430933 C93.6337425,190.136264 94.1398895,190.041325 94.6107863,190.174431 C117.935181,196.737697 140.132661,197.245761 160.94496,190.315365 C161.421763,190.154319 161.947045,190.232319 162.356296,190.524934 C162.765548,190.81755 163.008728,191.289003 163.009677,191.791641 L163.009677,197.440954 C163.006605,198.075463 162.620367,198.64539 162.031653,198.884111 L162.031653,198.884111 Z" id="Path" fill="#AC77FF" opacity="0.5"></path>
                <path d="M133.409277,197.161201 L133.409277,203.4426 C133.41089,204.457521 132.603865,205.289656 131.588004,205.320537 C119.211694,205.657367 106.543952,203.407367 93.613004,198.83408 C93.0191204,198.621272 92.6235417,198.058354 92.6250962,197.42827 L92.6250962,191.584469 C92.6250962,191.116074 92.845031,190.674785 93.2195341,190.392774 C93.5940371,190.110763 94.0794337,190.020777 94.5303427,190.149768 C107.198085,193.720314 119.534879,195.505235 131.49627,195.287493 C131.999888,195.278809 132.485944,195.472242 132.845541,195.824452 C133.205138,196.176662 133.408215,196.658208 133.409277,197.161201 L133.409277,197.161201 Z" id="Path" fill="#AC77FF" opacity="0.5"></path>
                <path d="M162.086694,213.839957 C140.274496,222.774425 117.387601,222.221262 93.6122984,213.812475 C93.0160685,213.600066 92.6187655,213.035295 92.6208586,212.403141 L92.6208586,206.558636 C92.6208586,206.090332 92.8412165,205.649236 93.21558,205.367192 C93.5899435,205.085147 94.0751262,204.994828 94.5261089,205.12323 C117.914718,211.718205 140.17006,212.228384 161.033165,205.258526 C161.489468,205.104214 161.992265,205.17879 162.383957,205.458881 C162.775648,205.738971 163.008973,206.190293 163.008973,206.671383 L163.008973,212.462333 C163.00986,213.065855 162.645504,213.610099 162.086694,213.839957 L162.086694,213.839957 Z" id="Path" fill="#AC77FF" opacity="0.5"></path>
                <path d="M116.190121,211.280607 L115.73498,217.32101 C115.695197,217.843839 115.437132,218.325878 115.023859,218.649309 C114.610586,218.97274 114.080187,219.107761 113.562298,219.021371 C106.976277,217.936184 100.315222,216.195188 93.5791331,213.798381 C93.0045984,213.593521 92.6213907,213.049703 92.6222767,212.440489 L92.6222767,206.492397 C92.6222767,206.04126 92.8343452,205.616279 93.1946892,205.344182 C93.5550332,205.072084 94.0222264,204.984306 94.4569556,205.107023 C101.257493,207.026535 107.961122,208.42154 114.567843,209.292038 C115.551786,209.419195 116.264319,210.29261 116.190121,211.280607 L116.190121,211.280607 Z" id="Path" fill="#AC77FF" opacity="0.5"></path>
                <g id="Group" opacity="0.74" transform="translate(76.421371, 75.475133)">
                    <path d="M30.5071573,0.0373473333 L30.5071573,35.1783693 C30.5071573,35.1783693 0.0776209677,38.1901147 0.0776209677,51.2447693 L0.0776209677,9.701146 C0.0776209677,9.701146 0.0776209677,0.0373473333 30.5071573,0.0373473333 Z" id="Path" fill="#AC77FF" opacity="0.15"></path>
                    <path d="M0.0932800809,9.70044133 L0.0932800809,9.99851533 C0.0847518597,9.8992482 0.0847518597,9.79970846 0.0932800809,9.70044133 Z" id="Path" fill="#07AE7B" opacity="0.51"></path>
                    <path d="M0.0932800809,9.70044133 L0.0932800809,9.99851533 C0.0847518597,9.8992482 0.0847518597,9.79970846 0.0932800809,9.70044133 Z" id="Path" fill="#07AE7B" opacity="0.51"></path>
                    <path d="M37.6052419,28.758856 L37.6052419,68.0087893 C22.433871,65.6397 6.75231855,60.847262 0.0776209677,51.2461787 L0.0776209677,9.99851533 C0.167237903,12.0364113 2.22772177,23.9382313 37.6052419,28.758856 Z" id="Path" fill="#AC77FF" opacity="0.15"></path>
                    <path d="M2.60100806,9.83150933 C2.66239919,9.57994333 3.14647177,8.06984267 6.14969758,6.46390733 C9.28346774,4.79173333 15.5841734,2.817962 27.9837702,2.58048933 L27.9837702,32.9516227 C25.090625,33.3575107 19.8448589,34.2460953 14.5362903,35.9112227 C9.39872312,37.5211511 5.4202957,39.4653264 2.60100806,41.7437487 L2.60100806,9.83150933 Z" id="Path" fill="#AC77FF" opacity="0.15"></path>
                    <path d="M35.0818548,65.030868 C18.8795363,62.1544187 7.7077621,57.1343733 2.60100806,50.425242 L2.60100806,19.1049227 C3.04791667,19.5094013 3.53481183,19.9164638 4.06169355,20.32611 C10.4012097,25.2362273 20.8313508,28.8046593 35.0818548,30.9433227 L35.0818548,65.030868 Z" id="Path" fill="#AC77FF" opacity="0.15"></path>
                </g>
                <path d="M108.159879,121.268601 L107.633468,132.917446 C107.571794,133.12305 107.430762,133.295715 107.241468,133.397369 C107.052175,133.499023 106.830166,133.521317 106.624395,133.459335 C98.4614919,133.846901 86.8783266,129.985328 82.2796371,124.363497 L82.4080645,123.973112 L82.9126008,124.156325 C83.7946573,124.470607 84.765625,123.686313 85.4663306,123.403741 C85.5209843,123.38126 85.5768112,123.361736 85.6335685,123.345254 C85.9532258,123.252238 86.1980847,123.309316 86.3392137,123.697587 C86.6214718,124.491042 87.6136089,124.88636 88.6424395,124.91807 C88.6925403,124.91807 88.7419355,124.91807 88.7913306,124.91807 C89.3200632,124.92332 89.8442054,124.819692 90.3310484,124.613654 C90.9393145,124.340243 91.6992944,124.323331 92.4091734,124.472721 C92.4571573,124.482586 92.5037298,124.491747 92.5503024,124.504431 C93.3342742,124.693986 94.0370968,125.08719 94.3779234,125.561431 C94.6171371,125.891919 95.0306452,126.100501 95.5274194,126.185765 C95.5739919,126.195631 95.6226815,126.202677 95.6685484,126.208315 C96.5315524,126.317538 97.6020161,126.082179 98.4205645,125.513513 C98.8383065,125.2246 99.1678427,125.16118 99.4409274,125.242217 C99.4867048,125.255951 99.5311138,125.273879 99.5735887,125.295771 C100.103528,125.560021 100.420363,126.390823 100.833165,127.087739 C101.082258,127.510539 101.735685,127.447823 102.516835,127.082101 C102.574698,127.054619 102.634677,127.025023 102.693246,126.994723 C103.892843,126.373911 105.346472,125.092123 106.100806,123.753256 C106.506552,123.032382 107.122581,122.368586 107.176915,122.358016 C108.159173,122.169165 107.631351,121.637847 108.159879,121.268601 Z" id="Path" fill="#DFCBFF" opacity="0.5"></path>
                <rect id="Rectangle" fill="#DFCBFF" opacity="0.5" x="95.7228831" y="82.9516467" width="3.5875" height="23.9382313" rx="0.434727823"></rect>
                <rect id="Rectangle" fill="#DFCBFF" opacity="0.5" x="88.0038306" y="85.7745413" width="3.5875" height="23.9382313" rx="0.434727823"></rect>
                <rect id="Rectangle" fill="#DFCBFF" opacity="0.5" x="81.8075605" y="88.4882127" width="3.5875" height="23.9382313" rx="0.434727823"></rect>
                <path d="M265.271774,204.048613 C265.244254,204.48903 272.165927,203.214993 278.021371,208.194167 C283.876815,213.173342 275.65252,218.528809 262.309476,217.530296 C248.966431,216.531783 212.058367,216.88764 209.986593,213.734257 C207.914819,210.580873 217.120665,204.959747 219.48881,204.770192 C221.856956,204.580637 214.657964,202.401103 214.907056,200.815603 C215.156149,199.230103 219.786593,195.978771 222.175202,196.851853 C224.56381,197.724935 218.989214,193.099503 222.223891,191.214519 C225.458569,189.329536 227.468246,192.482919 227.533165,191.728926 C227.598085,190.974933 218.462097,185.754057 222.683266,180.531773 C226.904435,175.309488 236.173085,171.435935 245.627319,178.475555 C255.081552,185.515175 250.940121,190.168089 252.511593,189.243567 C254.083065,188.319044 253.640625,185.161433 257.305746,186.27692 C260.970867,187.392407 260.622278,193.4011 261.05131,193.679443 C261.480343,193.957787 264.168145,192.27011 266.997077,193.923963 C269.826008,195.577815 268.917137,199.876282 268.21996,201.340579 C267.522782,202.804877 264.535081,203.856944 265.271774,204.048613 Z" id="Path" fill="#DFCBFF"></path>
            </g>
        </g>
    </g>
</svg>